**ABCDEFGHIJKLMNOPQRSTUVWXYZabcdefghijklmnopqrstuvwxyz**************************
**PARASOLID !"#$%&'()*+,-./:;<=>?@[\]^_`{|}~0123456789**************************
**PART1;
MC=AMD64;
MC_MODEL=Intel64 Family 6 Model 186 Stepping 2, GenuineIntel;
MC_ID=unknown;
OS=Windows_NT;
OS_RELEASE=unknown;
FRU=Parasolid Version 34.1, build 247, 10- 7-2022;
APPL=SOLIDWORKS 2023-2023010;
SITE=;
USER=unknown;
FORMAT=text;
GUISE=transmit;
KEY=Calandras;
FILE=Calandras.x_t;
DATE=Wed Jun  5 16:14:08 2024;
**PART2;
SCH=SCH_3401247_34101;
USFLD_SIZE=0;
**PART3;
**END_OF_HEADER*****************************************************************
T51 : TRANSMIT FILE created by modeller version 340124723 SCH_3401247_34101_1300
6231 0 10 21 CCCCI7 lattice222 0 CCCI4 mesh1006 0 I8 polyline1008 0 CCCCCCCCCCA1
6 mesh_offset_data206 0 Z1 7 2 3 0 0 0 0 0 0 0 0 1e3 1e-8 0 0 0 1 0 1 4 0 81 255
 1 2 7 5 1 0 0 0 0 0 70 11 CI9 list_type0 0 1 uI10 notransmit0 0 1 lCCCDCCDI12 f
inger_index0 0 1 dI12 finger_block1012 0 CZ3 0 4 T1 0 0 1 20 1 6 6 11 255 4 5 0
 1 7 8 1 9 0 10 0 12 36 CCCI7 lattice222 0 CCCI4 mesh1006 0 I8 polyline1008 0 CC
CCCCCDI5 owner1040 0 CCCI16 boundary_lattice222 0 CCCI13 boundary_mesh1006 0 I17
 boundary_polyline1008 0 CCCA16 index_map_offset0 0 1 dA9 index_map82 0 A17 node
_id_index_map82 0 A20 schema_embedding_map82 0 A5 child12 0 A14 lowest_node_id0
 0 1 dA16 mesh_offset_data206 0 Z7 245 11 12 0 0 0 0 0 0 0 1e3 1e-8 4 13 14 1 0
 1 1 15 0 16 17 0 0 0 18 19 0 0 0 0 0 0 0 0 100 10 CCCCCCCCCA9 precision229 0 Z8
 6 4 0 0 1 0 0 0 1 0 0 0 1 0 -1.25 0 1 1 ?0 11 9 3 0 1 14 20 1 10 4 0 0 12 14 22
1 21 22 0 0 0 0 0 0 0 1e3 1e-8 9 7 0 1 0 1 1 23 0 24 25 0 0 0 26 27 0 0 0 0 0 0
 0 0 100 20 4 9 0 0 1 0 0 0 1 0 0 0 1 0 0 0 1 0 ?0 11 10 1 0 1 7 28 1 0 9 0 4 10
0 28 2 10 0 0 1 0 0 0 1 0 0 0 1 0 0 0 1 0 ?0 81 1 21 221 5 14 29 0 0 0 30 70 22
 0 4 T14 0 0 4 20 1 31 31 13 255 23 59 0 14 0 32 0 0 33 0 50 255 24 55 0 32 34 0
 0 +1.58923291946056 -.4 0 0 -1 0 0 0 1 31 255 25 29 0 27 35 0 0 +.5442329194605
6 -.4 0 0 1 0 0 0 1 .03 19 9 CCCCCCI5 frame230 0 CA5 owner12 0 Z26 60 0 14 33 0
 36 0 V0 16 255 27 17 0 ?37 0 38 25 0 0 14 17 255 37 0 39 37 37 0 40 27 0 0 +16
 38 13 0 ?41 27 42 35 0 0 14 17 41 0 43 41 41 0 44 38 0 0 +16 42 9 0 ?45 38 46 4
7 0 0 14 31 35 28 0 38 47 25 0 +.54423291946056 1665334536937735e-31 0 0 1 0 0 0
 1 .03 31 47 27 0 42 48 35 0 +1.58923291946056 0 0 0 -1 0 0 0 1 .03 31 48 26 0 4
6 49 47 0 +1.58923291946056 -.4 0 0 -1 0 0 0 1 .03 16 46 6 0 ?50 42 51 48 0 0 14
 31 49 116 0 51 52 48 0 +.54423291946056 -.4 0 0 1 0 0 0 1 .027 16 51 85 0 ?53 4
6 54 49 0 0 14 31 52 117 0 55 56 49 0 +1.58923291946056 -.4 0 0 -1 0 0 0 -1 .027
 16 55 81 0 ?57 58 0 52 0 0 14 31 56 118 0 54 59 52 0 +.54423291946056 219473346
491534e-30 0 1224646799147352e-31 1 0 -1 1224646799147352e-31 0 .027 16 54 84 0
 ?60 51 58 56 0 0 14 31 59 119 0 58 0 56 0 -1.58923291946056 0 0 0 1 0 0 0 1 .02
7 16 58 83 0 ?61 54 55 59 0 0 14 17 61 0 62 61 61 0 63 58 0 0 +15 255 62 102 0 6
1 64 0 17 63 0 65 63 63 0 61 58 0 0 -15 65 95 0 63 66 67 14 255 66 91 68 ?64 69
 65 23 70 +0 0 0 64 36 15 67 96 0 57 66 0 17 57 0 67 57 57 0 71 55 0 0 +17 71 0
 72 71 71 0 57 55 0 0 -15 72 78 0 71 32 73 14 32 49 74 ?75 0 72 23 24 +0 0 76 75
 36 15 73 51 0 50 32 0 17 50 0 73 50 50 0 77 46 0 0 +17 77 0 78 77 77 0 50 46 0
 0 -15 78 7 0 77 79 0 14 79 2 80 ?81 75 82 23 83 -0 0 75 81 36 81 1 80 215 84 79
 85 0 86 87 88 14 81 12 87 ?69 79 43 23 89 -0 0 79 69 36 14 75 36 86 ?79 32 90 2
3 34 -0 0 32 79 36 15 82 10 0 45 79 78 51 255 83 23 0 79 91 89 0 -1.589232919460
56 -.4 0 0 1 0 .03 0 0 1 13 36 3 0 0 0 0 0 0 26 69 14 69 16 92 ?66 81 39 23 93 -
0 0 81 0 36 81 1 92 217 84 69 94 0 87 68 95 15 39 18 0 37 69 96 51 93 25 0 69 89
 34 0 -.54423291946056 1665334536937735e-31 0 0 -1 0 .03 0 0 -1 54 255 89 24 0 8
1 83 93 0 -1.06673291946056 1554855512360845e-31 0 0 0 1 .5225 .03 1 0 0 50 34 4
2 0 75 93 24 0 +.54423291946056 -.4 0 0 1 0 0 0 1 15 96 15 0 44 69 0 17 44 0 96
 44 44 0 41 38 0 0 -80 7 CCCCCDI12 legal_owners0 16 1 lCZ1 84 0 97 8001 0 0 0 0
 3 5 0 0 0 FFFFTFTFFFFFFFFF2 81 1 94 204 98 69 0 92 99 100 101 81 1 87 216 84 81
 102 0 80 92 103 81 1 68 218 84 66 104 0 92 105 106 83 255 3 95 .792156862745098
 .819607843137255 .933333333333333 81 1 104 189 98 66 0 68 0 107 108 81 1 105 21
9 84 64 100 0 68 109 110 83 3 106 .792156862745098 .819607843137255 .93333333333
3333 14 64 97 105 ?76 66 111 23 112 +0 0 66 76 36 81 1 100 207 98 64 0 105 94 11
3 114 81 1 109 220 84 76 113 0 105 0 115 83 3 110 .792156862745098 .819607843137
255 .933333333333333 14 76 103 109 ?0 64 116 23 91 +0 0 64 32 36 81 1 113 210 98
 76 0 109 100 0 117 83 3 115 .792156862745098 .819607843137255 .933333333333333
 80 1 98 118 119 9000 1 1 1 1 1 1 1 1 0 FFFFTFTFFFFFFFFF1 82 255 1 117 -92097730
4 79 255 14 119 SWEntUnchanged15 116 107 0 120 76 121 51 91 111 0 76 112 83 0 -.
54423291946056 1665334536937735e-31 0 0 -1 0 .027 0 0 -1 54 112 112 0 64 70 91 0
 -1.06673291946056 1554855512360845e-31 0 0 0 1 .5225 .027 1 0 0 51 70 113 0 66
 0 112 0 -1.58923291946056 -.4 0 0 1 0 .027 0 0 1 17 120 0 116 120 120 0 53 51 0
 0 -15 121 108 0 60 76 0 17 60 0 121 60 60 0 122 54 0 0 +17 122 0 111 122 122 0
 60 54 0 0 -15 111 101 0 122 64 62 17 53 0 90 53 53 0 120 51 0 0 +15 90 73 0 53
 75 123 15 123 38 0 40 75 0 17 40 0 123 40 40 0 37 27 0 0 -82 1 114 -921304984 8
1 1 107 192 98 32 0 74 104 85 124 82 1 108 -921436056 81 1 74 213 84 32 107 0 0
 86 125 81 1 85 195 98 79 0 80 107 102 126 82 1 124 -926547864 81 1 102 198 98 8
1 0 87 85 99 127 82 1 126 -929693592 81 1 99 201 98 75 0 86 102 94 128 82 1 127
 -928972696 81 1 86 214 84 75 99 0 74 80 129 82 1 128 -925695896 83 3 129 .79215
6862745098 .819607843137255 .933333333333333 83 3 125 .792156862745098 .81960784
3137255 .933333333333333 83 3 103 .792156862745098 .819607843137255 .93333333333
3333 82 1 101 -928579480 79 15 97 SDL/TYSA_COLOUR17 45 0 82 45 45 0 130 42 0 0 +
17 130 0 131 130 130 0 45 42 0 0 -15 131 11 0 130 81 0 15 43 14 0 41 81 131 83 3
 88 .792156862745098 .819607843137255 .933333333333333 19 33 5 0 14 0 26 23 0 S0
 74 4 CI16 index_map_offset0 0 1 dCCZ20 31 4 0 0 29 113 109 21 0 0 0 0 0 0 0 0 0
 0 0 0 0 0 0 0 81 2 29 152 132 14 0 21 0 0 133 0 80 2 132 134 135 9000 0 0 0 0 3
 5 0 0 0 FFTFTTTFFTFFFFFF3 3 84 255 11 133 Sweep-Thin179 21 135 SWIMPLICITBODYNA
ME_ID80 1 5 136 137 8017 0 0 0 0 0 0 0 0 0 TTTTTTTTTTTTTFTF3 84 17 30 Calandra_2
^Assem179 13 137 SDL/TYSA_NAME81 1 11 245 5 7 138 0 0 0 139 70 12 0 4 T7 0 0 4 2
0 1 140 140 13 15 59 0 7 0 141 0 0 142 0 50 16 55 0 141 143 0 0 +-.0652624654257
31 -.4 0 0 1 0 0 0 1 31 17 29 0 19 144 0 0 +-1.22526246542573 -.4 0 -55511151231
2578e-30 -1 0 0 0 1 .03 19 18 5 0 7 142 0 145 0 V0 16 19 17 0 ?146 0 147 17 0 0
 7 17 146 0 148 146 146 0 149 19 0 0 +16 147 13 0 ?150 19 151 144 0 0 7 17 150 0
 152 150 150 0 153 147 0 0 +16 151 9 0 ?154 147 155 156 0 0 7 31 144 28 0 147 15
6 17 0 +-1.22526246542573 1110223024625156e-31 0 -888178419700125e-30 -1 0 0 0 1
 .03 31 156 27 0 151 157 144 0 +-.065262465425731 -4440892098500625e-31 0 0 1 0
 0 0 1 .03 31 157 26 0 155 158 156 0 +-.065262465425731 -.4 0 0 1 0 0 0 1 .03 16
 155 6 0 ?159 151 160 157 0 0 7 31 158 116 0 160 161 157 0 +-1.22526246542573 -.
4 0 -555111512312578e-30 -1 0 1 -555111512312578e-30 0 .029 16 160 81 0 ?162 155
 163 158 0 0 7 31 161 117 0 164 165 158 0 +-.065262465425731 -.4 0 0 1 0 0 0 1 .
029 16 164 83 0 ?166 167 0 161 0 0 7 31 165 118 0 163 168 161 0 +-1.225262465425
73 1110223024625156e-31 0 -555111512312578e-30 -1 0 1 -555111512312578e-30 0 .02
9 16 163 86 0 ?169 160 167 165 0 0 7 31 168 119 0 167 0 165 0 --.065262465425731
 -4271459744933625e-31 0 0 -1 0 0 0 -1 .029 16 167 85 0 ?170 163 164 168 0 0 7 1
7 170 0 171 170 170 0 172 167 0 0 +15 171 95 0 170 173 174 17 172 0 175 172 172
 0 170 167 0 0 -15 175 102 0 172 176 0 14 176 97 177 ?178 173 179 15 180 -0 0 17
3 178 145 81 1 177 243 84 176 181 0 182 183 184 14 178 103 183 ?0 176 185 15 186
 -0 0 176 141 145 14 173 91 182 ?176 187 171 15 188 -0 0 0 176 145 15 179 101 0
 169 176 175 54 180 112 0 176 188 186 0 +-.645262465425731 -4271459744933625e-31
 0 0 0 1 .58 .029 1 0 0 13 145 3 0 0 0 0 0 0 18 187 14 187 16 189 ?173 190 191 1
5 192 +0 0 190 0 145 81 1 189 241 84 187 193 0 194 182 195 14 190 12 194 ?187 19
6 197 15 198 +0 0 196 187 145 15 191 18 0 149 187 152 51 192 25 0 187 198 143 0
 +-1.22526246542573 0 0 -555111512312578e-30 -1 0 .03 1 -555111512312578e-30 0 5
4 198 24 0 190 199 192 0 +-.645262465425731 -4271459744933625e-31 0 0 0 1 .58 .0
3 1 0 0 50 143 42 0 200 192 16 0 +-1.22526246542573 -.4 0 -555111512312578e-30 -
1 0 0 0 1 14 200 36 201 ?196 141 202 15 143 +0 0 141 196 145 81 1 201 238 84 200
 203 0 204 205 206 14 196 2 205 ?190 200 207 15 199 +0 0 200 190 145 14 141 49 2
04 ?200 0 208 15 16 -0 0 178 200 145 15 202 74 0 209 200 148 17 209 0 202 209 20
9 0 162 160 0 0 -15 148 38 0 146 200 0 17 162 0 185 162 162 0 209 160 0 0 +15 18
5 107 0 162 178 210 15 210 108 0 211 178 0 17 211 0 210 211 211 0 169 163 0 0 -1
7 169 0 179 169 169 0 211 163 0 0 +81 1 204 237 84 141 212 0 0 201 213 15 208 77
 0 166 141 214 17 166 0 208 166 166 0 215 164 0 0 +15 214 51 0 216 141 0 17 216
 0 214 216 216 0 159 155 0 0 -17 159 0 217 159 159 0 216 155 0 0 +15 217 7 0 159
 196 0 17 215 0 174 215 215 0 166 164 0 0 -15 174 96 0 215 173 0 81 1 212 234 98
 141 0 204 218 0 219 83 3 213 .792156862745098 .819607843137255 .933333333333333
 81 1 218 231 98 196 0 205 203 212 220 82 1 219 1296498792 81 1 205 239 84 196 2
18 0 201 194 221 81 1 203 228 98 200 0 201 222 218 223 82 1 220 1293353064 81 1
 222 225 98 190 0 194 193 203 224 82 1 223 1297350760 81 1 194 240 84 190 222 0
 205 189 225 81 1 193 222 98 187 0 189 226 222 227 82 1 224 1294073960 81 1 226
 219 98 173 0 182 228 193 229 82 1 227 1294467176 81 1 182 242 84 173 226 0 189
 177 230 81 1 228 216 98 178 0 183 181 226 231 82 1 229 1302331496 81 1 183 244
 84 178 228 0 177 0 232 81 1 181 213 98 176 0 177 0 228 233 82 1 231 1301807208
 82 1 233 1301938280 83 3 232 .792156862745098 .819607843137255 .933333333333333
 83 3 230 .792156862745098 .819607843137255 .933333333333333 83 3 225 .792156862
745098 .819607843137255 .933333333333333 83 3 221 .792156862745098 .819607843137
255 .933333333333333 15 207 10 0 234 196 217 51 199 23 0 196 186 198 0 +-.065262
465425731 -.4 0 0 1 0 .03 0 0 1 51 186 111 0 178 180 199 0 +-1.22526246542573 0
 0 -555111512312578e-30 -1 0 .029 1 -555111512312578e-30 0 17 234 0 207 234 234
 0 154 151 0 0 -17 154 0 235 154 154 0 234 151 0 0 +15 235 11 0 154 190 0 83 3 2
06 .792156862745098 .819607843137255 .933333333333333 17 149 0 191 149 149 0 146
 19 0 0 -15 152 15 0 150 187 0 15 197 14 0 153 190 235 17 153 0 197 153 153 0 15
0 147 0 0 -83 3 195 .792156862745098 .819607843137255 .933333333333333 51 188 11
3 0 173 0 180 0 +-.065262465425731 -.4 0 0 1 0 .029 0 0 1 83 3 184 .792156862745
098 .819607843137255 .933333333333333 19 142 60 0 7 0 18 15 0 S0 74 20 140 4 0 0
 138 212 183 11 0 0 0 0 0 0 0 0 0 0 0 0 0 0 0 0 81 2 138 152 132 7 0 11 0 0 236
 0 84 11 236 Sweep-Thin184 17 139 Calandra_1^Assem174 20 6 1 0 0 2 0 0 0 0 0 0 0
 0 0 0 0 0 0 0 0 0 0 0 0 1 0 
