**ABCDEFGHIJKLMNOPQRSTUVWXYZabcdefghijklmnopqrstuvwxyz**************************
**PARASOLID !"#$%&'()*+,-./:;<=>?@[\]^_`{|}~0123456789**************************
**PART1;
MC=AMD64;
MC_MODEL=Intel64 Family 6 Model 186 Stepping 2, GenuineIntel;
MC_ID=unknown;
OS=Windows_NT;
OS_RELEASE=unknown;
FRU=Parasolid Version 34.1, build 247, 10- 7-2022;
APPL=SOLIDWORKS 2023-2023010;
SITE=;
USER=unknown;
FORMAT=text;
GUISE=transmit;
KEY=Calandra_Juncao_CorteLaser;
FILE=Calandra_Juncao_CorteLaser.x_t;
DATE=Wed Jun  5 17:03:38 2024;
**PART2;
SCH=SCH_3401247_34101;
USFLD_SIZE=0;
**PART3;
**END_OF_HEADER*****************************************************************
T51 : TRANSMIT FILE created by modeller version 340124723 SCH_3401247_34101_1300
6231 0 10 21 CCCCI7 lattice222 0 CCCI4 mesh1006 0 I8 polyline1008 0 CCCCCCCCCCA1
6 mesh_offset_data206 0 Z1 5 2 3 0 0 0 0 0 0 0 0 1e3 1e-8 0 0 0 1 0 1 4 0 81 255
 1 2 5 5 1 0 0 0 0 0 70 11 CI9 list_type0 0 1 uI10 notransmit0 0 1 lCCCDCCDI12 f
inger_index0 0 1 dI12 finger_block1012 0 CZ3 0 4 T1 0 0 1 20 1 6 6 11 255 4 3 0
 1 7 8 1 9 0 0 0 12 36 CCCI7 lattice222 0 CCCI4 mesh1006 0 I8 polyline1008 0 CCC
CCCCDI5 owner1040 0 CCCI16 boundary_lattice222 0 CCCI13 boundary_mesh1006 0 I17
 boundary_polyline1008 0 CCCA16 index_map_offset0 0 1 dA9 index_map82 0 A17 node
_id_index_map82 0 A20 schema_embedding_map82 0 A5 child12 0 A14 lowest_node_id0
 0 1 dA16 mesh_offset_data206 0 Z7 140 10 11 0 0 0 0 0 0 0 1e3 1e-8 4 12 0 1 0 1
 1 13 0 14 15 16 0 0 17 18 19 0 0 0 0 0 0 0 100 10 CCCCCCCCCA9 precision229 0 Z8
 4 4 0 0 1 0 0 0 1 0 0 0 1 .0392252228482275 .00250000000000017 0 1 1 ?0 11 9 1
 0 1 12 20 1 0 4 0 0 12 12 277 21 22 0 0 0 0 0 0 0 1e3 1e-8 9 23 7 1 0 1 1 24 0
 25 26 27 0 0 28 29 30 0 0 0 0 0 0 0 100 20 2 9 0 0 1 0 0 0 1 0 0 0 1 0 0 0 1 0
 ?0 81 1 21 277 5 12 31 0 0 0 32 70 22 0 4 T12 0 0 4 20 1 33 33 13 255 24 8 0 12
 0 34 0 0 35 0 54 255 25 87 0 36 37 0 38 +-.645262465425731 -4271459744933625e-3
1 0 0 0 1 .58 .03 1 0 0 38 12 CCCCCCCCCCCA17 intersection_data204 0 Z26 117 0 29
 39 0 0 +40 41 42 43 43 44 29 255 27 111 0 30 45 0 -1.225259474995122 -.085 -.02
99999998509554 19 9 CCCCCCI5 frame230 0 CA5 owner12 0 Z28 6 0 12 35 0 46 0 V0 16
 255 29 115 0 ?47 0 48 26 0 0 12 18 255 30 109 0 49 0 50 27 ?12 17 255 49 0 51 5
2 52 30 53 54 0 47 +18 50 26 0 55 30 56 57 ?12 17 55 0 58 59 59 50 60 61 0 62 -1
8 56 25 0 59 50 63 45 ?12 29 57 79 0 50 64 65 -1.23361748116322 115660267883949e
-30 -.02567476800335885 29 64 78 0 63 66 57 -1.22159918791377 1077686584310186e-
31 .02977549996004025 29 65 80 0 67 57 45 -1.22159918791377 1330786034363188e-31
 -.0297754999600402 18 67 21 0 68 63 69 65 ?12 29 45 81 0 56 65 27 -1.2336174811
63222 -533750650820074e-29 .02567476800335825 17 68 0 70 71 47 67 72 73 0 74 +18
 63 22 0 71 56 67 64 ?12 18 69 152 0 52 67 0 66 ?12 17 52 0 51 49 49 69 47 29 0
 53 -29 66 193 0 69 0 64 -1.22525947499485 -.085 .02999999985095545 15 255 51 16
1 0 52 75 0 17 47 0 70 68 76 30 52 29 0 72 +17 53 0 77 78 72 69 49 54 0 76 -15 7
7 123 0 72 79 80 17 78 0 77 81 53 63 76 48 0 82 -17 72 0 77 53 81 30 68 73 0 0 -
16 54 134 0 ?49 83 84 85 0 0 12 17 76 0 70 47 71 69 78 48 0 0 +15 70 63 0 76 86
 58 17 71 0 70 76 68 63 74 87 0 78 +16 48 19 0 ?76 29 87 88 73 73 12 16 87 18 0
 ?71 48 73 89 0 0 12 38 88 75 0 48 89 90 0 -40 37 91 92 93 94 16 73 110 0 ?68 87
 95 88 48 48 12 16 95 16 0 ?62 73 61 96 0 0 12 17 62 0 97 98 98 50 59 95 0 99 +1
6 61 15 0 ?60 95 100 90 0 0 12 38 96 69 0 95 85 101 0 +102 40 103 104 105 106 31
 255 85 186 0 54 107 96 0 +-1.22526246542573 -.085 0 0 1 0 0 0 1 .03 31 101 70 0
 108 96 109 0 +-.065262465425731 -4440892098500625e-31 0 0 1 0 0 0 1 .03 51 255
 102 84 0 110 40 111 112 +-1.22526246542573 0 0 -555111512312578e-30 -1 0 .027 1
 -555111512312578e-30 0 54 40 68 0 86 113 102 114 +-.702762465425731 -.0875 0 0
 0 1 .5225 .03 1 0 0 40 255 11 103 0 1 11 .002677905786018505 .387013601106144 ?
?-1.23361740860367 199999999990084e-21 .02567479161538405 -1.24051686253272 -.01
52054123010329 .02227786724312535 -1.245344869620624 -.0224775857881617 .0180470
78482485 -1.249169785486696 -.02696858923136915 .01254751160599498 -1.2517388549
33022 -.0295203567685941 .00529157808769149 -1.252204073701452 -.029949037906409
35 -.00177475167773618 -1.250958649306568 -.0287794535175287 -.00828891633220029
 -1.2483613188222 -.026094393292574 -.0139800919799703 -1.2448025416585 -.021760
5901480625 -.018632912301023 -1.239237155607026 -.01288466407212196 -.0231021218
5789 -1.23361740860367 199999999854566e-21 -.02567479161538405 41 3 CI8 term_use
0 0 1 cCZ1 104 L?-1.23361740860367 199999999990084e-21 .02567479161538405 41 1 1
05 L?-1.23361740860367 199999999854566e-21 -.02567479161538405 204 2 17 INTERSEC
TION_DATA17 Intersection data7 uv_type0 0 1 u6 values0 1 1 fT44 106 4 1.88540285
9445325 -199999999985446e-21 2.97823267125745 1.0271463488803 2.17120251770413 .
0152054123010329 3.00795597688699 .83693757237906 2.40952319408259 .022477585788
1617 3.022322660456415 .645464158577148 2.658271294117575 .0269685892313692 3.03
1261780085655 .43151828102264 2.944331462847115 .0295203567685941 3.036368638718
1 .1773136034062975 3.207371623154295 .02994903790640935 3.03722876049464 -.0591
929499648378 3.453628598131135 .0287794535175287 3.034883598184105 -.27993919499
5834 3.685848013115545 .026094393292574 3.02951711129958 -.484767958954105 3.903
230738207925 .0217605901480625 3.020900654374 -.670141736197091 4.16836746002014
 .01288466407212198 3.00339468587665 -.878952011328346 ????14 255 86 60 115 ?75
 110 70 24 40 -0 0 75 116 46 51 113 67 0 116 117 40 0 +-.065262465425731 -.4 0 0
 1 0 .027 0 0 1 141 255 114 96 118 119 40 141 118 26 120 114 40 141 119 90 114 1
21 40 38 90 76 0 61 88 122 0 +111 40 123 124 125 126 141 121 88 119 120 40 141 1
20 89 121 118 40 38 89 74 0 87 127 88 0 +25 40 128 129 130 131 31 127 73 0 132 1
33 89 0 --.065262465425731 -4271459744933625e-31 0 0 -1 0 0 0 -1 .027 40 14 128
 0 1 14 .0325119084838421 .3856672325535215 ??-1.221599204660144 -20000000044408
9e-21 -.02977550202034495 -1.21333674116847 .0595097683493182 -.0286750248497417
5 -1.15059964667175 .228300095976825 -.01582724526166225 -1.128451323434368 .263
8565168938795 -.00565433770860946 -1.125928965080952 .267551634948403 -.00259980
7563273535 -1.125480244248154 .2682023225927075 -.001505866547769055 -1.12527491
9016872 .2684994021816905 -.000460296351709393 -1.1252963465512 .26846841860616
 .000653014290185674 -1.125558282006294 .2680893031214135 .00174610008252395 -1.
126282002311978 .2670382970040955 .00320801443185624 -1.129038512643934 .2629870
359843555 .00615079818578159 -1.14211175276083 .2426445342724645 .01293873595994
978 -1.186187376981468 .1535693852370325 .0242234137053183 -1.221599204660144 -2
00000000550784e-21 .02977550202034495 41 1 129 L?-1.221599204660144 -20000000044
4089e-21 -.02977550202034495 41 1 130 L?-1.221599204660144 -200000000550784e-21
 .02977550202034495 204 56 131 4 3.14159300060914 -1.69321052425448 2.9745186475
7284 -1.448382129335312 3.03721633222926 -1.86910766093318 2.861245493270335 -1.
272484992656612 2.71726133097927 -2.585849404819695 2.52740717448699 -.555743248
770095 2.641769209047615 -2.951980591992545 2.451564522471195 -.1896120615972475
 2.63367627945212 -3.05482356352142 2.443498699580225 -.0867690900683735 2.63224
586179312 -3.091375999332085 2.442074365120635 -.0502166542577106 2.631592252689
45 -3.12624883980085 2.441423664716995 -.0153438137889433 2.631660435774735 3.11
982379130739 2.44149154059156 .02176886228240385 2.63249442954436 3.083356405430
305 2.44232184793853 .0582362481594866 2.63480362971669 3.034453988148255 2.4446
21528826605 .1071386654415368 2.643666170984765 2.93510176273443 2.4534569302382
65 .2064908908553655 2.68729510431422 2.6956692188831 2.49717071866214 .44592343
47066955 2.8649697822452 2.20178079339266 2.67900980172402 .93981186019714 ????1
6 132 13 0 ?134 100 135 127 0 0 12 31 133 72 0 136 109 127 0 +-.065262465425731
 -.4 0 0 1 0 0 0 1 .027 16 136 9 0 ?137 138 83 133 0 0 12 31 109 71 0 138 101 13
3 0 +-.065262465425731 -.4 0 0 1 0 0 0 1 .03 16 138 10 0 ?139 108 136 109 0 0 12
 17 139 0 140 139 139 0 141 138 0 0 +16 108 11 0 ?142 135 138 101 0 0 12 17 142
 0 143 142 142 0 144 108 0 0 +16 135 12 0 ?81 132 108 122 0 0 12 17 81 0 77 72 7
8 67 82 135 0 0 +31 122 88 0 135 90 39 0 +-1.22526246542573 1110223024625156e-31
 0 -888178419700125e-30 -1 0 0 0 1 .03 31 39 89 0 100 122 26 0 +-1.2252624654257
3 1110223024625156e-31 0 -555111512312578e-30 -1 0 1 -555111512312578e-30 0 .027
 16 100 14 0 ?99 61 132 39 0 0 12 17 99 0 145 60 60 50 98 100 0 0 +15 145 54 0 9
9 146 147 17 60 0 145 99 99 56 55 61 0 98 +17 98 0 97 62 62 56 99 100 0 0 -15 97
 59 0 98 110 0 14 110 56 148 ?86 146 97 24 102 -0 0 146 34 46 81 1 148 272 149 1
10 150 0 151 115 152 14 146 51 151 ?110 116 145 24 111 -0 0 116 110 46 14 34 27
 153 ?154 0 155 24 156 -0 0 110 154 46 13 46 7 0 0 0 0 0 0 28 79 14 79 42 157 ?1
16 36 77 24 37 +0 0 36 0 46 81 1 157 269 149 79 158 0 159 160 161 14 116 46 160
 ?146 79 162 24 113 -0 0 86 146 46 14 36 37 159 ?79 154 163 24 25 +0 0 154 79 46
 51 37 86 0 79 111 25 164 +-1.22526246542573 0 0 -555111512312578e-30 -1 0 .03 1
 -555111512312578e-30 0 54 111 85 0 146 102 37 165 +-.645262465425731 -427145974
4933625e-31 0 0 0 1 .58 .027 1 0 0 141 164 88 164 164 37 141 165 90 165 165 111
 81 1 159 268 149 36 166 0 167 157 168 14 154 32 167 ?36 34 169 24 117 +0 0 34 3
6 46 15 163 40 0 74 36 143 17 74 0 163 82 82 67 71 87 0 81 -15 143 41 0 142 36 0
 17 82 0 163 74 74 63 81 135 0 0 -81 1 167 267 149 154 170 0 153 159 171 15 169
 35 0 144 154 140 51 117 66 0 154 156 113 0 +-.065262465425731 -.4 0 0 1 0 .03 0
 0 1 50 255 156 65 0 34 41 117 0 +-.065262465425731 -.4 0 0 1 0 0 0 1 50 41 181
 0 75 172 156 173 +-1.22526246542573 -.085 0 0 1 0 0 0 1 14 75 158 174 ?175 86 1
76 24 41 +0 0 175 86 46 50 172 182 0 175 177 41 0 +-1.22526246542573 -.4 0 0 1 0
 0 0 1 141 173 26 173 173 41 14 175 166 178 ?179 75 180 24 172 -0 0 179 75 46 51
 177 183 0 179 0 172 0 +-1.22526246542573 -.4 0 0 1 0 .027 0 0 1 14 179 173 181
 ?0 175 182 24 177 -0 0 0 175 46 81 1 181 276 149 179 183 0 178 0 184 15 182 176
 0 185 179 186 17 185 0 182 185 185 0 187 84 0 0 -15 186 177 0 188 179 0 17 188
 0 186 188 188 0 189 190 0 0 +17 189 0 176 189 189 0 188 190 0 0 -16 190 146 0 ?
188 84 0 191 0 0 12 16 84 139 0 ?187 54 190 192 0 0 12 31 191 188 0 190 192 107
 0 +-1.22526246542573 -.085 0 0 1 0 0 0 1 .027 31 192 189 0 84 0 191 0 +-1.22526
246542573 -.4 0 0 1 0 0 0 1 .027 31 107 187 0 83 191 85 0 +-1.22526246542573 -.4
 0 0 1 0 0 0 1 .03 16 83 130 0 ?193 136 54 107 0 0 12 17 193 0 80 193 193 0 194
 83 0 0 +15 80 156 0 193 79 0 17 194 0 195 194 194 0 193 83 0 0 -15 195 169 0 19
4 175 0 17 187 0 180 187 187 0 185 84 0 0 +15 180 168 0 187 175 195 15 176 160 0
 189 75 51 80 7 CCCCCDI12 legal_owners0 16 1 lCZ1 149 0 196 8001 0 0 0 0 3 5 0 0
 0 FFFFTFTFFFFFFFFF2 81 1 183 263 197 179 0 181 198 0 199 81 1 178 275 149 175 1
98 0 174 181 200 83 255 3 184 .792156862745098 .819607843137255 .933333333333333
 81 1 198 260 197 175 0 178 201 183 202 81 1 174 274 149 75 201 0 115 178 203 83
 3 200 .792156862745098 .819607843137255 .933333333333333 81 1 201 257 197 75 0
 174 170 198 204 81 1 115 273 149 86 205 0 148 174 206 83 3 203 .792156862745098
 .819607843137255 .933333333333333 81 1 205 232 197 86 0 115 0 150 207 83 3 206
 .792156862745098 .819607843137255 .933333333333333 80 1 197 208 209 9000 1 1 1
 1 1 1 1 1 0 FFFFTFTFFFFFFFFF1 81 1 150 235 197 110 0 148 205 210 211 82 255 1 2
07 1433403592 81 1 210 238 197 146 0 151 150 212 213 82 1 211 1419247814 81 1 15
1 271 149 146 210 0 160 148 214 81 1 212 241 197 34 0 153 210 158 215 82 1 213 1
419116742 81 1 153 266 149 34 212 0 0 167 216 81 1 158 244 197 79 0 157 212 217
 218 82 1 215 1420230854 81 1 217 248 197 116 0 160 158 166 219 82 1 218 1419575
496 81 1 160 270 149 116 217 0 157 151 220 81 1 166 251 197 36 0 159 217 170 221
 82 1 219 1419313350 81 1 170 254 197 154 0 167 166 201 222 82 1 221 1419706566
 82 1 222 1420165318 83 3 220 .792156862745098 .819607843137255 .933333333333333
 83 3 216 .792156862745098 .819607843137255 .933333333333333 83 3 214 .792156862
745098 .819607843137255 .933333333333333 79 255 14 209 SWEntUnchanged82 1 204 14
67482312 82 1 202 1452081352 82 1 199 1458045128 79 15 196 SDL/TYSA_COLOUR17 144
 0 169 144 144 0 142 108 0 0 -15 140 36 0 139 154 0 83 3 171 .792156862745098 .8
19607843137255 .933333333333333 83 3 168 .792156862745098 .819607843137255 .9333
33333333333 15 162 49 0 134 116 223 17 134 0 162 134 134 0 224 132 0 0 +15 223 5
0 0 225 116 0 17 225 0 223 225 225 0 137 136 0 0 -17 137 0 155 137 137 0 225 136
 0 0 +15 155 30 0 137 34 226 15 226 31 0 141 34 0 17 141 0 226 141 141 0 139 138
 0 0 -17 224 0 147 224 224 0 134 132 0 0 -15 147 55 0 224 146 0 83 3 161 .792156
862745098 .819607843137255 .933333333333333 83 3 152 .792156862745098 .819607843
137255 .933333333333333 40 17 123 0 1 17 .01850363410251945 .395397651785902 ??-
1.233617553723168 -200000000399218e-21 -.02567474439096655 -1.219982208954876 .0
527111927575479 -.0268472367089951 -1.190025198265342 .150485830402416 -.0225598
6541477395 -1.163026982718548 .209334495544951 -.0163074400714308 -1.14728333380
758 .2372233040503465 -.0107850131438613 -1.139069852592626 .2504493668475365 -.
00605715222827285 -1.13722770748184 .253307906517143 -.00432480366416001 -1.1359
34019861306 .2552930866005 -.002459187246738925 -1.13554314417511 .2558893336058
245 -.001489798884343322 -1.135328324954174 .2562163253062315 -.0003388688610534
465 -1.135373270007466 .2561479519812445 .000745133218338804 -1.13564972388587 .
255726917914079 .001806514039088375 -1.136404675369154 .2545729608463505 .003264
126182234305 -1.13936351463186 .2499901729025845 .00628904523658571 -1.153719537
727544 .226259578808858 .01334185822815478 -1.200217359545986 .1226370697194832
 .02435436850587145 -1.233617553723168 -2000000004480015e-22 .02567474439096685
 41 1 124 L?-1.233617553723168 -200000000399218e-21 -.02567474439096655 41 1 125
 L?-1.233617553723168 -2000000004480015e-22 .02567474439096685 204 68 126 4 3.14
1592993520565 -1.256184141920826 2.978233448696125 -1.02714330566486 3.050132190
196035 -1.67722229201067 2.876868595507965 -1.108224752162948 2.87207301301974 -
2.152458524054895 2.68725691303623 -.851084194933068 2.75738106505551 -2.4931081
3391409 2.56879582535408 -.574698007031758 2.700156034860835 -2.73068135719422 2
.51068760718947 -.367732485255203 2.672217337320515 -2.915327988548135 2.4825530
7121201 -.2033026663091185 2.66610424948346 -2.980721762545895 2.476417501432525
 -.1446641764052274 2.661842574362825 -3.05038524112204 2.47214445960481 -.08206
49905501075 2.660559941640955 -3.08638687984006 2.470859097503525 -.049680396666
9817 2.659856002784565 -3.129041625511155 2.47015379660778 -.0112958689194299 2.
660003225653885 3.11399162262945 2.47030129637239 .0248403284531311 2.6609094481
76525 3.074634704588305 2.471209316071985 .060253586406183 2.66339005978302 3.02
0402655825745 2.47369566381566 .1090200349805908 2.67319678977392 2.906505645387
98 2.48353680330676 .2112014877054985 2.722910770577815 2.62474397575546 2.53371
547924697 .460871231572614 2.924102393454715 2.01718125116934 2.741905609956 .94
7249111082495 ????141 112 96 112 112 102 17 59 0 58 55 55 56 62 95 0 60 -15 58 6
4 0 59 86 0 40 32 91 0 1 32 .01119983768525308 .371311280889107 ??-1.22526196542
571 -.086477747584987 .02999999999583335 -1.225260942687688 -.0857160374008352 .
0299999999613545 -1.2252512996031 -.0826692061425029 .02999999792207335 -1.22522
7827903206 -.0789916263551763 .0299999800040272 -1.225198002211176 -.07589275577
842 .0299999307414862 -1.225193582481954 -.075501443733026 .0299999209188967 -1.
225174438471296 -.0739362123737533 .0299998708539769 -1.22507442371028 -.0676755
911741671 .02999941066609895 -1.225022041958608 -.0650838217733767 .029999036593
8051 -1.22474827810698 -.0547181224425391 .0299955931996891 -1.224605882171748 -
.0504559856275753 .029992814113227 -1.223862781877986 -.0334136004638233 .029967
33031095985 -1.2234952104216 -.0267253098845191 .0299479015917706 -1.22159895726
3722 275457720426366e-20 .0297754715822755 -1.207291874815104 .1063002434885242
 .02402202891317125 -1.200104639091374 .1418029808764066 .01634269788408105 -1.1
96394611420466 .15812942590619 .00816376170222354 -1.195778144821026 .1607382526
20003 .00553848702074873 -1.195346139467452 .1625502374579965 .00223907149463477
 -1.195262913042004 .1628978124544755 -.000163880371300003 -1.195371090246612 .1
624459424042695 -.002550625394126815 -1.19575330677199 .160842790485885 -.005404
58652890466 -1.196738628084424 .156661463059447 -.00929465993604469 -1.200258587
210564 .1411003181749736 -.0165772758377575 -1.212937787392856 .0729947883537233
 -.02735145903578085 -1.22097616633789 .00714864020992475 -.02969221514352835 -1
.22385728685058 -.0333075353756358 -.0299670731499081 -1.224828025483658 -.05736
73021630523 -.02999685420067795 -1.22513476451166 -.0711630813673181 -.029999728
20671125 -1.225226435380336 -.0788222817012999 -.0299999783639227 -1.22525261932
3066 -.0829636628690214 -.02999999838423765 -1.22526196542583 -.0864777475849865
 -.02999999999583335 41 2 92 TF-1.22526246542573 -.0875 .03 -1.22526196542571 -.
086477747584987 .02999999999583335 41 2 93 TF-1.22526246542573 -.0875 -.03 -1.22
526196542583 -.0864777475849865 -.02999999999583335 204 136 94 4 3.1415926535897
95 1.570796326794905 1.570796326794895 .0875 3.139636190261685 1.570779660128905
 1.57077966012756 .086477747584987 3.13817837442013 1.57074556885867 1.570745568
860105 .0857160374008352 3.13234718096474 1.57042413269881 1.570424132698565 .08
26692061425029 3.125309044709045 1.56964174245414 1.569641742454195 .07899162635
51763 3.119378745626835 1.568647551322855 1.56864755132283 .07589275577842 3.118
629918587725 1.5685002266515 1.5685002266515 .075501443733026 3.11563470910329 1
.56786209076988 1.567862090769895 .0739362123737533 3.10365575187246 1.564528228
56865 1.564528228568655 .0676755911741671 3.098697455546555 1.56278212543582 1.5
6278212543581 .0650838217733767 3.07887278668648 1.553655910223905 1.55365591022
3895 .0547181224425391 3.070724693153865 1.54890847070472 1.54890847070472 .0504
559856275753 3.03817029741636 1.52412326514631 1.52412326514631 .033413600463823
3 3.025408329579785 1.511853702517545 1.51185370251755 .0267253098845191 ???????
?????????????????????????????????????????????3.037967845428965 -1.52393989709483
5 4.75924541008475 .0333075353756358 3.08393839410089 -1.55631448920054 4.726870
81797905 .0573673021630523 3.110328370539905 -1.566539616804215 4.71664569037539
 .0711630813673181 3.124984962022825 -1.569595324993105 4.71358998218654 .078822
2817012999 3.13291072318457 -1.570468123366925 4.7127171838127 .0829636628690214
 3.139636190261685 -1.57077966012494 4.71240564704806 .0864777475849865 3.141592
653589795 -1.570796326794905 4.71238898038469 .0875 19 35 1 0 12 0 28 24 0 S0 40
 20 42 0 1 20 .00169118959533672 .337373264149779 ??-1.24647263738716 -.085 -.02
12104870449194 -1.23825574074199 -.085 -.0270374390900985 -1.228573291722614 -.0
85 -.0298160869383208 -1.21851683962105 -.085 -.029233170200337 -1.2092201945810
04 -.085 -.0253543581728907 -1.201731564361956 -.085 -.0186169653279082 -1.19689
5275549212 -.085 -.00978065930238474 -1.195256537640204 -.085 .00015825765035165
15 -1.197000016414072 -.085 .01007925261146722 -1.201929106287716 -.085 .0188638
93135813 -1.20948814009864 -.085 .02552185697015475 -1.218824983104476 -.085 .02
930250412802135 -1.228887013964526 -.085 .02977951570618245 -1.23853976741637 -.
085 .02689903966753295 -1.246694887627814 -.085 .0209858280700266 -1.25243290791
373 -.085 .01270661576261354 -1.255106944216782 -.085 .0029948878319581 -1.25441
559249753 -.085 -.00705442122099387 -1.25043684631377 -.085 -.01630837909075615
 -1.24647263738716 -.085 -.0212104870449194 41 1 43 H?-1.24647263738716 -.085 -.
0212104870449194 204 80 44 4 3.136994648051455 -.785270119710154 -.0212104870449
194 -.02121017196143015 3.13692409480046 -1.122641070470964 -.0270374390900985 -
.01299327531625782 3.136838127747015 -1.460010864249736 -.0298160869383208 -.003
31082629688395 3.136745422920805 -1.79738245077636 -.029233170200337 .0067456258
046823 3.136656447563225 -2.134755772274665 -.0253543581728907 .016042270844727
 3.136582365204925 -2.472128983257095 -.0186169653279082 .023530901063775 3.1365
33328205805 -2.809500084185565 -.00978065930238474 .0283671898765181 3.136516493
960315 3.136317374110855 .0001582576503516515 .03000592778552625 3.1365344003806
65 2.798952348221715 .01007925261146722 .02826244901165875 3.136584347960545 2.4
61588263199105 .018863893135813 .02333335913801425 3.136659057679265 2.124222764
778285 .02552185697015475 .0157743253270919 3.13674831718093 1.786854272093515 .
02930250412802135 .00643748232125518 3.136840962775435 1.449482711620612 .029779
51570618245 -.003624548538795125 3.136926569664495 1.112109387199 .0268990396675
3295 -.01327730199063804 3.13699652676543 .774736221831607 .0209858280700266 -.0
2143242220208255 3.137044505156315 .4373648788541375 .01270661576261354 -.027170
4424879997 3.137066523566905 .099996158561319 .0029948878319581 -.02984447879105
19 3.137060851334115 -.2373701909719235 -.00705442122099387 -.0291531270717984 3
.13702792914167 -.574735298721536 -.01630837909075615 -.02517438088804005 3.1369
94648051455 -.785270119710153 -.0212104870449194 -.02121017196143015 141 38 89 3
8 38 25 74 4 CI16 index_map_offset0 0 1 dCCZ20 33 4 0 0 183 31 181 21 0 0 0 0 0
 0 0 0 0 0 0 0 0 0 0 0 81 2 31 209 227 12 0 21 0 0 228 0 80 2 227 229 230 9000 0
 0 0 0 3 5 0 0 0 FFTFTTTFFTFFFFFF3 3 84 255 13 228 Boss-Extrude179 21 230 SWIMPL
ICITBODYNAME_ID80 1 5 231 232 8017 0 0 0 0 0 0 0 0 0 TTTTTTTTTTTTTFTF3 84 10 32
 Calandra_179 13 232 SDL/TYSA_NAME81 1 10 140 5 7 233 0 0 0 234 70 11 0 4 T7 0 0
 4 20 1 235 235 13 13 9 0 7 0 236 0 0 237 0 54 14 83 0 238 239 0 240 --.70276246
542573 -.0875 0 0 0 -1 .5225 .03 -1 0 0 31 15 75 0 241 242 0 0 +-1.2252624654257
3 1110223024625156e-31 0 -888178419700125e-30 -1 0 0 0 1 .03 29 16 81 0 243 244
 0 -1.221599187913768 1077686584310182e-31 -.0297754999600402 19 17 7 0 7 237 0
 245 0 V0 16 18 21 0 ?246 0 247 248 0 0 7 18 19 27 0 249 0 250 251 ?7 17 249 0 2
52 253 254 19 255 256 0 257 -18 250 26 0 246 19 258 244 ?7 29 251 78 0 19 259 26
0 -1.22526246542573 -.0875 -.03 29 259 77 0 258 261 251 -1.210102441117174 -3130
981683511475e-30 .02588771258655355 29 260 79 0 262 251 244 -1.221599187913768 1
077686584310182e-31 .0297754999600402 18 262 24 0 263 258 264 260 ?7 29 244 80 0
 250 260 16 -1.21010244111718 975574960295325e-31 -.0258877125865561 17 263 0 25
2 265 253 262 266 267 0 268 -18 258 25 0 265 250 262 259 ?7 18 264 23 0 253 262
 243 261 ?7 17 253 0 252 263 249 264 257 269 0 266 -18 243 22 0 270 264 0 16 ?7
 29 261 76 0 264 0 259 -1.22526246542573 -.0875 .03 17 270 0 271 272 268 243 273
 274 0 254 -15 271 56 0 272 275 0 17 272 0 271 276 270 250 254 241 0 277 +17 268
 0 271 270 276 262 265 247 0 273 +17 273 0 278 266 255 262 270 274 0 0 +16 274 1
4 0 ?273 267 256 279 0 0 7 17 254 0 252 249 246 243 272 241 0 255 -15 252 60 0 2
53 280 0 17 246 0 252 254 265 250 281 18 0 272 +16 241 18 0 ?272 282 283 15 247
 247 7 17 255 0 278 273 257 243 249 256 0 0 +15 278 37 0 257 238 0 17 257 0 278
 255 266 19 253 269 0 0 +16 256 13 0 ?255 274 269 242 267 267 7 16 269 12 0 ?257
 256 284 285 0 0 7 38 242 74 0 267 285 15 0 +14 286 287 288 289 290 16 267 15 0
 ?266 291 274 242 256 256 7 17 266 0 278 257 273 264 263 267 0 0 +16 291 16 0 ?2
92 283 267 293 0 0 7 17 292 0 294 292 292 0 295 291 0 0 +16 283 17 0 ?296 241 29
1 297 0 0 7 31 293 68 0 291 248 298 0 +-.18026246542573 -.4875 0 -43824593077308
8e-30 1 0 -1 -438245930773088e-30 0 .03 38 248 67 0 18 299 293 0 +239 286 300 30
1 302 303 31 298 69 0 284 293 304 0 +-.18026246542573 -.0875 0 -438245930773088e
-30 1 0 -1 -438245930773088e-30 0 .03 16 284 11 0 ?305 269 306 298 0 0 7 31 304
 70 0 306 298 297 0 +-.18026246542573 -.4875 0 -438245930773088e-30 1 0 -1 -4382
45930773088e-30 0 .027 16 306 10 0 ?307 284 0 304 0 0 7 31 297 71 0 283 304 279
 0 +-.18026246542573 -.0875 0 -1224646799147352e-31 1 0 -1 -1224646799147352e-31
 0 .027 38 279 72 0 274 297 285 0 +14 308 309 310 311 312 31 285 73 0 269 279 24
2 0 --1.22526246542573 -.0875 0 -555111512312578e-30 -1 0 1 -555111512312578e-30
 0 .03 54 308 65 0 275 286 239 313 +-.645262465425731 -4271459744933625e-31 0 0
 0 1 .58 .03 1 0 0 40 14 309 0 1 14 .03251190848384155 .3856672325534505 ??-1.22
1599204660144 -200000000444089e-21 -.0297755020203449 -1.21333674116847 .0595097
683493182 -.0286750248497416 -1.15059964667175 .2283000959768235 -.0158272452616
6165 -1.128451323434368 .263856516893878 -.00565433770860798 -1.125928965080954
 .2675516349484005 -.00259980756327091 -1.125480244248156 .268202322592704 -.001
50586654776695 -1.125274919016874 .2684994021816865 -.000460296351707386 -1.1252
96346551202 .268468418606156 .000653014290187511 -1.125558282006296 .26808930312
14085 .001746100082526045 -1.126282002311982 .2670382970040885 .0032080144318594
7 -1.129038512643944 .2629870359843395 .00615079818578787 -1.142111752760874 .24
26445342723885 .0129387359599663 -1.186187376981602 .1535693852366845 .024223413
70534315 -1.221599204660144 -2000000003489205e-22 .0297755020203449 41 1 310 L?-
1.221599204660144 -200000000444089e-21 -.0297755020203449 41 1 311 L?-1.22159920
4660144 -2000000003489205e-22 .0297755020203449 204 56 312 4 .1670740060169545 1
.44838212933529 3.14159300060914 -1.693210524254495 .2803471603194585 1.27248499
2656592 3.03721633222926 -1.8691076609332 .6141854791028 .555743248770073 2.7172
6133097927 -2.58584940481972 .690028131118596 .189612061597198 2.641769209047615
 -2.951980591992595 .698093954009561 .086769090068286 2.633676279452125 -3.05482
3563521505 .699518288469152 .0502166542576403 2.63224586179313 -3.09137599933215
5 .700168988872791 .01534381378887645 2.631592252689455 -3.126248839800915 .7001
01112998223 -.021768862282465 2.63166043577474 3.11982379130733 .69927080565125
 -.0582362481595569 2.632494429544375 3.083356405430235 .696971124763171 -.10713
86654416446 2.634803629716705 3.03445398814815 .688135723351495 -.20649089085557
85 2.6436661709848 2.935101762734215 .644421934927491 -.4459234347073055 2.68729
510431438 2.69566921888249 .462582851865083 -.939811860198543 2.86496978224586 2
.201780793391245 ????14 275 53 314 ?280 315 271 13 308 -0 0 280 316 245 51 286 6
4 0 280 317 308 318 +-1.22526246542573 0 0 -555111512312578e-30 -1 0 .03 1 -5551
11512312578e-30 0 54 239 82 0 316 308 14 319 --.70276246542573 -.0875 0 0 0 -1 .
5225 .027 -1 0 0 141 313 299 320 320 308 38 299 66 0 282 0 248 0 +239 308 321 32
2 323 324 141 320 279 313 313 308 16 282 19 0 ?276 247 241 299 0 0 7 40 16 321 0
 1 16 .02364774339472535 .3736743161430745 ??-1.210102406820816 -200000000434629
5e-22 -.02588769250235795 -1.210631273295734 .0409787159111071 -.026965330201780
15 -1.175737231276952 .1732981282081575 -.02046517326544605 -1.144133344177288 .
236156417089503 -.01062318756455142 -1.135353086564562 .250567947284454 -.005060
75534286635 -1.133401504963194 .253638661256926 -.002472661062319395 -1.13297426
5664938 .2543048705655145 -.00135678232428105 -1.132805139526568 .25456800481719
85 -.000385747945368664 -1.13283113705326 .2545275783681615 .000639465873553359
 -1.133073051333114 .2541510206978185 .00168197927794644 -1.13373977822088 .2531
09657062793 .00308158833195808 -1.13628762753821 .249081195447944 .0059105479454
7241 -1.148421389038048 .2287298512312425 .01245601720913812 -1.188460179527276
 .140021145100853 .0231788620853795 -1.209662373102968 .0502355885262237 .026856
5464158161 -1.210102406820816 -2000000004090625e-22 .02588769250235795 41 1 322
 L?-1.210102406820816 -2000000004346295e-22 -.02588769250235795 41 1 323 L?-1.21
0102406820816 -2000000004090625e-22 .02588769250235795 204 64 324 4 .17078765202
2267 1.85883307025224 3.1415930076724 -2.10056679568978 .247777815391628 1.52011
4150452865 3.069237795254855 -2.02446719009713 .503917175858248 .860194396601764
 2.82583752051331 -2.39086302154553 .632725908483967 .404382773807832 2.69946541
400285 -2.77963442975158 .663355890036637 .188550602958704 2.66897085471521 -2.9
72090310809565 .669947331689307 .0917085370628257 2.66238566735526 -3.0590770108
70925 .671380547734423 .0502723701739382 2.660952732873565 -3.09635114435032 .67
1946942633534 .01428744702009924 2.660386342941715 -3.12873403439766 .6718599133
48609 -.02368613596472175 2.660473375380105 3.120275510016465 .671049469357892 -
.0623358913904774 2.661283780453415 3.085497263126045 .668810094169576 -.1143821
53643839 2.66352240718887 3.03869154152454 .660172994207404 -.220696398025843 2.
672147817636735 2.94327701355542 .617125394072617 -.479498140646112 2.7149301602
27465 2.713429385673805 .438083907164473 -1.032291361205412 2.88931267664461 2.2
58621203712975 .265315640972792 -1.46766721142149 3.05281950697747 2.03267201427
5325 ????17 276 0 271 268 272 258 277 282 0 281 +16 247 20 0 ?268 18 282 15 241
 241 7 17 277 0 325 281 281 250 276 282 0 0 -17 281 0 325 277 277 258 246 18 0 0
 -15 325 46 0 277 316 326 14 316 43 327 ?315 328 325 13 239 +0 0 275 315 245 15
 326 47 0 329 316 0 17 329 0 326 329 329 0 296 283 0 0 -17 296 0 330 296 296 0 3
29 283 0 0 +15 330 52 0 296 315 0 14 315 48 331 ?275 316 332 13 317 +0 0 316 236
 245 81 1 331 137 149 315 333 0 327 314 334 15 332 51 0 335 315 330 51 317 63 0
 315 336 286 0 --.18026246542573 -.0875 0 1387778780781446e-31 -1 0 .027 1 13877
78780781446e-31 0 14 236 28 337 ?238 0 338 13 339 -0 0 315 238 245 13 245 8 0 0
 0 0 0 0 17 328 14 328 38 340 ?316 238 294 13 336 -0 0 238 0 245 81 1 340 135 14
9 328 341 0 342 327 343 14 238 33 342 ?328 236 344 13 14 -0 0 236 328 245 15 294
 41 0 292 328 345 51 336 62 0 328 339 317 0 --.18026246542573 -.0875 0 138777878
0781446e-31 -1 0 .03 1 1387778780781446e-31 0 50 339 61 0 236 0 336 0 +-.1802624
6542573 -.4875 0 -438245930773088e-30 1 0 -1 -438245930773088e-30 0 15 345 42 0
 346 328 0 17 346 0 345 346 346 0 305 284 0 0 -17 305 0 344 305 305 0 346 284 0
 0 +15 344 36 0 305 238 278 81 1 342 134 149 238 347 0 337 340 348 81 1 347 127
 197 238 0 342 341 349 350 81 1 337 133 149 236 351 0 0 342 352 83 3 348 .792156
862745098 .819607843137255 .929411764705882 81 1 351 121 197 236 0 337 333 341 3
53 83 3 352 .792156862745098 .819607843137255 .929411764705882 81 1 333 118 197
 315 0 331 354 351 355 81 1 341 124 197 328 0 340 351 347 356 82 1 353 -13434878
75 82 1 356 -1343225731 81 1 354 115 197 316 0 327 357 333 358 82 1 355 -1342177
155 81 1 327 136 149 316 354 0 340 331 359 81 1 357 112 197 275 0 314 0 354 360
 82 1 358 -1342373763 81 1 314 138 149 275 357 0 331 361 362 82 1 360 -132795584
3 81 1 361 139 149 280 349 0 314 0 363 83 3 362 .792156862745098 .81960784313725
5 .929411764705882 14 280 57 361 ?0 275 252 13 286 -0 0 0 275 245 81 1 349 130 1
97 280 0 361 347 0 364 83 3 363 .792156862745098 .819607843137255 .9294117647058
82 82 1 364 -1328938883 83 3 359 .792156862745098 .819607843137255 .929411764705
882 82 1 350 -1343553411 83 3 343 .792156862745098 .819607843137255 .92941176470
5882 15 338 31 0 307 236 365 17 307 0 338 307 307 0 335 306 0 0 +15 365 32 0 295
 236 0 17 295 0 365 295 295 0 292 291 0 0 -17 335 0 332 335 335 0 307 306 0 0 -8
3 3 334 .792156862745098 .819607843137255 .929411764705882 141 319 299 366 366 2
39 141 366 248 319 319 239 141 318 248 367 367 286 141 367 242 318 318 286 40 11
 300 0 1 11 .00299707447493584 .3994667725841535 ??-1.210102475413086 2000000001
110225e-22 .02588773267044725 -1.205543970906782 -.01670457402786055 .0226093116
63698 -1.201740122961324 -.02443276347759145 .01861986586920655 -1.1977813207995
56 -.030153522755297 .01203273410473718 -1.19561564005627 -.0326768109691676 .00
458974351274262 -1.195369393378186 -.03294298712764525 -.00253066069642225 -1.19
6689566926702 -.03146852812331915 -.00914272778574865 -1.199192329752102 -.02830
47416551655 -.0148441242907288 -1.202355893620538 -.0233686011972631 -.019372376
419366 -1.20666005976569 -.0137266411131445 -.02353615311938835 -1.2101024754130
86 2000000000251595e-22 -.02588773267044725 41 1 301 L?-1.210102475413086 200000
0001110225e-22 .02588773267044725 41 1 302 L?-1.210102475413086 2000000000251595
e-22 -.02588773267044725 204 44 303 4 .1707883950295935 -1.85882783309913 1.0410
28507505878 -200000000119438e-21 .1398878680867504 -2.149116758192625 .853588210
604842 .01670457402786055 .125726235991028 -2.3806220321935 .669586974368547 .02
443276347759145 .1153329464778428 -2.679684818145825 .41270768368152 .0301535227
55297 .1107809326595436 -2.97077262429771 .1535946551934615 .0326768109691676 .1
10302095247549 3.047726701070305 6.19872958590973 .03294298712764525 .1129578795
795426 2.796143269287645 5.97350140267334 .03146852812331915 .118681556762413 2.
559488963380495 5.76557587085998 .02830474165516545 .1276689848287554 2.34139264
6345455 5.58118557109339 .0233686011972631 .1453726644437118 2.082912728272345 5
.38123389072641 .0137266411131445 ????40 32 287 0 1 32 .0111998376603555 .371311
214957531 ??-1.22526196542571 -.0864777475849871 -.02999999999583335 -1.22526094
2687686 -.0857160374008398 -.0299999999613545 -1.225251299603098 -.0826692061425
253 -.02999999792207335 -1.225227827903204 -.0789916263552315 -.0299999800040272
 -1.225198002211176 -.0758927557785171 -.0299999307414862 -1.225193582481954 -.0
75501443733164 -.0299999209188967 -1.2251744384713 -.073936212374055 -.029999870
8539769 -1.225074423710296 -.0676755911751235 -.02999941066609905 -1.22502204195
8644 -.0650838217751636 -.0299990365938054 -1.224748278107138 -.0547181224476471
 -.02999559319969185 -1.22460588217207 -.0504559856367197 -.0299928141132341 -1.
223862781879292 -.0334136004891001 -.02996733031102095 -1.22349521042417 -.02672
53099286995 -.0299479015919222 -1.22159895727374 275445757031677e-20 -.029775471
583508 -1.207291874892398 .106300243071735 -.02402202897099505 -1.20010463888896
 .141802981798865 -.0163426975724865 -1.19639461110245 .158129427259144 -.008163
76057769216 -1.19577814468834 .160738253178558 -.00553848631440032 -1.1953461394
67602 .162550237457365 -.002239071496652835 -1.195262913041984 .162897812454554
 .000163880367855808 -1.195371090246232 .1624459424058545 .00255062538968097 -1.
195753306770966 .1608427904901875 .00540458652332151 -1.196738628081762 .1566614
630708395 .00929465992787559 -1.200258587201182 .1411003182178546 .0165772758236
084 -1.212937787360318 .0729947885655806 .02735145902111915 -1.22097616632603 .0
0714864034084354 .0296922151418166 -1.223857286846472 -.0333075352964437 .029967
07314971555 -1.224828025482326 -.0573673021169054 .0299968542006587 -1.225134764
511252 -.0711630813413514 .0299997282067095 -1.225226435380218 -.078822281687110
3 .02999997836392255 -1.225252619323034 -.0829636628614539 .02999999838423765 -1
.22526196542565 -.0864777475849874 .02999999999583335 41 2 288 TF-1.225262465425
73 -.0875 -.03 -1.22526196542571 -.0864777475849871 -.02999999999583335 41 2 289
 TF-1.22526246542573 -.0875 .03 -1.22526196542565 -.0864777475849874 .0299999999
9583335 204 136 290 4 557767548256658e-30 1.570796326794895 4.71238898038469 .08
75 .00195646332810762 1.570779660128895 4.71240564705202 .0864777475849871 .0034
14279169654255 1.57074556885867 4.71243973831949 .0857160374008398 .009245472625
01207 1.5704241326988 4.71276117448101 .0826692061425253 .016283608880643 1.5696
41742454155 4.71354356472538 .0789916263552315 .02221390796277125 1.568647551322
875 4.71453775585671 .0758927557785171 .0229627350018045 1.56850022665156 4.7146
8508052805 .075501443733164 .0259579444859246 1.56786209077001 4.71532321640957
 .073936212374055 .03793690171550235 1.564528228569245 4.71865707861033 .0676755
911751235 .0428951980398221 1.562782125437085 4.7204031817425 .0650838217751636
 .0627198668935476 1.55365591022924 4.72952939695035 .0547181224476471 .07086796
04184497 1.54890847071553 4.73427683646407 .0504559856367197 .1034223561251864 1
.52412326518996 4.75906204198963 .0334136004891001 .1161843239257372 1.511853702
60334 4.77133160457625 .0267253099286995 ???????????????????????????????????????
?????????????.1036248083119874 -1.52393989695779 1.523939896957785 .033307535296
4437 .0576542595771509 -1.55631448915617 1.556314489156175 .0573673021169054 .03
126428309957155 -1.566539616790665 1.566539616790675 .0711630813413514 .01660769
1594124 -1.56959532498917 1.569595324989115 .0788222816871103 .00868193041970703
 -1.570468123365795 1.570468123365815 .0829636628614539 .00195646332810734 -1.57
0779660130895 1.57077966012556 .0864777475849874 557767548256658e-30 -1.57079632
6794895 1.570796326794895 .0875 17 265 0 252 246 263 258 268 247 0 276 -19 237 1
 0 7 0 17 13 0 S0 141 240 279 368 368 14 141 368 242 240 240 14 74 20 235 4 0 0
 233 349 361 10 0 0 0 0 0 0 0 0 0 0 0 0 0 0 0 0 81 2 233 4 227 7 0 10 0 0 369 0
 84 8 369 Combine384 17 234 Calandra_1^Assem174 20 6 1 0 0 2 0 0 0 0 0 0 0 0 0 0
 0 0 0 0 0 0 0 0 0 1 0 
