**ABCDEFGHIJKLMNOPQRSTUVWXYZabcdefghijklmnopqrstuvwxyz**************************
**PARASOLID !"#$%&'()*+,-./:;<=>?@[\]^_`{|}~0123456789**************************
**PART1;
MC=AMD64;
MC_MODEL=Intel64 Family 6 Model 186 Stepping 2, GenuineIntel;
MC_ID=unknown;
OS=Windows_NT;
OS_RELEASE=unknown;
FRU=Parasolid Version 34.1, build 247, 10- 7-2022;
APPL=SOLIDWORKS 2023-2023010;
SITE=;
USER=unknown;
FORMAT=text;
GUISE=transmit;
KEY=Calandra_LinhaBaixaP_Junho2024;
FILE=Calandra_LinhaBaixaP_Junho2024.x_t;
DATE=Tue Jun 11 13:45:04 2024;
**PART2;
SCH=SCH_3401247_34101;
USFLD_SIZE=0;
**PART3;
**END_OF_HEADER*****************************************************************
T51 : TRANSMIT FILE created by modeller version 340124723 SCH_3401247_34101_1300
6231 0 10 21 CCCCI7 lattice222 0 CCCI4 mesh1006 0 I8 polyline1008 0 CCCCCCCCCCA1
6 mesh_offset_data206 0 Z1 7 2 3 0 0 0 0 0 0 0 0 1e3 1e-8 0 0 0 1 0 1 4 0 81 255
 2 2 7 5 1 0 0 0 0 0 0 70 11 CI9 list_type0 0 1 uI10 notransmit0 0 1 lCCCDCCDI12
 finger_index0 0 1 dI12 finger_block1012 0 CZ3 0 4 T1 0 0 1 20 1 6 6 11 255 4 5
 0 1 7 8 1 9 0 0 0 12 36 CCCI7 lattice222 0 CCCI4 mesh1006 0 I8 polyline1008 0 C
CCCCCCDI5 owner1040 0 CCCI16 boundary_lattice222 0 CCCI13 boundary_mesh1006 0 I1
7 boundary_polyline1008 0 CCCA16 index_map_offset0 0 1 dA9 index_map82 0 A17 nod
e_id_index_map82 0 A20 schema_embedding_map82 0 A5 child12 0 A14 lowest_node_id0
 0 1 dA16 mesh_offset_data206 0 Z7 267 10 11 0 0 0 0 0 0 0 1e3 1e-8 4 12 0 1 0 1
 1 13 0 14 15 0 0 0 16 17 0 0 0 0 0 0 0 0 100 10 CCCCCCCCCA9 precision229 0 Z8 6
 4 0 0 1 0 0 0 1 0 0 0 1 0 0 0 1 0 ?0 11 9 3 0 1 12 18 1 19 4 0 0 12 12 223 20 2
1 0 0 0 0 0 0 0 1e3 1e-8 9 22 7 1 0 1 1 23 0 24 25 0 0 0 26 27 0 0 0 0 0 0 0 0 1
00 18 4 9 0 0 1 0 0 0 1 0 0 0 1 0 0 0 1 0 ?0 11 19 1 0 1 22 28 1 0 9 0 0 12 22 2
40 29 30 0 0 0 0 0 0 0 1e3 1e-8 19 31 12 1 0 1 1 32 0 33 34 0 0 0 35 36 0 0 0 0
 0 0 0 0 100 28 2 19 0 0 1 0 0 0 1 0 0 0 1 0 0 0 1 0 ?0 81 1 29 240 37 22 38 0 0
 0 0 70 30 0 4 T22 0 0 5 20 1 39 39 13 255 32 59 0 22 0 40 0 0 41 0 50 255 33 55
 0 40 42 0 0 +.703331586522493 -.4 0 -876491861546176e-30 1 0 -1 -87649186154617
6e-30 0 31 255 34 29 0 36 43 0 0 +-.576668413477507 -.4 0 1154047617702464e-30 -
1 0 1 1154047617702464e-30 0 .03 19 9 CCCCCCI5 frame230 0 CA5 owner12 0 Z35 5 0
 22 41 0 44 0 V0 16 255 36 17 0 ?45 0 46 34 0 0 22 17 255 45 0 47 45 45 0 48 36
 0 0 +16 46 13 0 ?49 36 50 43 0 0 22 17 49 0 51 49 49 0 52 46 0 0 +16 50 9 0 ?53
 46 54 55 0 0 22 31 43 28 0 46 55 34 0 +-.576668413477507 -1110223024625156e-31
 0 876491861546176e-30 -1 0 1 876491861546176e-30 0 .03 31 55 27 0 50 56 43 0 +.
703331586522493 -555111512312578e-31 0 -876491861546176e-30 1 0 -1 -876491861546
176e-30 0 .03 31 56 26 0 54 57 55 0 +.703331586522493 -.4 0 -876491861546176e-30
 1 0 -1 -876491861546176e-30 0 .03 16 54 6 0 ?58 50 59 56 0 0 22 31 57 116 0 59
 60 56 0 +-.576668413477507 -.4 0 1154047617702464e-30 -1 0 1 1154047617702464e-
30 0 .027 16 59 81 0 ?61 54 62 57 0 0 22 31 60 117 0 63 64 57 0 +.70333158652249
3 -.4 0 -876491861546176e-30 1 0 -1 -876491861546176e-30 0 .027 16 63 83 0 ?65 6
6 0 60 0 0 22 31 64 118 0 62 67 60 0 +-.576668413477507 -93054219300819e-30 0 27
7555756156289e-30 -1 0 1 277555756156289e-30 0 .027 16 62 86 0 ?68 59 66 64 0 0
 22 31 67 119 0 66 0 64 0 -.703331586522493 -3365631420566105e-32 0 147997294026
2824e-31 -1 0 1 1479972940262824e-31 0 .027 16 66 85 0 ?69 62 63 67 0 0 22 17 69
 0 70 69 69 0 71 66 0 0 +15 255 70 95 0 69 72 73 17 71 0 74 71 71 0 69 66 0 0 -1
5 74 102 0 71 75 0 14 255 75 97 76 ?77 72 78 32 79 -0 0 72 77 44 81 1 76 225 80
 75 81 0 0 82 83 14 77 103 82 ?0 75 84 32 85 -0 0 75 40 44 14 72 91 86 ?75 87 70
 32 88 -0 0 0 75 44 15 78 101 0 68 75 74 54 255 79 112 0 75 88 85 0 +.0633315865
22493 -1283745823824816e-31 0 0 0 1 .64 .027 1 0 0 13 44 3 0 0 0 0 0 0 35 87 14
 87 16 89 ?72 90 91 32 92 +0 0 90 0 44 81 1 89 231 80 87 93 0 86 94 95 14 90 12
 94 ?87 96 97 32 98 +0 0 96 87 44 15 91 18 0 48 87 51 51 255 92 25 0 87 98 42 0
 +-.576668413477507 0 0 277555756156289e-30 -1 0 .03 1 277555756156289e-30 0 54
 98 24 0 90 99 92 0 +.063331586522493 -1283745823824816e-31 0 0 0 1 .64 .03 1 0
 0 50 42 42 0 100 92 33 0 +-.576668413477507 -.4 0 1154047617702464e-30 -1 0 1 1
154047617702464e-30 0 14 100 36 101 ?96 40 102 32 42 +0 0 40 96 44 81 1 101 235
 80 100 103 0 94 104 105 14 96 2 104 ?90 100 106 32 99 +0 0 100 90 44 14 40 49 1
07 ?100 0 108 32 33 -0 0 77 100 44 15 102 74 0 109 100 47 17 109 0 102 109 109 0
 61 59 0 0 -15 47 38 0 45 100 0 17 61 0 84 61 61 0 109 59 0 0 +15 84 107 0 61 77
 110 15 110 108 0 111 77 0 17 111 0 110 111 111 0 68 62 0 0 -17 68 0 78 68 68 0
 111 62 0 0 +81 1 107 239 80 40 112 0 104 0 113 15 108 77 0 65 40 114 17 65 0 10
8 65 65 0 115 63 0 0 +15 114 51 0 116 40 0 17 116 0 114 116 116 0 58 54 0 0 -17
 58 0 117 58 58 0 116 54 0 0 +15 117 7 0 58 96 0 17 115 0 73 115 115 0 65 63 0 0
 -15 73 96 0 115 72 0 80 7 CCCCCDI12 legal_owners0 16 1 lCZ1 80 118 119 9000 1 1
 1 1 1 1 1 1 0 FFFFTFTFFFFFFFFF1 81 1 112 190 120 40 0 107 0 103 121 81 1 104 23
7 80 96 122 0 101 107 123 82 255 1 113 1295974504 81 1 122 192 120 96 0 104 103
 124 125 82 1 123 1292828776 80 1 120 0 126 8001 0 0 0 0 3 5 0 0 0 FFFFTFTFFFFFF
FFF2 81 1 103 191 120 100 0 101 112 122 127 81 1 124 193 120 90 0 94 122 93 128
 83 255 3 125 .792156862745098 .819607843137255 .933333333333333 81 1 94 233 80
 90 124 0 89 101 129 81 1 93 194 120 87 0 89 124 130 131 83 3 128 .7921568627450
98 .819607843137255 .933333333333333 81 1 130 195 120 72 0 86 93 81 132 83 3 131
 .792156862745098 .819607843137255 .933333333333333 81 1 86 229 80 72 130 0 82 8
9 133 81 1 81 196 120 75 0 76 130 134 135 83 3 132 .792156862745098 .81960784313
7255 .933333333333333 81 1 134 197 120 77 0 82 81 0 136 83 3 135 .79215686274509
8 .819607843137255 .933333333333333 81 1 82 227 80 77 134 0 76 86 137 83 3 136 .
792156862745098 .819607843137255 .933333333333333 82 1 137 1301282920 82 1 133 1
301807208 82 1 129 1293549672 83 3 127 .792156862745098 .819607843137255 .933333
333333333 79 255 15 126 SDL/TYSA_COLOUR83 3 121 .792156862745098 .81960784313725
5 .933333333333333 79 14 119 SWEntUnchanged15 106 10 0 138 96 117 51 99 23 0 96
 85 98 0 +.703331586522493 -.4 0 0 1 0 .03 0 0 1 51 85 111 0 77 79 99 0 +-.57666
8413477507 0 0 277555756156289e-30 -1 0 .027 1 277555756156289e-30 0 17 138 0 10
6 138 138 0 53 50 0 0 -17 53 0 139 53 53 0 138 50 0 0 +15 139 11 0 53 90 0 82 1
 105 1296826472 17 48 0 91 48 48 0 45 36 0 0 -15 51 15 0 49 87 0 15 97 14 0 52 9
0 139 17 52 0 97 52 52 0 49 46 0 0 -82 1 95 1293942888 51 88 113 0 72 0 79 0 +.7
03331586522493 -.4 0 0 1 0 .027 0 0 1 82 1 83 1301413992 19 41 60 0 22 0 35 32 0
 S0 74 4 CI16 index_map_offset0 0 1 dCCZ20 39 5 0 0 140 107 38 134 29 0 0 0 0 0
 0 0 0 0 0 0 0 0 0 0 81 2 140 152 141 22 0 38 0 0 142 0 81 2 38 165 143 22 140 2
9 0 0 144 0 80 2 143 145 146 8004 0 0 0 0 3 5 0 0 0 FFTFFFFFFFFFFFFF2 3 83 1 144
 1 79 16 146 SDL/TYSA_DENSITY80 2 141 147 148 9000 0 0 0 0 3 5 0 0 0 FFTFTTTFFTF
FFFFF3 3 84 255 11 142 Sweep-Thin179 21 148 SWIMPLICITBODYNAME_ID80 1 37 149 150
 8017 0 0 0 0 0 0 0 0 0 TTTTTTTTTTTTTFTF3 79 13 150 SDL/TYSA_NAME81 1 20 223 37
 12 151 0 0 0 0 70 21 0 4 T12 0 0 5 20 1 152 152 13 23 59 0 12 0 153 0 0 154 0 5
0 24 55 0 153 155 0 0 +1.43896696117461 -.4 0 0 -1 0 0 0 1 31 25 29 0 27 156 0 0
 +2.59896696117461 -.4 0 0 1 0 0 0 1 .03 19 26 60 0 12 154 0 157 0 V0 16 27 17 0
 ?158 0 159 25 0 0 12 17 158 0 160 158 158 0 161 27 0 0 +16 159 13 0 ?162 27 163
 156 0 0 12 17 162 0 164 162 162 0 165 159 0 0 +16 163 9 0 ?166 159 167 168 0 0
 12 31 156 28 0 159 168 25 0 +2.59896696117461 -333066907387547e-30 0 0 1 0 0 0
 1 .03 31 168 27 0 163 169 156 0 +1.43896696117461 0 0 0 -1 0 0 0 1 .03 31 169 2
6 0 167 170 168 0 +1.43896696117461 -.4 0 0 -1 0 0 0 1 .03 16 167 6 0 ?171 163 1
72 169 0 0 12 31 170 116 0 172 173 169 0 +2.59896696117461 -.4 0 0 1 0 0 0 1 .02
7 16 172 85 0 ?174 167 175 170 0 0 12 31 173 117 0 176 177 170 0 +1.438966961174
61 -.4 0 0 -1 0 0 0 -1 .027 16 176 81 0 ?178 179 0 173 0 0 12 31 177 118 0 175 1
80 173 0 +2.59896696117461 -274296071593532e-30 0 3216245299353275e-31 1 0 -1 32
16245299353275e-31 0 .027 16 175 84 0 ?181 172 179 177 0 0 12 31 180 119 0 179 0
 177 0 -1.43896696117461 0 0 0 1 0 0 0 1 .027 16 179 83 0 ?182 175 176 180 0 0 1
2 17 182 0 183 182 182 0 184 179 0 0 +15 183 102 0 182 185 0 17 184 0 186 184 18
4 0 182 179 0 0 -15 186 95 0 184 187 188 14 187 91 189 ?185 190 186 23 191 +0 0
 0 185 157 15 188 96 0 178 187 0 17 178 0 188 178 178 0 192 176 0 0 +17 192 0 19
3 192 192 0 178 176 0 0 -15 193 78 0 192 153 194 14 153 49 195 ?196 0 193 23 24
 +0 0 197 196 157 15 194 51 0 171 153 0 17 171 0 194 171 171 0 198 167 0 0 +17 1
98 0 199 198 198 0 171 167 0 0 -15 199 7 0 198 200 0 14 200 2 201 ?202 196 203 2
3 204 -0 0 196 202 157 81 1 201 212 80 200 205 0 195 206 207 14 202 12 206 ?190
 200 164 23 208 -0 0 200 190 157 14 196 36 209 ?200 153 210 23 155 -0 0 153 200
 157 15 203 10 0 166 200 199 51 204 23 0 200 211 208 0 -1.43896696117461 -.4 0 0
 1 0 .03 0 0 1 13 157 3 0 0 0 0 0 0 26 190 14 190 16 212 ?187 202 160 23 213 -0
 0 202 0 157 81 1 212 218 80 190 214 0 209 215 216 15 160 18 0 158 190 217 51 21
3 25 0 190 208 155 0 -2.59896696117461 0 0 0 -1 0 .03 0 0 -1 54 208 24 0 202 204
 213 0 -2.01896696117461 -877538442310423e-31 0 0 0 -1 .58 .03 -1 0 0 50 155 42
 0 196 213 24 0 +2.59896696117461 -.4 0 0 1 0 0 0 1 15 217 15 0 165 190 0 17 165
 0 217 165 165 0 162 159 0 0 -81 1 214 177 120 190 0 212 218 219 220 81 1 209 21
6 80 196 221 0 206 212 222 81 1 215 220 80 185 223 0 212 224 225 82 1 216 179594
8652 14 185 97 215 ?197 187 226 23 227 +0 0 187 197 157 81 1 223 179 120 185 0 2
15 219 228 229 81 1 224 222 80 197 228 0 215 0 230 82 1 225 1803223148 14 197 10
3 224 ?0 185 231 23 211 +0 0 185 153 157 81 1 228 180 120 197 0 224 223 0 232 82
 1 230 1803550828 83 3 232 .792156862745098 .819607843137255 .933333333333333 15
 231 107 0 233 197 234 51 211 111 0 197 227 204 0 -2.59896696117461 0 0 0 -1 0 .
027 0 0 -1 54 227 112 0 185 191 211 0 -2.01896696117461 -877538442310423e-31 0 0
 0 -1 .58 .027 -1 0 0 51 191 113 0 187 0 227 0 -1.43896696117461 -.4 0 0 1 0 .02
7 0 0 1 17 233 0 231 233 233 0 174 172 0 0 -15 234 108 0 181 197 0 17 181 0 234
 181 181 0 235 175 0 0 +17 235 0 226 235 235 0 181 175 0 0 -15 226 101 0 235 185
 183 17 174 0 210 174 174 0 233 172 0 0 +15 210 73 0 174 196 236 15 236 38 0 161
 196 0 17 161 0 236 161 161 0 158 27 0 0 -81 1 219 178 120 187 0 189 214 223 237
 83 3 229 .792156862745098 .819607843137255 .933333333333333 81 1 189 208 80 187
 219 0 0 195 238 83 3 237 .792156862745098 .819607843137255 .933333333333333 81
 1 195 210 80 153 239 0 189 201 240 82 1 238 1803092076 81 1 239 173 120 153 0 1
95 0 221 241 82 1 240 1797980268 81 1 221 174 120 196 0 209 239 205 242 83 3 241
 .792156862745098 .819607843137255 .933333333333333 81 1 205 175 120 200 0 201 2
21 218 243 83 3 242 .792156862745098 .819607843137255 .933333333333333 81 1 218
 176 120 202 0 206 205 214 244 83 3 243 .792156862745098 .819607843137255 .93333
3333333333 81 1 206 214 80 202 218 0 201 209 245 83 3 244 .792156862745098 .8196
07843137255 .933333333333333 82 1 245 1795555436 82 1 222 1798832236 83 3 220 .7
92156862745098 .819607843137255 .933333333333333 17 166 0 203 166 166 0 246 163
 0 0 +17 246 0 247 246 246 0 166 163 0 0 -15 247 11 0 246 202 0 15 164 14 0 162
 202 247 82 1 207 1794834540 19 154 5 0 12 0 26 23 0 S0 74 20 152 5 0 0 248 224
 151 228 20 0 0 0 0 0 0 0 0 0 0 0 0 0 0 0 81 2 248 152 141 12 0 151 0 0 249 0 81
 2 151 164 143 12 248 20 0 0 250 0 83 1 250 1 84 11 249 Sweep-Thin281 1 10 267 3
7 7 251 0 0 0 0 70 11 0 4 T7 0 0 5 20 1 252 252 13 13 59 0 7 0 253 0 0 254 0 50
 14 55 0 253 255 0 0 +.703331586522493 -1.54 0 -876491861546176e-30 1 0 -1 -8764
91861546176e-30 0 31 15 29 0 17 256 0 0 +-.576668413477507 -1.54 0 1154047617702
464e-30 -1 0 1 1154047617702464e-30 0 .03 19 16 5 0 7 254 0 257 0 V0 16 17 17 0
 ?258 0 259 15 0 0 7 17 258 0 260 258 258 0 261 17 0 0 +16 259 13 0 ?262 17 263
 256 0 0 7 17 262 0 264 262 262 0 265 259 0 0 +16 263 9 0 ?266 259 267 268 0 0 7
 31 256 28 0 259 268 15 0 +-.576668413477507 -1.14 0 876491861546176e-30 -1 0 1
 876491861546176e-30 0 .03 31 268 27 0 263 269 256 0 +.703331586522493 -1.14 0 -
876491861546176e-30 1 0 -1 -876491861546176e-30 0 .03 31 269 26 0 267 270 268 0
 +.703331586522493 -1.54 0 -876491861546176e-30 1 0 -1 -876491861546176e-30 0 .0
3 16 267 6 0 ?271 263 272 269 0 0 7 31 270 116 0 272 273 269 0 +-.57666841347750
7 -1.54 0 1154047617702464e-30 -1 0 1 1154047617702464e-30 0 .027 16 272 81 0 ?2
74 267 275 270 0 0 7 31 273 117 0 276 277 270 0 +.703331586522493 -1.54 0 -87649
1861546176e-30 1 0 -1 -876491861546176e-30 0 .027 16 276 83 0 ?278 279 0 273 0 0
 7 31 277 118 0 275 280 273 0 +-.576668413477507 -1.14 0 277555756156289e-30 -1
 0 1 277555756156289e-30 0 .027 16 275 86 0 ?281 272 279 277 0 0 7 31 280 119 0
 279 0 277 0 -.703331586522493 -1.14 0 1479972940262824e-31 -1 0 1 1479972940262
824e-31 0 .027 16 279 85 0 ?282 275 276 280 0 0 7 17 282 0 283 282 282 0 284 279
 0 0 +15 283 95 0 282 285 286 17 284 0 287 284 284 0 282 279 0 0 -15 287 102 0 2
84 288 0 14 288 97 289 ?290 285 291 13 292 -0 0 285 290 257 81 1 289 252 80 288
 293 0 0 294 295 14 290 103 294 ?0 288 296 13 297 -0 0 288 253 257 14 285 91 298
 ?288 299 283 13 300 -0 0 0 288 257 15 291 101 0 281 288 287 54 292 112 0 288 30
0 297 0 +.063331586522493 -1.14 0 0 0 1 .64 .027 1 0 0 13 257 3 0 0 0 0 0 0 16 2
99 14 299 16 301 ?285 302 303 13 304 +0 0 302 0 257 81 1 301 258 80 299 305 0 29
8 306 307 14 302 12 306 ?299 308 309 13 310 +0 0 308 299 257 15 303 18 0 261 299
 264 51 304 25 0 299 310 255 0 +-.576668413477507 -1.14 0 277555756156289e-30 -1
 0 .03 1 277555756156289e-30 0 54 310 24 0 302 311 304 0 +.063331586522493 -1.14
 0 0 0 1 .64 .03 1 0 0 50 255 42 0 312 304 14 0 +-.576668413477507 -1.54 0 11540
47617702464e-30 -1 0 1 1154047617702464e-30 0 14 312 36 313 ?308 253 314 13 255
 +0 0 253 308 257 81 1 313 262 80 312 315 0 306 316 317 14 308 2 316 ?302 312 31
8 13 311 +0 0 312 302 257 14 253 49 319 ?312 0 320 13 14 -0 0 290 312 257 15 314
 74 0 321 312 260 17 321 0 314 321 321 0 274 272 0 0 -15 260 38 0 258 312 0 17 2
74 0 296 274 274 0 321 272 0 0 +15 296 107 0 274 290 322 15 322 108 0 323 290 0
 17 323 0 322 323 323 0 281 275 0 0 -17 281 0 291 281 281 0 323 275 0 0 +81 1 31
9 266 80 253 324 0 316 0 325 15 320 77 0 278 253 326 17 278 0 320 278 278 0 327
 276 0 0 +15 326 51 0 328 253 0 17 328 0 326 328 328 0 271 267 0 0 -17 271 0 329
 271 271 0 328 267 0 0 +15 329 7 0 271 308 0 17 327 0 286 327 327 0 278 276 0 0
 -15 286 96 0 327 285 0 81 1 324 217 120 253 0 319 0 315 330 81 1 316 264 80 308
 331 0 313 319 332 82 1 325 -938868626 81 1 331 219 120 308 0 316 315 333 334 82
 1 332 -938934162 81 1 315 218 120 312 0 313 324 331 335 81 1 333 220 120 302 0
 306 331 305 336 83 3 334 .792156862745098 .819607843137255 .933333333333333 81
 1 306 260 80 302 333 0 301 313 337 81 1 305 221 120 299 0 301 333 338 339 83 3
 336 .792156862745098 .819607843137255 .933333333333333 81 1 338 222 120 285 0 2
98 305 293 340 83 3 339 .792156862745098 .819607843137255 .933333333333333 81 1
 298 256 80 285 338 0 294 301 341 81 1 293 223 120 288 0 289 338 342 343 83 3 34
0 .792156862745098 .819607843137255 .933333333333333 81 1 342 224 120 290 0 294
 293 0 344 83 3 343 .792156862745098 .819607843137255 .933333333333333 81 1 294
 254 80 290 342 0 289 298 345 83 3 344 .792156862745098 .819607843137255 .933333
333333333 82 1 345 -939851666 82 1 341 -939786130 82 1 337 -939392914 83 3 335 .
792156862745098 .819607843137255 .933333333333333 83 3 330 .792156862745098 .819
607843137255 .933333333333333 15 318 10 0 346 308 329 51 311 23 0 308 297 310 0
 +.703331586522493 -1.54 0 0 1 0 .03 0 0 1 51 297 111 0 290 292 311 0 +-.5766684
13477507 -1.14 0 277555756156289e-30 -1 0 .027 1 277555756156289e-30 0 17 346 0
 318 346 346 0 266 263 0 0 -17 266 0 347 266 266 0 346 263 0 0 +15 347 11 0 266
 302 0 82 1 317 -939065234 17 261 0 303 261 261 0 258 17 0 0 -15 264 15 0 262 29
9 0 15 309 14 0 265 302 347 17 265 0 309 265 265 0 262 259 0 0 -82 1 307 -939523
986 51 300 113 0 285 0 292 0 +.703331586522493 -1.54 0 0 1 0 .027 0 0 1 82 1 295
 -939982738 19 254 60 0 7 0 16 13 0 S0 74 20 252 5 0 0 348 319 251 342 10 0 0 0
 0 0 0 0 0 0 0 0 0 0 0 0 81 2 348 152 141 7 0 251 0 0 349 0 81 2 251 208 143 7 3
48 10 0 0 350 0 83 1 350 1 84 9 349 LPattern174 20 6 1 0 0 2 0 0 0 0 0 0 0 0 0 0
 0 0 0 0 0 0 0 0 0 80 2 5 351 352 9000 0 0 0 0 3 5 0 0 0 TFFFFFFFFFFFFFFF9 1 79
 18 352 MULTI_BODY_ID_20011 0 
