**ABCDEFGHIJKLMNOPQRSTUVWXYZabcdefghijklmnopqrstuvwxyz**************************
**PARASOLID !"#$%&'()*+,-./:;<=>?@[\]^_`{|}~0123456789**************************
**PART1;
MC=AMD64;
MC_MODEL=Intel64 Family 6 Model 186 Stepping 2, GenuineIntel;
MC_ID=unknown;
OS=Windows_NT;
OS_RELEASE=unknown;
FRU=Parasolid Version 34.1, build 247, 10- 7-2022;
APPL=SOLIDWORKS 2023-2023010;
SITE=;
USER=unknown;
FORMAT=text;
GUISE=transmit;
KEY=Chapa45_v0_Parasolid3D;
FILE=Chapa45_v0_Parasolid3D.x_t;
DATE=Tue Jul 30 17:26:29 2024;
**PART2;
SCH=SCH_3401247_34101;
USFLD_SIZE=0;
**PART3;
**END_OF_HEADER*****************************************************************
T51 : TRANSMIT FILE created by modeller version 340124723 SCH_3401247_34101_1300
6231 0 12 36 CCCI7 lattice222 0 CCCI4 mesh1006 0 I8 polyline1008 0 CCCCCCCDI5 ow
ner1040 0 CCCI16 boundary_lattice222 0 CCCI13 boundary_mesh1006 0 I17 boundary_p
olyline1008 0 CCCA16 index_map_offset0 0 1 dA9 index_map82 0 A17 node_id_index_m
ap82 0 A20 schema_embedding_map82 0 A5 child12 0 A14 lowest_node_id0 0 1 dA16 me
sh_offset_data206 0 Z1 2761 2 3 0 0 0 0 0 0 0 1e3 1e-8 0 4 0 1 0 1 1 5 0 6 7 8 0
 0 9 10 11 0 0 0 0 0 0 0 81 255 2 2 2597 12 1 13 0 0 0 0 14 70 11 CI9 list_type0
 0 1 uI10 notransmit0 0 1 lCCCDCCDI12 finger_index0 0 1 dI12 finger_block1012 0
 CZ3 0 4 T1 0 0 12 20 1 15 15 13 255 5 99 0 1 0 16 0 0 17 0 50 255 6 94 0 18 19
 0 0 +-23.3995611417391 3.81053132890248 41.1994414202094 0 -.707106781186545 .7
07106781186551 0 -.707106781186551 -.707106781186545 32 255 7 209 0 10 20 0 0 +-
23.0305480978763 2.922832252653675 40.29760020833685 0 .707106781186543 -.707106
781186553 0 .707106781186553 .707106781186543 .0884924308572017 .062573597942808
6 29 255 8 906 0 11 21 0 -23.3495611417391 3.21935295472322 40.60826304603015 19
 9 CCCCCCI5 frame230 0 CA5 owner12 0 Z9 33 0 1 17 0 22 0 V0 16 255 10 207 23 ?24
 0 25 7 0 0 1 18 255 11 904 0 26 0 27 8 ?1 17 255 26 0 28 29 30 11 31 32 0 33 -1
8 27 826 0 34 11 35 21 ?1 17 34 0 36 37 38 27 39 40 0 41 -18 35 685 0 42 27 43 4
4 ?1 29 21 828 0 27 44 8 -23.3495611417391 3.33956110752488 40.71432906320805 29
 44 687 0 35 45 21 -22.9015611417391 2.8251322393793 40.1999001950625 29 45 154
 0 43 46 44 -22.7995611417391 2.846116519087125 40.23502661039405 18 43 152 0 47
 35 48 45 ?1 29 46 148 0 48 49 45 -22.7995611417391 3.247900131031435 40.6368102
2233835 18 48 146 0 50 43 51 46 ?1 29 49 75 0 52 53 46 -22.7995611417391 3.62081
3944392155 41.00972403569905 18 52 66 0 54 55 56 49 ?1 29 53 76 0 56 57 49 -22.7
995611417391 3.627885012204025 41.0026529678872 18 56 67 0 58 52 59 53 ?1 29 57
 77 0 59 60 53 -22.7995611417391 2.8251322393793 40.1999001950625 18 59 68 0 61
 56 62 57 ?1 29 60 78 0 62 63 57 -22.7995611417391 2.810990103755565 40.19990019
50625 18 62 69 0 64 59 65 60 ?1 29 63 32 0 51 66 60 -23.3995611417391 3.62081394
4392155 41.00972403569905 18 51 30 0 67 48 55 63 ?1 29 66 29 0 55 68 63 -23.3995
611417391 3.627885012204025 41.0026529678872 18 55 27 0 69 51 52 66 ?1 29 68 521
 0 65 70 66 -22.79956114173745 2.985405850596485 40.36017380627965 18 65 295 0 7
1 62 72 68 ?1 29 70 522 0 72 73 68 -22.79956114173745 2.971263714972745 40.36017
380627965 18 72 282 0 74 65 75 70 ?1 29 73 523 0 75 76 70 -23.0305480978763 2.98
5405850596485 40.36017380627965 18 75 288 0 24 72 77 73 ?1 29 76 524 0 77 78 73
 -23.0305480978763 2.971263714972745 40.36017380627965 18 77 296 0 79 75 80 76 ?
1 29 78 525 0 80 81 76 -23.0305480978763 2.860258654710865 40.23502661039405 18
 80 297 0 82 77 83 78 ?1 29 81 526 0 83 84 78 -23.0305480978763 2.84611651908712
5 40.23502661039405 18 83 286 0 85 80 86 81 ?1 29 84 527 0 86 87 81 -22.79956114
173745 2.860258654710865 40.23502661039405 18 86 284 0 88 83 89 84 ?1 29 87 529
 0 89 90 84 -22.7995611417391 3.387189462540795 40.76195741822395 18 89 410 0 91
 86 92 87 ?1 29 90 530 0 92 93 87 -22.7995611417391 3.37304732691705 40.76195741
822395 18 92 397 0 94 89 95 90 ?1 29 93 531 0 95 96 90 -22.89741060103045 3.3871
894625408 40.76195741822395 18 95 403 0 97 92 98 93 ?1 29 96 532 0 98 99 93 -22.
89741060103045 3.37304732691706 40.76195741822395 18 98 411 0 100 95 101 96 ?1 2
9 99 533 0 101 102 96 -22.89741060103045 3.262042266655175 40.63681022233835 18
 101 412 0 103 98 104 99 ?1 29 102 534 0 104 105 99 -22.89741060103045 3.2479001
31031435 40.63681022233835 18 104 401 0 106 101 107 102 ?1 29 105 535 0 107 108
 102 -22.7995611417391 3.262042266655175 40.63681022233835 18 107 399 0 109 104
 110 105 ?1 29 108 770 0 110 111 105 -22.9015611417391 2.81099010375556 40.19990
01950625 18 110 720 0 112 107 113 108 ?1 29 111 771 0 113 114 108 -22.9015611417
391 2.6688703255695 40.0436382812527 18 113 722 0 115 110 116 111 ?1 29 114 773
 0 116 117 111 -22.9015611417391 2.66179925775762 40.05070934906455 18 116 721 0
 118 113 119 114 ?1 29 117 776 0 119 120 114 -23.3995611417391 2.66179925775762
 40.05070934906455 18 119 719 0 121 116 122 117 ?1 29 120 777 0 122 123 117 -23.
3995611417391 2.6688703255695 40.0436382812527 18 122 716 0 124 119 125 120 ?1 2
9 123 1432 0 125 126 120 -23.0395611417391 3.33249003971307 40.72140013102 18 12
5 1134 0 127 122 128 123 ?1 29 126 1433 0 128 129 123 -23.0395611417391 3.346632
175336805 40.7355422666437 18 128 1135 0 130 125 131 126 ?1 29 129 1434 0 131 13
2 126 -23.3595611417391 3.346632175336805 40.7355422666437 18 131 1160 0 133 128
 134 129 ?1 29 132 1435 0 134 135 129 -23.1645611417391 2.82054473013401 40.2094
5482144095 18 134 1138 0 136 131 137 132 ?1 29 135 1436 0 137 138 132 -23.164561
1417391 2.933681815123855 40.3225919064308 18 137 1142 0 139 134 140 135 ?1 29 1
38 1437 0 140 141 135 -23.1645611417391 2.80640259451027 40.1953126858172 18 140
 1169 0 142 137 143 138 ?1 29 141 1438 0 143 144 138 -23.3495611417391 2.8205447
3013401 40.20945482144095 18 143 1140 0 145 140 146 141 ?1 29 144 1439 0 146 147
 141 -23.3495611417391 2.933681815123855 40.3225919064308 18 146 1172 0 148 143
 149 144 ?1 29 147 1440 0 149 150 144 -23.1645611417391 2.947823950747585 40.336
7340420545 18 149 1144 0 151 146 152 147 ?1 29 150 1441 0 152 153 147 -23.359561
1417391 2.80640259451027 40.1953126858172 18 152 1175 0 154 149 155 150 ?1 29 15
3 1442 0 155 156 150 -23.3495611417391 2.947823950747585 40.3367340420545 18 155
 1148 0 157 152 158 153 ?1 29 156 1443 0 158 159 153 -23.3495611417391 3.2052108
1909949 40.5941209104064 18 158 1151 0 160 155 161 156 ?1 29 159 1444 0 161 162
 156 -23.0395611417391 3.20521081909949 40.5941209104064 18 161 1153 0 163 158 1
64 159 ?1 29 162 1445 0 164 165 159 -23.3695611417391 2.813473662322145 40.20238
375362905 18 164 1179 0 166 161 167 162 ?1 29 165 1446 0 167 168 162 -23.3695611
417391 3.339561107524935 40.72847119883185 18 167 1132 0 169 164 170 165 ?1 29 1
68 1447 0 170 171 165 -23.0395611417391 3.219352954723225 40.60826304603015 18 1
70 1154 0 172 167 173 168 ?1 29 171 1449 0 173 174 168 -23.3495611417391 3.33249
003971307 40.72140013102 18 173 1164 0 29 170 175 171 ?1 29 174 1450 0 176 177 1
71 -23.1645611417391 2.82761579794582 40.2023837536291 18 176 1171 0 178 179 180
 174 ?1 29 177 1451 0 180 181 174 -23.1645611417391 2.81347366232208 40.18824161
80054 18 180 1170 0 182 176 0 177 ?1 29 181 1454 0 183 184 177 -23.1645611417391
 2.954895018559395 40.3296629742427 18 183 1178 0 185 186 179 181 ?1 29 184 1455
 0 179 187 181 -23.1645611417391 2.94075288293566 40.31552083861895 18 179 1174
 0 188 183 176 184 ?1 29 187 1458 0 189 190 184 -23.0395611417391 3.212281886911
3 40.5870498425946 18 189 1183 0 191 192 186 187 ?1 29 190 1459 0 186 193 187 -2
3.0395611417391 3.226424022535035 40.60119197821835 18 186 1184 0 194 189 183 19
0 ?1 29 193 1468 0 195 196 190 -23.3495611417391 3.226424022535035 40.6011919782
1835 18 195 1185 0 31 197 198 193 ?1 29 196 1469 0 198 199 193 -23.3495611417391
 3.2122818869113 40.5870498425946 18 198 1182 0 200 195 201 196 ?1 29 199 1470 0
 201 202 196 -23.3495611417391 2.954895018559395 40.3296629742427 18 201 1181 0
 203 198 204 199 ?1 29 202 1471 0 204 205 199 -23.3495611417391 2.94075288293566
5 40.31552083861895 18 204 1173 0 206 201 207 202 ?1 29 205 1472 0 207 208 202 -
23.3495611417391 2.827615797945815 40.2023837536291 18 207 1177 0 209 204 210 20
5 ?1 29 208 1473 0 210 211 205 -23.3595611417391 2.81347366232208 40.18824161800
54 18 210 1176 0 212 207 192 208 ?1 29 211 1474 0 192 213 208 -23.3695611417391
 2.82054473013395 40.19531268581725 18 192 1180 0 214 210 189 211 ?1 29 213 1478
 0 175 215 211 -23.3695611417391 3.34663217533674 40.72140013102005 18 175 1168
 0 216 173 217 213 ?1 29 215 1480 0 217 218 213 -23.3595611417391 3.353703243148
61 40.7284711988319 18 217 1161 0 219 175 220 215 ?1 29 218 1481 0 220 221 215 -
23.0395611417391 3.33956110752488 40.7143290632082 18 220 1166 0 38 217 197 218
 ?1 29 221 1482 0 197 0 218 -23.0395611417391 3.353703243148615 40.7284711988319
 18 197 1167 0 222 220 195 221 ?1 17 222 0 223 224 130 197 225 226 0 227 +15 255
 223 1278 0 130 228 0 17 224 0 223 229 222 220 230 231 0 39 +17 130 0 223 222 22
9 128 232 233 0 225 +17 225 0 234 133 227 128 222 226 0 235 -16 226 1056 236 ?22
2 237 238 239 0 0 1 17 227 0 234 225 219 197 240 241 0 230 +15 234 1282 0 133 24
2 0 17 219 0 234 227 133 217 243 244 0 245 +17 240 0 246 247 230 217 227 241 0 0
 -16 241 1073 248 ?227 231 249 250 0 0 1 17 230 0 246 240 39 197 224 231 0 0 -15
 246 895 0 251 252 253 17 39 0 246 230 254 220 34 40 0 0 +16 231 1076 255 ?224 4
0 241 256 0 0 1 81 3 255 2601 257 231 0 0 248 258 259 0 0 16 40 1052 258 ?39 238
 231 260 0 0 1 31 255 256 1426 0 231 250 260 0 +-23.0395611417391 3.346632175336
75 40.72140013102005 -638378239159465e-30 .707106781186546 -.70710678118655 0 .7
0710678118655 .707106781186546 .0100000000000035 30 255 250 1427 0 241 0 256 0 +
1687102937727895e-29 3.353703243148625 40.7284711988319 1 451401581871583e-30 -4
51401581871587e-30 30 260 1425 0 40 256 261 0 +1687102937727895e-29 3.3395611075
2489 40.71432906320815 1 451401581871583e-30 -451401581871587e-30 31 261 1424 0
 238 260 262 0 +-23.3595611417391 3.34663217533674 40.72140013102005 -6383782391
59465e-30 .707106781186546 -.70710678118655 0 .70710678118655 .707106781186546 .
0100000000000035 16 238 1068 263 ?245 226 40 261 0 0 1 30 262 1423 0 244 261 264
 0 +-23.3595611417391 2.86712483201954 41.215049609961 0 .707106781186544 -.7071
06781186551 16 244 1028 265 ?219 266 237 262 0 0 1 30 264 1422 0 237 262 239 0 +
-23.0395611417391 2.85298269639581 41.20090747433725 0 .707106781186544 -.707106
781186551 16 237 1055 267 ?38 244 226 264 0 0 1 30 239 1421 0 226 264 268 0 +-23
.0395611417391 2.867124832019545 41.215049609961 0 .707106781186544 -.7071067811
86551 30 268 1420 0 269 239 270 0 --23.3695611417391 2.86005376420767 41.2079785
421491 0 .707106781186544 -.707106781186551 16 269 1029 271 ?272 273 266 268 0 0
 1 31 270 1416 0 274 268 275 0 +-23.3595611417391 2.82054473013395 40.1953126858
1725 0 .707106781186545 -.707106781186551 0 .707106781186551 .707106781186545 .0
1000000000000156 16 274 1060 276 ?277 278 279 270 0 0 1 30 275 1415 0 278 270 28
0 0 +-23.3695611417391 2.82054473013395 40.19531268581725 0 .707106781186555 .70
710678118654 16 278 1065 281 ?216 282 274 275 0 0 1 30 280 1414 0 282 275 283 0
 +-23.3495611417391 2.82054473013395 40.19531268581725 0 .707106781186555 .70710
678118654 16 282 1129 284 ?254 285 278 280 285 286 1 30 283 1413 0 287 280 288 0
 +-23.3695611417391 2.33396631900488 40.68189109694635 0 .707106781186544 -.7071
06781186551 16 287 1113 289 ?214 290 286 283 0 0 1 30 288 1412 0 249 283 291 0 -
-23.3595611417391 2.32689525119301 40.67482002913445 0 .707106781186544 -.707106
781186551 16 249 1114 292 ?293 241 294 288 0 0 1 30 291 1408 0 295 288 296 0 +-2
3.3595611417391 3.22642402253503 40.60119197821835 1 0 0 16 295 1079 297 ?298 29
9 300 291 0 0 1 31 296 1407 0 299 291 301 0 +-23.0395611417391 3.219352954723165
 40.59412091040645 0 .707106781186545 -.707106781186551 0 .707106781186551 .7071
06781186545 .01000000000000224 16 299 1082 302 ?303 304 295 296 0 0 1 30 301 140
6 0 304 296 305 0 +-23.3595611417391 3.2122818869113 40.5870498425946 1 0 0 16 3
04 1121 306 ?307 308 299 301 0 0 1 30 305 1405 0 279 301 309 0 +-23.039561141739
1 2.725703475782225 41.07362825372365 0 .707106781186544 -.707106781186551 16 27
9 1124 310 ?191 274 308 305 0 0 1 30 309 1404 0 308 305 311 0 +-23.0395611417391
 2.73984561140596 41.0877703893474 0 .707106781186544 -.707106781186551 16 308 1
125 312 ?194 279 304 309 0 0 1 31 311 1400 0 313 309 314 0 +-23.1645611417391 2.
94782395074753 40.32259190643085 0 .707106781186545 -.707106781186551 0 .7071067
81186551 .707106781186545 .00999999999999973 16 313 1085 315 ?316 317 318 311 0
 0 1 30 314 1399 0 317 311 319 0 +-23.1645611417391 2.94075288293566 40.31552083
861895 -1 182190445066692e-28 0 16 317 1088 320 ?321 322 313 314 0 0 1 30 319 13
98 0 322 314 323 0 +-23.1645611417391 2.954895018559395 40.3296629742427 -1 0 0
 16 322 1110 324 ?325 326 317 319 0 0 1 30 323 1397 0 300 319 327 0 +-23.1645611
417391 2.46831660743032 40.81624138537175 0 .707106781186544 -.707106781186551 1
6 300 1109 328 ?185 295 326 323 0 0 1 30 327 1396 0 326 323 329 0 +-23.164561141
7391 2.45417447180659 40.80209924974805 0 .707106781186544 -.707106781186551 16
 326 1101 330 ?188 300 322 327 0 0 1 31 329 1392 0 331 327 332 0 +-23.1645611417
391 2.82054473013395 40.19531268581725 0 .707106781186545 -.707106781186551 0 .7
07106781186551 .707106781186545 .0100000000000035 16 331 1091 333 ?334 335 0 329
 0 0 1 30 332 1391 0 335 329 336 0 +-23.1645611417391 2.81347366232208 40.188241
6180054 -1 0 0 16 335 1057 337 ?338 339 331 332 0 0 1 30 336 1390 0 339 332 340
 0 +-23.1645611417391 2.82761579794582 40.2023837536291 -1 0 0 16 339 1098 341 ?
342 343 335 336 0 0 1 30 340 1389 0 318 336 344 0 +-23.1645611417391 2.341037386
816745 40.6889621647582 0 .707106781186544 -.707106781186551 16 318 1097 345 ?17
8 313 343 340 0 0 1 30 344 1388 0 343 340 346 0 +-23.1645611417391 2.32689525119
301 40.67482002913445 0 .707106781186544 -.707106781186551 16 343 1094 347 ?182
 318 339 344 0 0 1 30 346 1387 0 290 344 348 0 +-23.3495611417391 2.341037386816
745 40.6889621647582 0 -.707106781186545 .707106781186551 16 290 1095 349 ?350 3
51 287 346 0 0 1 30 348 1386 0 351 346 352 0 +-23.3495611417391 2.45417447180659
 40.80209924974805 0 -.707106781186545 .707106781186551 16 351 1102 353 ?354 355
 290 348 0 0 1 30 352 1385 0 355 348 356 0 +-23.3495611417391 2.46831660743032 4
0.81624138537175 0 -.707106781186545 .707106781186551 16 355 1107 357 ?358 32 35
1 352 0 0 1 30 356 1384 0 32 352 359 0 +-23.3495611417391 2.73984561140596 41.08
77703893474 0 .707106781186545 -.707106781186551 16 32 1128 360 ?31 294 355 356
 0 0 1 30 359 1383 0 294 356 361 0 +-23.3495611417391 2.725703475782225 41.07362
82537237 0 .707106781186545 -.707106781186551 16 294 1120 362 ?200 249 32 359 0
 0 1 30 361 1382 0 266 359 363 0 +-23.3495611417391 2.85298269639582 41.20090747
433725 0 -.707106781186545 .707106781186551 16 266 1126 364 ?37 269 244 361 0 0
 1 30 363 1381 0 273 361 365 0 +-23.3495611417391 3.81053132890248 41.1994414202
094 0 -.707106781186551 -.707106781186545 16 273 1127 366 ?367 368 269 363 0 0 1
 30 365 1380 0 368 363 369 0 +-23.3995611417391 3.21935295472322 40.608263046030
15 -1 0 0 16 368 1022 370 ?33 371 273 365 0 0 1 30 369 1379 0 371 365 372 0 +-23
.3695611417391 3.81053132890248 41.1994414202094 0 -.707106781186551 -.707106781
186545 16 371 1017 373 ?166 374 368 369 0 0 1 31 372 1378 0 374 369 375 0 +-23.0
395611417391 3.21228188691136 40.6011919782183 0 -.707106781186545 .707106781186
551 0 -.707106781186551 -.707106781186545 .01000000000000224 16 374 1013 376 ?17
2 377 371 372 0 0 1 30 375 1377 0 377 372 378 0 +-23.3995611417391 3.20521081909
949 40.5941209104064 -1 0 0 16 377 1119 379 ?380 381 374 375 0 0 1 30 378 1376 0
 381 375 382 0 +-23.3495611417391 3.81053132890248 41.1994414202094 0 -.70710678
1186551 -.707106781186545 16 381 1115 383 ?384 385 377 378 0 0 1 31 382 1375 0 3
85 378 386 0 +-23.3595611417391 2.813473662322145 40.20238375362905 0 -.70710678
1186545 .707106781186551 0 -.707106781186551 -.707106781186545 .0100000000000015
6 16 385 1004 387 ?154 388 381 382 0 0 1 30 386 1374 0 388 382 389 0 +-23.399561
1417391 2.947823950747585 40.3367340420545 1 0 0 16 388 1108 390 ?391 392 385 38
6 0 0 1 30 389 1373 0 392 386 393 0 +-23.3495611417391 3.81053132890248 41.19944
14202094 0 -.707106781186551 -.707106781186545 16 392 1103 394 ?395 396 388 389
 0 0 1 30 393 1372 0 396 389 397 0 +-23.3995611417391 2.806402594510275 40.19531
26858172 1 0 0 16 396 996 398 ?142 399 392 393 0 0 1 31 397 1371 0 399 393 400 0
 +-23.1645611417391 2.94075288293572 40.32966297424265 0 -.707106781186545 .7071
06781186551 0 -.707106781186551 -.707106781186545 .00999999999999973 16 399 992
 401 ?151 402 396 397 0 0 1 30 400 1370 0 402 397 403 0 +-23.39956114173915 2.93
3681815123855 40.3225919064308 1 -910952225333468e-29 -910952225333461e-29 16 40
2 987 404 ?139 405 399 400 0 0 1 30 403 1369 0 405 400 406 0 +-23.3995611417391
 2.82054473013401 40.20945482144095 1 0 0 16 405 1096 407 ?408 409 402 403 0 0 1
 31 406 1368 0 409 403 410 0 +-23.1645611417391 2.813473662322145 40.20238375362
905 0 -.707106781186545 .707106781186551 0 -.707106781186551 -.707106781186545 .
0100000000000035 16 409 981 411 ?136 412 405 406 0 0 1 30 410 1367 0 412 406 413
 0 +-23.3995611417391 3.346632175336805 40.7355422666437 -1 0 0 16 412 976 414 ?
133 233 409 410 0 0 1 31 413 1366 0 233 410 415 0 +-23.0395611417391 3.339561107
52494 40.72847119883185 0 -.707106781186545 .707106781186551 0 -.707106781186551
 -.707106781186545 .0100000000000035 16 233 971 416 ?130 417 412 413 0 0 1 30 41
5 1365 0 417 413 418 0 +-23.3995611417391 3.33249003971307 40.72140013102 -1 0 0
 16 417 1051 419 ?420 421 233 415 0 0 1 31 418 1364 0 421 415 422 0 +-23.3595611
417391 3.339561107524935 40.72847119883185 0 -.707106781186545 .707106781186551
 0 -.707106781186551 -.707106781186545 .0100000000000035 16 421 963 423 ?169 424
 417 418 0 0 1 30 422 769 0 425 418 426 0 +-22.90156114173915 -18.6944550456534
 18.69445504565345 581515725438437e-30 .707106781186547 .707106781186549 16 425
 706 427 ?428 429 430 422 0 0 1 30 426 768 0 429 422 431 0 +-22.9015611417391 0
 40.1999001950625 0 1 0 16 429 700 432 ?433 434 425 426 0 0 1 30 431 767 0 434 4
26 435 0 +-22.90156114173915 -18.68738397784155 18.6873839778419 -58151572543843
2e-30 -.707106781186553 -.707106781186543 16 434 695 436 ?437 438 429 431 0 0 1
 30 435 765 0 424 431 439 0 +-23.3995611417392 21.35625430341055 21.356254303418
65 235499460154268e-29 -.707106781186681 .707106781186414 16 424 712 440 ?441 44
2 421 435 0 0 1 30 439 760 0 430 435 443 0 +-22.6755181179739 2.66179925775762 4
0.05070934906455 -1 0 493432455388959e-29 16 430 711 444 ?445 425 442 439 0 0 1
 30 443 759 0 442 439 446 0 +-22.6755181179739 2.6688703255695 40.0436382812527
 -1 0 493432455388959e-29 16 442 696 447 ?448 430 424 443 0 0 1 30 446 758 0 438
 443 449 0 +-22.90156114173915 21.35625430341055 21.35625430341865 -581515725438
326e-30 .707106781186681 -.707106781186414 16 438 715 450 ?115 451 434 446 0 0 1
 30 449 511 0 452 446 453 0 +-23.0305480978763 2.810990103755565 40.360173806279
65 0 1 0 16 452 268 454 ?455 456 457 449 0 0 1 30 453 510 0 457 449 458 0 +-23.0
305480978763 2.810990103755565 40.23502661039405 0 1 0 16 457 269 459 ?460 452 4
61 453 0 0 1 30 458 507 0 461 453 462 0 +-22.89741060103045 2.810990103755565 40
.63681022233835 0 1 0 16 461 384 463 ?464 457 451 458 0 0 1 30 462 506 0 451 458
 465 0 +-22.89741060103045 2.810990103755565 40.76195741822395 0 1 0 16 451 383
 466 ?467 461 438 462 0 0 1 30 465 496 0 456 462 468 0 +-23.3995611417392 3.2620
42266655215 40.6368102223384 -1 726159082437436e-28 726159082437425e-28 16 456 3
79 469 ?103 470 452 465 0 0 1 30 468 495 0 470 465 471 0 +-23.3995611417392 3.24
7900131031475 40.6368102223384 1 -726159082437432e-28 -726159082437425e-28 16 47
0 375 472 ?50 473 456 468 0 0 1 30 471 494 0 473 468 474 0 +-23.3995611417392 3.
387189462540835 40.761957418224 1 -726159082437436e-28 -726159082437425e-28 16 4
73 372 475 ?91 476 470 471 0 0 1 30 474 493 0 476 471 477 0 +-23.3995611417392 3
.373047326917095 40.761957418224 -1 726159082437432e-28 726159082437425e-28 16 4
76 368 478 ?100 479 473 474 0 0 1 30 477 492 0 479 474 480 0 +-23.3995611417391
 2.860258654710865 40.23502661039405 -1 0 0 16 479 264 481 ?82 482 476 477 0 0 1
 30 480 491 0 482 477 483 0 +-23.3995611417391 2.846116519087125 40.235026610394
05 1 0 0 16 482 260 484 ?47 485 479 480 0 0 1 30 483 490 0 485 480 486 0 +-23.39
95611417391 2.985405850596485 40.36017380627965 1 0 0 16 485 257 487 ?71 488 482
 483 0 0 1 30 486 489 0 488 483 489 0 +-23.3995611417391 2.971263714972745 40.36
017380627965 -1 0 0 16 488 253 490 ?79 491 485 486 0 0 1 32 489 488 0 491 486 49
2 0 +-22.89741060103045 3.31047372897424 40.69938382028115 0 -.707106781186545 .
707106781186551 0 .707106781186551 .707106781186545 .0884924308572015 .062573597
9428086 16 491 361 493 ?106 494 488 489 0 0 1 32 492 485 0 494 489 495 0 +-23.03
05480978763 2.908690117029935 40.29760020833685 0 -.707106781186545 .70710678118
6551 0 .707106781186551 .707106781186545 .0884924308572015 .0625735979428086 16
 494 246 496 ?85 497 491 492 0 0 1 30 495 7 0 498 492 499 0 +-23.3995611417391 3
.81053132890248 41.1994414202094 -34890943526306e-28 -.707106781186551 -.7071067
81186545 16 498 5 500 ?121 501 502 495 0 0 1 30 499 15 0 501 495 503 0 +-23.3995
611417391 3.81760239671435 41.1923703523975 348909435263059e-29 .707106781186553
 .707106781186543 16 501 13 504 ?505 506 498 499 0 0 1 30 503 19 0 506 499 507 0
 +-23.3995611417391 4.62035516953872 40.01018281055195 34890943526316e-28 -.7071
06781186348 .707106781186747 16 506 17 508 ?509 510 501 503 0 0 1 30 507 74 0 51
1 503 512 0 +-22.7995611417391 3.81053132890248 41.1994414202094 -34890943526306
e-28 -.707106781186551 -.707106781186545 16 511 62 513 ?514 515 516 507 497 516
 1 30 512 73 0 515 507 517 0 +-22.7995611417391 4.81007255404938 40.199900195062
5 0 1 0 16 515 58 518 ?519 520 511 512 0 0 1 30 517 72 0 521 512 522 0 +-22.7995
611417391 3.81760239671435 41.1923703523975 348909435263059e-29 .707106781186553
 .707106781186543 16 521 54 523 ?524 502 525 517 520 525 1 30 522 71 0 502 517 5
26 0 +-22.7995611417391 4.62035516953872 40.01018281055195 34890943526316e-28 -.
707106781186348 .707106781186747 16 502 50 527 ?528 498 521 522 0 0 1 30 526 95
 0 529 522 530 0 +-23.3995611417391 3.620813944392155 41.00972403569905 1 0 0 16
 529 79 531 ?54 532 533 526 0 0 1 30 530 96 0 533 526 534 0 +-23.3995611417391 3
.627885012204025 41.0026529678872 1 0 0 16 533 80 535 ?536 529 537 530 0 0 1 30
 534 97 0 537 530 538 0 +-23.3995611417391 2.8251322393793 40.1999001950625 1 0
 0 16 537 686 539 ?61 533 510 534 0 0 1 30 538 98 0 510 534 540 0 +-23.399561141
7391 2.810990103755565 40.1999001950625 1 0 0 16 510 683 541 ?64 537 506 538 0 0
 1 30 540 169 0 532 538 542 0 +-22.7995611417391 899284122045822e-44 40.63681022
233835 -394430452610506e-45 -1 2864192555530235e-59 16 532 167 543 ?544 545 529
 540 0 0 1 30 542 175 0 545 540 546 0 +-22.7995611417391 899284122045823e-44 40.
76195741822395 394430452610506e-45 1 -2864192555530235e-59 16 545 173 547 ?548 5
49 532 542 0 0 1 30 546 181 0 549 542 550 0 +-22.7995611417391 899284122045706e-
44 40.23502661039405 -394430452610506e-45 -1 0 16 549 179 551 ?552 553 545 546 0
 0 1 30 550 187 0 553 546 20 0 +-22.7995611417391 899284122045706e-44 40.3601738
0627965 394430452610506e-45 1 0 16 553 185 554 ?555 25 549 550 0 0 1 32 20 197 0
 25 550 7 0 +-22.89741060103045 3.324615864597985 40.69938382028115 0 .707106781
186543 -.707106781186553 0 .707106781186553 .707106781186543 .0884924308572017 .
0625735979428086 16 25 195 556 ?97 10 553 20 0 0 1 81 3 556 2687 257 25 0 0 554
 557 558 0 0 17 97 0 559 560 464 95 561 25 0 467 +15 559 456 0 106 562 0 17 560
 0 559 106 97 98 467 451 0 563 -17 464 0 559 97 106 101 564 461 0 561 +17 561 0
 253 565 566 101 97 25 0 0 -17 467 0 567 91 100 95 560 451 0 566 +15 567 452 0 1
00 568 0 17 91 0 567 94 467 89 566 473 0 548 +17 100 0 567 467 94 98 569 476 0 5
60 +17 566 0 253 561 570 95 91 473 0 0 -15 253 211 0 571 252 0 17 570 0 253 566
 536 89 58 520 0 0 -17 536 0 253 570 505 56 69 533 0 572 +17 58 0 573 528 548 56
 570 520 0 536 +16 520 165 557 ?58 525 515 517 525 521 1 81 3 557 2688 257 520 0
 0 556 574 575 0 0 16 525 159 574 ?576 521 520 517 521 520 1 81 3 574 2689 257 5
25 0 0 557 577 578 0 0 17 576 0 579 544 555 107 580 525 0 0 +15 579 180 0 581 58
2 0 17 544 0 579 581 576 48 109 532 0 583 +17 555 0 579 576 581 65 74 553 0 580
 +17 580 0 253 571 565 65 576 525 0 0 -17 571 0 253 584 580 75 71 485 0 0 -17 56
5 0 253 580 561 107 103 456 0 576 -17 103 0 585 564 109 101 565 456 0 464 +15 58
5 460 0 50 586 0 17 564 0 585 50 103 104 464 461 0 587 -17 109 0 585 103 50 107
 544 532 0 565 -17 50 0 585 109 564 48 587 470 0 544 +17 587 0 588 563 583 104 5
0 470 0 0 -15 588 233 0 589 18 0 17 563 0 588 569 587 98 106 491 0 0 -17 583 0 5
88 587 589 48 581 516 0 0 -17 589 0 588 583 590 72 79 488 0 581 -17 581 0 579 55
5 544 72 583 516 0 0 +16 516 147 577 ?581 511 497 507 511 497 1 81 3 577 2690 25
7 516 0 0 574 591 592 0 0 16 497 153 591 ?593 516 494 507 516 511 1 81 3 591 269
1 257 497 0 0 577 594 595 0 0 17 593 0 596 519 552 62 597 497 0 598 +15 596 49 0
 524 599 0 17 519 0 596 524 593 59 598 515 0 0 +17 552 0 596 593 524 43 88 549 0
 597 +17 597 0 588 600 64 43 593 497 0 0 -17 598 0 601 602 61 62 519 515 0 0 -15
 601 87 0 602 16 0 17 602 0 601 433 598 110 64 510 0 0 -17 61 0 601 598 433 59 6
03 537 0 604 +17 433 0 601 61 602 35 112 429 0 603 +17 603 0 253 437 604 35 61 5
37 0 0 -17 604 0 253 603 605 59 524 521 0 519 -17 605 0 253 604 584 86 82 479 0
 524 -17 524 0 596 552 519 86 604 521 0 0 +17 584 0 253 605 571 80 24 10 0 0 -17
 82 0 606 607 88 80 605 479 0 460 +15 606 345 0 47 608 0 17 607 0 606 47 82 83 4
60 457 0 600 -17 88 0 606 82 47 86 552 549 0 605 -17 460 0 609 24 85 80 607 457
 0 584 +15 609 341 0 85 610 0 17 24 0 609 611 460 75 584 10 0 455 +17 85 0 609 4
60 611 83 590 494 0 607 +17 611 0 609 85 24 77 455 452 0 590 -17 590 0 588 589 6
00 77 85 494 0 0 -17 600 0 588 590 597 83 47 482 0 0 -17 47 0 606 88 607 43 600
 482 0 552 +17 455 0 612 71 79 75 611 452 0 571 +15 612 337 0 79 613 0 17 71 0 6
12 74 455 65 571 485 0 555 +17 79 0 612 455 74 77 589 488 0 611 +17 74 0 612 79
 71 72 555 553 0 589 -14 255 613 334 614 ?610 586 612 5 615 -0 0 610 586 22 81 1
 614 2693 616 613 617 0 0 618 619 14 610 338 618 ?608 613 609 5 620 -0 0 608 613
 22 14 586 457 621 ?613 562 585 5 622 -0 0 613 562 22 50 615 480 0 613 623 620 0
 +-22.79956114173745 2.810990103755565 40.36017380627965 0 0 1 1 0 0 13 22 34 0
 0 0 0 0 0 9 16 14 16 690 624 ?582 0 601 5 19 +0 0 582 0 22 81 1 624 2699 616 16
 625 0 621 626 627 14 582 182 626 ?628 16 579 5 629 -628 599 628 16 22 50 19 93
 0 16 630 6 0 +-23.3995611417391 4.81007255404938 40.1999001950625 0 0 -1 -1 0 0
 50 630 92 0 252 631 19 0 +-23.3995611417391 3.81760239671435 41.1923703523975 0
 .707106781186543 -.707106781186553 0 .707106781186553 .707106781186543 14 252 8
6 632 ?633 634 246 5 630 +0 0 633 634 22 50 631 91 0 634 629 630 0 +-23.39956114
17391 4.62035516953872 40.01018281055195 0 .707106781186747 .707106781186348 0 -
.707106781186348 .707106781186747 14 634 84 635 ?252 18 636 5 631 +0 0 252 18 22
 50 629 70 0 599 637 631 0 +-22.7995611417393 899284122045714e-44 11250043435959
12e-28 -1 394430452610506e-45 493432455388959e-29 493432455388959e-29 0 1 14 599
 48 638 ?568 633 596 5 629 -582 628 568 633 22 50 637 3 0 633 639 629 0 +-23.399
5611417393 899284122045714e-44 1125004343595912e-28 -1 394430452610506e-45 49343
2455388959e-29 493432455388959e-29 0 1 14 633 1 640 ?599 252 641 5 637 +0 0 599
 252 22 50 639 473 0 568 642 637 0 +-22.7995611417391 2.810990103755565 40.76195
741822395 726159082437425e-28 0 1 1 0 -726159082437425e-28 14 568 449 643 ?562 5
99 567 5 639 -0 0 562 599 22 51 255 642 474 0 562 622 639 0 +-22.89741060103045
 2.810990103755565 40.69938382028115 0 1 0 .0625735979428086 0 0 1 14 562 453 64
4 ?586 568 559 5 642 -0 0 586 568 22 50 622 475 0 586 645 642 0 +-22.79956114173
91 2.810990103755565 40.63681022233835 -726159082437425e-28 0 -1 -1 0 7261590824
37425e-28 50 645 478 0 608 620 622 0 +-22.79956114173745 2.810990103755565 40.23
502661039405 0 0 -1 -1 0 0 14 608 342 646 ?647 610 606 5 645 -0 0 647 610 22 51
 620 479 0 610 615 645 0 +-23.0305480978763 2.810990103755565 40.29760020833685
 0 1 0 .0625735979428086 0 0 1 81 1 646 2715 616 608 648 0 644 649 650 14 647 73
7 649 ?651 608 652 5 623 +0 0 651 608 22 81 1 649 2717 616 647 653 0 646 654 655
 14 651 745 654 ?656 647 657 5 658 -0 0 659 647 22 15 652 740 0 660 647 0 50 623
 753 0 647 658 615 0 +-22.67551811797395 21.35625430341055 21.35625430341865 -34
89094352631275e-30 -.707106781186414 -.707106781186681 0 .707106781186681 -.7071
06781186414 50 658 757 0 651 661 623 0 +-22.9015611417391 4.81007255404938 40.18
91001950625 -1 0 822387425648265e-30 822387425648265e-30 0 1 51 661 1346 0 662 6
63 658 0 +-23.1645611417391 2.33396631900488 40.68189109694635 0 .70710678118654
4 -.707106781186551 .0100000000000035 0 .707106781186551 .707106781186545 14 662
 1287 664 ?665 242 666 5 661 -0 0 665 656 22 50 663 1347 0 667 668 661 0 +-23.16
45611417391 2.32689525119301 40.67482002913445 0 -.707106781186551 -.70710678118
6544 0 .707106781186545 -.707106781186551 14 667 1303 669 ?670 671 672 5 663 -0
 0 670 671 22 50 668 1348 0 665 673 663 0 +-23.1645611417391 2.341037386816745 4
0.6889621647582 0 -.707106781186551 -.707106781186544 0 .707106781186545 -.70710
6781186551 14 665 1291 674 ?675 662 676 5 668 +0 0 675 662 22 51 673 1349 0 671
 677 668 0 +-23.1645611417391 2.46124553961846 40.8091703175599 0 .7071067811865
44 -.707106781186551 .00999999999999973 0 .707106781186551 .707106781186545 14 6
71 1299 678 ?667 675 679 5 673 -0 0 667 675 22 50 677 1350 0 675 680 673 0 +-23.
1645611417391 2.45417447180659 40.80209924974805 -1288280991740536e-29 -.7071067
81186551 -.707106781186544 0 .707106781186545 -.707106781186551 14 675 1295 681
 ?671 665 682 5 677 -0 0 671 665 22 50 680 1351 0 683 684 677 0 +-23.16456114173
91 2.46831660743032 40.81624138537175 0 -.707106781186551 -.707106781186544 0 .7
07106781186545 -.707106781186551 14 683 1311 685 ?686 670 687 5 680 +0 0 686 670
 22 50 684 1352 0 688 689 680 0 +-23.3595611417391 2.73984561140596 41.087770389
3474 0 .707106781186551 .707106781186544 0 -.707106781186545 .707106781186551 14
 688 1336 690 ?691 692 693 5 684 -0 0 691 692 22 51 689 1353 0 694 695 684 0 +-2
3.0395611417391 2.732774543594095 41.08069932153555 0 .707106781186544 -.7071067
81186551 .01000000000000224 0 .707106781186551 .707106781186545 14 694 1328 696
 ?692 697 698 5 689 -0 0 692 697 22 50 695 1354 0 697 699 689 0 +-23.35956114173
91 2.725703475782225 41.07362825372365 0 .707106781186551 .707106781186544 0 -.7
07106781186545 .707106781186551 14 697 1324 700 ?694 701 702 5 695 +0 0 694 701
 22 51 699 1355 0 686 703 695 0 +-23.3595611417391 2.33396631900488 40.681891096
94635 0 .707106781186544 -.707106781186551 .01000000000000156 0 .707106781186551
 .707106781186545 14 686 1315 704 ?701 683 705 5 699 -0 0 701 683 22 50 703 1356
 0 692 706 699 0 +-23.3695611417391 2.33396631900488 40.68189109694635 -1 0 0 0
 0 1 14 692 1332 707 ?688 694 708 5 703 -0 0 688 694 22 50 706 1357 0 701 709 70
3 0 +-23.3495611417391 2.33396631900488 40.68189109694635 -1 0 0 0 0 1 14 701 13
20 710 ?697 686 711 5 706 +691 670 697 686 22 50 709 1358 0 242 712 706 0 +16871
02937727895e-29 2.867124832019555 41.215049609961 0 .707106781186551 .7071067811
86544 0 -.707106781186545 .707106781186551 14 242 1279 713 ?662 228 234 5 709 -0
 0 656 228 22 51 712 1359 0 228 714 709 0 +-23.0395611417391 2.860053764207675 4
1.2079785421491 0 .707106781186544 -.707106781186551 .0100000000000035 0 .707106
781186551 .707106781186545 14 228 1275 715 ?242 659 223 5 712 -0 0 242 659 22 50
 714 1360 0 659 716 712 0 +1687102937727895e-29 2.85298269639582 41.200907474337
25 0 .707106781186551 .707106781186544 0 -.707106781186545 .707106781186551 14 6
59 1271 717 ?228 656 36 5 714 +0 0 228 651 22 51 716 1361 0 656 0 714 0 +-23.359
5611417391 2.86005376420767 41.2079785421491 0 .707106781186544 -.70710678118655
1 .0100000000000035 0 .707106781186551 .707106781186545 14 656 1261 718 ?659 651
 719 5 716 -0 0 662 242 22 81 1 718 2751 616 656 720 0 717 721 722 15 719 1266 0
 169 656 0 17 169 0 719 723 243 167 724 421 0 272 +17 723 0 719 245 169 175 272
 269 0 247 -17 243 0 719 169 245 131 219 244 0 724 -17 724 0 725 235 726 131 169
 421 0 0 -17 272 0 708 166 216 167 723 269 0 726 +15 708 1335 0 166 692 0 17 166
 0 708 214 272 164 726 371 0 727 +17 216 0 708 272 214 175 728 278 0 723 +17 726
 0 725 724 729 167 166 371 0 0 -15 725 956 0 729 18 588 17 729 0 725 726 730 164
 154 385 0 0 -17 730 0 725 729 731 152 142 396 0 0 -17 154 0 705 212 727 152 729
 385 0 293 +15 705 1319 0 154 686 0 17 212 0 705 277 154 210 293 249 0 338 -17 7
27 0 705 154 277 164 214 287 0 729 -17 293 0 672 142 338 152 212 249 0 730 +15 6
72 1306 0 142 667 0 17 142 0 672 182 293 140 730 396 0 732 +17 338 0 672 293 182
 210 733 335 0 251 +17 182 0 672 338 142 180 732 343 0 334 +17 733 0 246 734 251
 180 338 335 0 0 -17 251 0 246 733 728 210 277 274 0 0 -17 728 0 246 251 247 192
 216 278 0 0 -17 277 0 705 727 212 192 251 274 0 728 +17 247 0 246 728 240 175 2
45 238 0 0 -17 245 0 719 243 723 217 247 238 0 240 +17 734 0 246 342 733 176 334
 331 0 0 -17 342 0 246 735 734 207 736 339 0 0 +17 334 0 666 732 178 180 734 331
 0 733 +15 666 1290 0 136 662 0 17 732 0 666 136 334 140 182 343 0 731 -17 178 0
 666 334 136 176 737 318 0 736 +17 136 0 666 178 732 134 731 409 0 737 +17 737 0
 676 145 736 134 178 318 0 408 -17 736 0 676 737 209 176 342 339 0 734 -15 676 1
294 0 209 665 0 17 209 0 676 736 145 207 350 290 0 738 -17 145 0 676 209 737 143
 408 405 0 350 -17 350 0 739 148 738 143 209 290 0 395 +17 738 0 739 350 206 207
 735 286 0 342 -15 739 1310 0 206 670 0 17 206 0 739 738 148 204 354 351 0 321 -
17 735 0 246 740 342 204 738 286 0 0 +16 286 1104 594 ?735 287 285 280 282 285 1
 81 3 594 2752 257 286 0 0 591 741 742 0 0 16 285 1116 741 ?743 286 282 280 286
 282 1 81 3 741 2753 257 285 0 0 594 0 744 0 0 17 743 0 246 307 325 198 745 285
 0 0 +17 307 0 246 746 743 189 747 304 0 0 +17 325 0 246 743 748 201 749 322 0 0
 +17 745 0 711 358 200 201 743 285 0 325 -15 711 1323 0 200 701 0 17 358 0 711 1
60 745 155 203 355 0 384 +17 200 0 711 745 160 198 750 294 0 747 +17 160 0 711 2
00 358 158 384 381 0 750 -17 750 0 702 163 747 158 200 294 0 380 -17 747 0 702 7
50 191 198 307 304 0 743 -15 702 1327 0 191 697 0 17 191 0 702 747 163 189 751 2
79 0 303 +17 163 0 702 191 750 161 380 377 0 751 -17 751 0 698 172 303 161 191 2
79 0 752 -17 303 0 698 751 194 189 746 299 0 307 +15 698 1331 0 172 694 0 17 194
 0 698 303 172 186 753 308 0 298 +17 746 0 246 754 307 186 303 299 0 0 -17 754 0
 246 254 746 195 298 295 0 0 -17 254 0 246 39 754 27 30 282 0 0 +17 298 0 693 75
3 31 186 754 295 0 746 +15 693 1339 0 33 688 0 17 753 0 693 33 298 170 194 308 0
 755 -17 31 0 693 298 33 195 26 32 0 30 +17 33 0 693 31 753 11 755 368 0 367 +17
 30 0 28 26 41 195 254 282 0 754 -15 28 1343 0 41 691 0 17 41 0 28 30 29 27 37 2
66 0 254 -17 29 0 28 41 26 173 367 273 0 37 -17 37 0 36 127 34 173 41 266 0 420
 +15 36 1274 0 38 659 0 17 127 0 36 38 37 125 420 417 0 229 -17 420 0 725 367 23
2 173 127 417 0 0 +17 367 0 725 755 420 11 29 273 0 0 +17 232 0 725 420 235 125
 130 233 0 0 -17 235 0 725 232 724 128 133 412 0 0 -17 133 0 234 219 225 131 235
 412 0 243 +17 755 0 725 752 367 170 33 368 0 0 -17 752 0 725 380 755 161 172 37
4 0 0 -17 380 0 725 384 752 158 163 377 0 0 +17 172 0 698 194 751 170 752 374 0
 753 +17 384 0 725 391 380 155 160 381 0 0 +17 391 0 725 756 384 149 157 388 0 0
 +17 756 0 725 757 391 137 151 399 0 0 -17 157 0 687 203 758 155 391 388 0 358 -
15 687 1314 0 203 683 0 17 203 0 687 749 157 201 358 355 0 745 -17 758 0 687 157
 749 149 185 300 0 391 -17 749 0 687 758 203 183 325 322 0 748 -17 185 0 679 316
 151 183 758 300 0 749 +15 679 1302 0 151 671 0 17 316 0 679 759 185 179 748 313
 0 740 +17 151 0 679 185 759 149 756 399 0 758 +17 759 0 679 151 316 137 188 326
 0 756 -17 188 0 682 321 139 179 759 326 0 316 +15 682 1298 0 139 675 0 17 321 0
 682 354 188 204 740 317 0 735 +17 139 0 682 188 354 137 757 402 0 759 +17 354 0
 682 139 321 146 206 351 0 757 +17 757 0 725 395 756 146 139 402 0 0 -17 395 0 7
25 408 757 143 148 392 0 0 +17 408 0 725 731 395 134 145 405 0 0 +17 148 0 739 2
06 350 146 395 392 0 354 -17 731 0 725 730 408 140 136 409 0 0 -17 740 0 246 748
 735 179 321 317 0 0 -17 748 0 246 325 740 183 316 313 0 0 -17 38 0 36 34 127 22
0 229 237 0 224 +17 229 0 223 130 224 125 38 237 0 232 -14 691 1340 721 ?0 688 2
8 5 706 +670 701 0 688 22 81 1 721 2755 616 691 760 0 718 761 762 14 670 1307 76
1 ?683 667 739 5 706 +701 691 683 667 22 81 1 761 2757 616 670 763 0 721 764 765
 80 7 CCCCCDI12 legal_owners0 16 1 lCZ1 616 766 767 9000 1 1 1 1 1 1 1 1 0 FFFFT
FTFFFFFFFFF1 81 3 763 2756 768 670 769 761 760 770 771 0 0 81 1 764 2759 616 628
 770 0 761 772 773 82 255 1 765 1936130947 14 628 170 764 ?18 582 573 5 629 -599
 582 18 582 22 81 3 770 2758 768 628 774 764 763 775 776 0 0 81 1 772 2761 616 1
8 775 0 764 0 777 82 1 773 1043006335 14 18 90 772 ?634 628 725 5 6 +0 0 634 628
 22 81 3 775 2760 768 18 778 772 770 0 779 0 0 82 1 777 965804931 80 3 768 780 7
81 9000 0 0 0 0 3 5 0 0 0 FFFFTFFFFFFFFFFF1 1 1 81 1 778 2361 782 18 0 775 774 7
83 784 82 6 779 4 -1975886001 31122107 0 653495474 507573652 80 1 782 0 785 8001
 0 0 0 0 3 5 0 0 0 FFFFTFTFFFFFFFFF2 81 1 774 2360 782 628 0 770 786 778 787 81
 1 783 2362 782 634 0 788 778 789 790 83 255 3 784 .792156862745098 .81960784313
7255 .933333333333333 81 3 788 2704 768 634 783 635 791 792 793 0 0 81 1 789 236
3 782 252 0 791 783 794 795 83 3 790 .792156862745098 .819607843137255 .93333333
3333333 81 3 791 2702 768 252 789 632 796 788 797 0 0 81 1 794 2364 782 633 0 79
8 789 799 800 83 3 795 .792156862745098 .819607843137255 .933333333333333 81 3 7
98 2708 768 633 794 640 792 801 802 0 0 81 1 799 2365 782 599 0 792 794 803 804
 83 3 800 .792156862745098 .819607843137255 .933333333333333 81 3 792 2706 768 5
99 799 638 788 798 805 0 0 81 1 803 2366 782 568 0 801 799 806 807 83 3 804 .792
156862745098 .819607843137255 .933333333333333 81 3 801 2710 768 568 803 643 798
 808 809 0 0 81 1 806 2367 782 562 0 808 803 810 811 83 3 807 .792156862745098 .
819607843137255 .933333333333333 81 3 808 2712 768 562 806 644 801 648 812 0 0 8
1 1 810 2368 782 586 0 813 806 814 815 83 3 811 .792156862745098 .81960784313725
5 .933333333333333 81 3 813 2696 768 586 810 621 816 625 817 0 0 81 1 814 2369 7
82 613 0 617 810 818 819 83 3 815 .792156862745098 .819607843137255 .93333333333
3333 81 3 617 2692 768 613 814 614 0 816 820 0 0 81 1 818 2370 782 610 0 816 814
 821 822 83 3 819 .792156862745098 .819607843137255 .933333333333333 81 3 816 26
94 768 610 818 618 617 813 823 0 0 81 1 821 2371 782 608 0 648 818 824 825 83 3
 822 .792156862745098 .819607843137255 .933333333333333 81 3 648 2714 768 608 82
1 646 808 653 826 0 0 81 1 824 2372 782 647 0 653 821 827 828 83 3 825 .79215686
2745098 .819607843137255 .933333333333333 81 3 653 2716 768 647 824 649 648 829
 830 0 0 81 1 827 2373 782 651 0 829 824 831 832 83 3 828 .792156862745098 .8196
07843137255 .933333333333333 81 3 829 2718 768 651 827 654 653 833 834 0 0 81 1
 831 2374 782 656 0 720 827 835 836 83 3 832 .792156862745098 .819607843137255 .
933333333333333 81 3 720 2750 768 656 831 718 837 760 838 0 0 81 1 835 2375 782
 659 0 837 831 839 840 83 3 836 .792156862745098 .819607843137255 .9333333333333
33 81 3 837 2748 768 659 835 717 841 720 842 0 0 81 1 839 2376 782 228 0 841 835
 843 844 83 3 840 .792156862745098 .819607843137255 .933333333333333 81 3 841 27
46 768 228 839 715 845 837 846 0 0 81 1 843 2377 782 242 0 845 839 847 848 83 3
 844 .792156862745098 .819607843137255 .933333333333333 81 3 845 2744 768 242 84
3 713 849 841 850 0 0 81 1 847 2378 782 662 0 833 843 851 852 83 3 848 .79215686
2745098 .819607843137255 .933333333333333 81 3 833 2720 768 662 847 664 829 853
 854 0 0 81 1 851 2379 782 665 0 855 847 856 857 83 3 852 .792156862745098 .8196
07843137255 .933333333333333 81 3 855 2724 768 665 851 674 853 858 859 0 0 81 1
 856 2380 782 675 0 860 851 861 862 83 3 857 .792156862745098 .819607843137255 .
933333333333333 81 3 860 2728 768 675 856 681 858 863 864 0 0 81 1 861 2381 782
 671 0 858 856 865 866 83 3 862 .792156862745098 .819607843137255 .9333333333333
33 81 3 858 2726 768 671 861 678 855 860 867 0 0 81 1 865 2382 782 667 0 853 861
 769 868 83 3 866 .792156862745098 .819607843137255 .933333333333333 81 3 853 27
22 768 667 865 669 833 855 869 0 0 81 1 769 2383 782 670 0 763 865 870 871 83 3
 868 .792156862745098 .819607843137255 .933333333333333 81 1 870 2384 782 683 0
 863 769 872 873 83 3 871 .792156862745098 .819607843137255 .933333333333333 81
 3 863 2730 768 683 870 685 860 874 875 0 0 81 1 872 2385 782 686 0 876 870 877
 878 83 3 873 .792156862745098 .819607843137255 .933333333333333 81 3 876 2738 7
68 686 872 704 879 880 881 0 0 81 1 877 2386 782 701 0 849 872 882 883 83 3 878
 .792156862745098 .819607843137255 .933333333333333 81 3 849 2742 768 701 877 71
0 880 845 884 0 0 81 1 882 2387 782 697 0 879 877 885 886 83 3 883 .792156862745
098 .819607843137255 .933333333333333 81 3 879 2736 768 697 882 700 887 876 888
 0 0 81 1 885 2388 782 694 0 887 882 889 890 83 3 886 .792156862745098 .81960784
3137255 .933333333333333 81 3 887 2734 768 694 885 696 874 879 891 0 0 81 1 889
 2389 782 692 0 880 885 892 893 83 3 890 .792156862745098 .819607843137255 .9333
33333333333 81 3 880 2740 768 692 889 707 876 849 894 0 0 81 1 892 2390 782 688
 0 874 889 895 896 83 3 893 .792156862745098 .819607843137255 .933333333333333 8
1 3 874 2732 768 688 892 690 863 887 897 0 0 81 1 895 2391 782 691 0 760 892 0 8
98 83 3 896 .792156862745098 .819607843137255 .933333333333333 81 3 760 2754 768
 691 895 721 720 763 899 0 0 83 3 898 .792156862745098 .819607843137255 .9333333
33333333 82 6 899 34 -1975715324 31122107 0 653495474 507573652 81 1 690 2733 61
6 688 874 0 685 696 900 82 6 897 33 -1975715324 31122107 0 653495474 507573652 8
1 1 685 2731 616 683 863 0 681 690 901 81 1 696 2735 616 694 887 0 690 700 902 8
2 1 900 1923810179 81 1 700 2737 616 697 879 0 696 704 903 82 1 902 1844315011 8
1 1 704 2739 616 686 876 0 700 707 904 82 1 903 1924793219 81 1 707 2741 616 692
 880 0 704 710 905 82 1 904 1938490243 81 1 710 2743 616 701 849 0 707 713 906 8
2 1 905 1935672195 81 1 713 2745 616 242 845 0 710 715 907 82 1 906 1937965955 8
1 1 715 2747 616 228 841 0 713 717 908 82 1 907 1821770627 81 1 717 2749 616 659
 837 0 715 718 909 82 1 908 1821574019 82 1 909 1954874243 81 1 681 2729 616 675
 860 0 678 685 910 82 1 901 1921057667 81 1 678 2727 616 671 858 0 674 681 911 8
2 1 910 1919091587 81 1 674 2725 616 665 855 0 669 678 912 82 1 911 1856045955 8
1 1 669 2723 616 667 853 0 664 674 913 82 1 912 1916339075 81 1 664 2721 616 662
 833 0 654 669 914 82 1 913 1867318147 81 1 654 2719 616 651 829 0 649 664 915 8
2 1 914 1867449219 82 1 915 1216611201 82 6 894 32 -1975715324 31122107 0 653495
474 507573652 82 6 891 31 -1975715324 31122107 0 653495474 507573652 82 6 888 30
 -1975715324 31122107 0 653495474 507573652 82 6 884 29 -1975715324 31122107 0 6
53495474 507573652 82 6 881 28 -1975715324 31122107 0 653495474 507573652 82 6 8
75 27 -1975715324 31122107 0 653495474 507573652 82 6 869 25 -1975715324 3112210
7 0 653495474 507573652 82 6 867 24 -1975715324 31122107 0 653495474 507573652 8
2 6 864 23 -1975715324 31122107 0 653495474 507573652 82 6 859 22 -1975715324 31
122107 0 653495474 507573652 82 6 854 21 -1975715324 31122107 0 653495474 507573
652 82 6 850 20 -1975715324 31122107 0 653495474 507573652 82 6 846 19 -19757153
24 31122107 0 653495474 507573652 82 6 842 18 -1975715324 31122107 0 653495474 5
07573652 82 6 838 17 -1975715324 31122107 0 653495474 507573652 82 6 834 16 -197
5886001 31122107 0 653495474 507573652 82 6 830 15 -1975886001 31122107 0 653495
474 507573652 82 6 826 14 -1975962259 31122107 0 653495474 507573652 81 1 618 26
95 616 610 816 0 614 621 916 82 6 823 13 -1975962259 31122107 0 653495474 507573
652 81 1 621 2697 616 586 813 0 618 624 917 82 1 916 1009320831 82 1 917 1020658
559 82 6 820 12 -1975962259 31122107 0 653495474 507573652 81 3 625 2698 768 16
 918 624 813 796 919 0 0 82 6 817 11 -1975962259 31122107 0 653495474 507573652
 81 1 918 2358 782 16 0 625 0 786 920 81 3 796 2700 768 582 786 626 625 791 921
 0 0 82 6 919 1 -1975886001 31122107 0 653495474 507573652 81 1 786 2359 782 582
 0 796 918 774 922 81 1 626 2701 616 582 796 0 624 632 923 82 6 921 2 -197596225
9 31122107 0 653495474 507573652 81 1 632 2703 616 252 791 0 626 635 924 82 1 92
3 1044054911 81 1 635 2705 616 634 788 0 632 638 925 82 1 924 965542787 81 1 638
 2707 616 599 792 0 635 640 926 82 1 925 965411709 81 1 640 2709 616 633 798 0 6
38 643 927 82 1 926 964494207 81 1 643 2711 616 568 801 0 640 644 928 82 1 927 9
58858113 81 1 644 2713 616 562 808 0 643 646 929 82 1 928 1020396415 82 1 929 10
20527487 83 3 922 .792156862745098 .819607843137255 .933333333333333 83 3 920 .7
92156862745098 .819607843137255 .933333333333333 82 6 812 10 -1975962259 3112210
7 0 653495474 507573652 82 6 809 9 -1975962259 31122107 0 653495474 507573652 82
 6 805 8 -1975962259 31122107 0 653495474 507573652 82 6 802 7 -1975886001 31122
107 0 653495474 507573652 82 6 797 6 -1975715324 31122107 0 653495474 507573652
 82 6 793 5 -1976053412 31122107 0 653495474 507573652 83 3 787 .792156862745098
 .819607843137255 .933333333333333 79 255 15 785 SDL/TYSA_COLOUR79 18 781 DOWNST
REAM_FACE_ID82 6 776 3 -1975962259 31122107 0 653495474 507573652 15 573 168 0 5
14 628 0 17 514 0 573 548 528 92 930 511 0 0 +17 548 0 573 58 514 89 94 545 0 57
0 +17 528 0 573 514 58 52 572 502 0 0 +17 930 0 588 67 569 52 514 511 0 528 -17
 67 0 588 121 930 51 54 529 0 931 -17 569 0 588 930 563 92 100 476 0 514 -17 121
 0 588 932 67 119 931 498 0 445 +17 54 0 636 572 509 52 67 529 0 930 +17 931 0 6
41 933 441 51 121 498 0 509 -15 641 4 0 931 633 0 17 933 0 641 124 931 55 509 50
6 0 0 -17 441 0 641 931 124 119 934 424 0 0 +17 509 0 636 54 69 51 933 506 0 0 +
15 636 83 0 572 634 0 17 69 0 636 509 572 55 536 533 0 505 -17 572 0 636 69 54 5
6 528 502 0 0 -17 505 0 253 536 448 55 124 501 0 933 +17 448 0 253 505 437 122 9
35 442 0 934 +17 124 0 641 441 933 122 505 501 0 448 -17 437 0 253 448 603 113 4
2 434 0 935 +17 935 0 652 660 934 113 448 442 0 0 -17 934 0 652 935 445 122 441
 424 0 0 -17 445 0 652 934 660 119 932 430 0 441 +17 660 0 652 445 935 116 115 4
38 0 0 -17 932 0 588 428 121 116 445 430 0 660 -17 428 0 588 64 932 110 118 425
 0 602 +17 64 0 588 597 428 62 602 510 0 593 +17 118 0 657 115 112 116 428 425 0
 932 -15 657 749 0 112 651 0 17 115 0 657 42 118 113 660 438 0 437 +17 112 0 657
 118 42 110 433 429 0 428 -17 42 0 657 112 115 35 437 434 0 433 -17 94 0 567 100
 91 92 548 545 0 569 -82 6 771 26 -1975715324 31122107 0 653495474 507573652 79
 14 767 SWEntUnchanged82 1 762 1951925123 80 3 257 768 936 9000 0 0 0 0 3 5 0 0
 0 FFFFFFTFFFFFFFFF1 1 1 82 6 744 112 -2115958195 31122110 0 653495474 507573652
 79 18 936 DOWNSTREAM_EDGE_ID82 6 742 111 -2115958195 31122110 0 653495474 50757
3652 17 214 0 708 216 166 192 727 287 0 277 +82 1 722 1955398531 82 1 655 118449
8561 82 1 650 1009451903 82 1 627 1227752321 82 1 619 1009189759 82 6 595 55 -21
15958195 31122110 0 653495474 507573652 82 6 592 54 -2115958195 31122110 0 65349
5474 507573652 17 106 0 559 464 560 104 563 491 0 564 +82 6 578 50 -2115958195 3
1122110 0 653495474 507573652 82 6 575 51 -2115958195 31122110 0 653495474 50757
3652 81 3 554 2686 257 553 0 0 551 556 937 0 0 82 6 558 36 -2115958195 31122110
 0 653495474 507573652 81 3 551 2685 257 549 0 0 547 554 938 0 0 82 6 937 37 -21
15958195 31122110 0 653495474 507573652 81 3 547 2684 257 545 0 0 543 551 939 0
 0 82 6 938 38 -2115958195 31122110 0 653495474 507573652 81 3 543 2683 257 532
 0 0 541 547 940 0 0 82 6 939 39 -2115958195 31122110 0 653495474 507573652 81 3
 541 2682 257 510 0 0 539 543 941 0 0 82 6 940 40 -2115958195 31122110 0 6534954
74 507573652 81 3 539 2681 257 537 0 0 535 541 942 0 0 82 6 941 44 -2115958195 3
1122110 0 653495474 507573652 81 3 535 2680 257 533 0 0 531 539 943 0 0 82 6 942
 43 -2115958195 31122110 0 653495474 507573652 81 3 531 2679 257 529 0 0 527 535
 944 0 0 82 6 943 42 -2115958195 31122110 0 653495474 507573652 81 3 527 2678 25
7 502 0 0 523 531 945 0 0 82 6 944 41 -2115958195 31122110 0 653495474 507573652
 81 3 523 2677 257 521 0 0 518 527 946 0 0 82 6 945 48 -2115958195 31122110 0 65
3495474 507573652 81 3 518 2676 257 515 0 0 513 523 947 0 0 82 6 946 49 -2115958
195 31122110 0 653495474 507573652 81 3 513 2675 257 511 0 0 508 518 948 0 0 82
 6 947 52 -2115958195 31122110 0 653495474 507573652 81 3 508 2674 257 506 0 0 5
04 513 949 0 0 82 6 948 53 -2115958195 31122110 0 653495474 507573652 81 3 504 2
673 257 501 0 0 500 508 950 0 0 82 6 949 45 -2115958195 31122110 0 653495474 507
573652 81 3 500 2672 257 498 0 0 496 504 951 0 0 82 6 950 46 -2115958195 3112211
0 0 653495474 507573652 81 3 496 2671 257 494 0 0 493 500 952 0 0 82 6 951 47 -2
115958195 31122110 0 653495474 507573652 81 3 493 2670 257 491 0 0 490 496 953 0
 0 82 6 952 56 -2115958195 31122110 0 653495474 507573652 81 3 490 2669 257 488
 0 0 487 493 954 0 0 82 6 953 57 -2115958195 31122110 0 653495474 507573652 81 3
 487 2668 257 485 0 0 484 490 955 0 0 82 6 954 58 -2115958195 31122110 0 6534954
74 507573652 81 3 484 2667 257 482 0 0 481 487 956 0 0 82 6 955 59 -2115958195 3
1122110 0 653495474 507573652 81 3 481 2666 257 479 0 0 478 484 957 0 0 82 6 956
 60 -2115958195 31122110 0 653495474 507573652 81 3 478 2665 257 476 0 0 475 481
 958 0 0 82 6 957 61 -2115958195 31122110 0 653495474 507573652 81 3 475 2664 25
7 473 0 0 472 478 959 0 0 82 6 958 62 -2115958195 31122110 0 653495474 507573652
 81 3 472 2663 257 470 0 0 469 475 960 0 0 82 6 959 63 -2115958195 31122110 0 65
3495474 507573652 81 3 469 2662 257 456 0 0 466 472 961 0 0 82 6 960 64 -2115958
195 31122110 0 653495474 507573652 81 3 466 2661 257 451 0 0 463 469 962 0 0 82
 6 961 65 -2115958195 31122110 0 653495474 507573652 81 3 463 2660 257 461 0 0 4
59 466 963 0 0 82 6 962 69 -2115958195 31122110 0 653495474 507573652 81 3 459 2
659 257 457 0 0 454 463 964 0 0 82 6 963 68 -2115958195 31122110 0 653495474 507
573652 81 3 454 2658 257 452 0 0 450 459 965 0 0 82 6 964 67 -2115958195 3112211
0 0 653495474 507573652 81 3 450 2657 257 438 0 0 447 454 966 0 0 82 6 965 66 -2
115958195 31122110 0 653495474 507573652 81 3 447 2656 257 442 0 0 444 450 967 0
 0 82 6 966 70 -2115958195 31122110 0 653495474 507573652 81 3 444 2655 257 430
 0 0 440 447 968 0 0 82 6 967 75 -2115958195 31122110 0 653495474 507573652 81 3
 440 2654 257 424 0 0 436 444 969 0 0 82 6 968 74 -2115958195 31122110 0 6534954
74 507573652 81 3 436 2653 257 434 0 0 432 440 970 0 0 82 6 969 76 -2115958195 3
1122110 0 653495474 507573652 81 3 432 2652 257 429 0 0 427 436 971 0 0 82 6 970
 71 -2115958195 31122110 0 653495474 507573652 81 3 427 2651 257 425 0 0 423 432
 972 0 0 82 6 971 72 -2115958195 31122110 0 653495474 507573652 81 3 423 2650 25
7 421 0 0 419 427 973 0 0 82 6 972 73 -2115958195 31122110 0 653495474 507573652
 81 3 419 2649 257 417 0 0 416 423 974 0 0 82 6 973 77 -2115958195 31122110 0 65
3495474 507573652 81 3 416 2648 257 233 0 0 414 419 975 0 0 82 6 974 78 -2115958
195 31122110 0 653495474 507573652 81 3 414 2647 257 412 0 0 411 416 976 0 0 82
 6 975 79 -2115958195 31122110 0 653495474 507573652 81 3 411 2646 257 409 0 0 4
07 414 977 0 0 82 6 976 80 -2115958195 31122110 0 653495474 507573652 81 3 407 2
645 257 405 0 0 404 411 978 0 0 82 6 977 81 -2115958195 31122110 0 653495474 507
573652 81 3 404 2644 257 402 0 0 401 407 979 0 0 82 6 978 82 -2115958195 3112211
0 0 653495474 507573652 81 3 401 2643 257 399 0 0 398 404 980 0 0 82 6 979 83 -2
115958195 31122110 0 653495474 507573652 81 3 398 2642 257 396 0 0 394 401 981 0
 0 82 6 980 84 -2115958195 31122110 0 653495474 507573652 81 3 394 2641 257 392
 0 0 390 398 982 0 0 82 6 981 85 -2115958195 31122110 0 653495474 507573652 81 3
 390 2640 257 388 0 0 387 394 983 0 0 82 6 982 86 -2115958195 31122110 0 6534954
74 507573652 81 3 387 2639 257 385 0 0 383 390 984 0 0 82 6 983 87 -2115958195 3
1122110 0 653495474 507573652 81 3 383 2638 257 381 0 0 379 387 985 0 0 82 6 984
 88 -2115958195 31122110 0 653495474 507573652 81 3 379 2637 257 377 0 0 376 383
 986 0 0 82 6 985 89 -2115958195 31122110 0 653495474 507573652 81 3 376 2636 25
7 374 0 0 373 379 987 0 0 82 6 986 90 -2115958195 31122110 0 653495474 507573652
 81 3 373 2635 257 371 0 0 370 376 988 0 0 82 6 987 91 -2115958195 31122110 0 65
3495474 507573652 81 3 370 2634 257 368 0 0 366 373 989 0 0 82 6 988 92 -2115958
195 31122110 0 653495474 507573652 81 3 366 2633 257 273 0 0 364 370 990 0 0 82
 6 989 93 -2115958195 31122110 0 653495474 507573652 81 3 364 2632 257 266 0 0 3
62 366 991 0 0 82 6 990 94 -2115958195 31122110 0 653495474 507573652 81 3 362 2
631 257 294 0 0 360 364 992 0 0 82 6 991 96 -2115958195 31122110 0 653495474 507
573652 81 3 360 2630 257 32 0 0 357 362 993 0 0 82 6 992 105 -2115958195 3112211
0 0 653495474 507573652 81 3 357 2629 257 355 0 0 353 360 994 0 0 82 6 993 106 -
2115958195 31122110 0 653495474 507573652 81 3 353 2628 257 351 0 0 349 357 995
 0 0 82 6 994 107 -2115958195 31122110 0 653495474 507573652 81 3 349 2627 257 2
90 0 0 347 353 996 0 0 82 6 995 108 -2115958195 31122110 0 653495474 507573652 8
1 3 347 2626 257 343 0 0 345 349 997 0 0 82 6 996 109 -2115958195 31122110 0 653
495474 507573652 81 3 345 2625 257 318 0 0 341 347 998 0 0 82 6 997 127 -2115958
195 31122110 0 653495474 507573652 81 3 341 2624 257 339 0 0 337 345 999 0 0 82
 6 998 126 -2115958195 31122110 0 653495474 507573652 81 3 337 2623 257 335 0 0
 333 341 1000 0 0 82 6 999 128 -2115958195 31122110 0 653495474 507573652 81 3 3
33 2622 257 331 0 0 330 337 1001 0 0 82 6 1000 129 -2115958195 31122110 0 653495
474 507573652 81 3 330 2621 257 326 0 0 328 333 1002 0 0 82 6 1001 130 -21159581
95 31122110 0 653495474 507573652 81 3 328 2620 257 300 0 0 324 330 1003 0 0 82
 6 1002 122 -2115958195 31122110 0 653495474 507573652 81 3 324 2619 257 322 0 0
 320 328 1004 0 0 82 6 1003 121 -2115958195 31122110 0 653495474 507573652 81 3
 320 2618 257 317 0 0 315 324 1005 0 0 82 6 1004 123 -2115958195 31122110 0 6534
95474 507573652 81 3 315 2617 257 313 0 0 312 320 1006 0 0 82 6 1005 124 -211595
8195 31122110 0 653495474 507573652 81 3 312 2616 257 308 0 0 310 315 1007 0 0 8
2 6 1006 125 -2115958195 31122110 0 653495474 507573652 81 3 310 2615 257 279 0
 0 306 312 1008 0 0 82 6 1007 117 -2115958195 31122110 0 653495474 507573652 81
 3 306 2614 257 304 0 0 302 310 1009 0 0 82 6 1008 116 -2115958195 31122110 0 65
3495474 507573652 81 3 302 2613 257 299 0 0 297 306 1010 0 0 82 6 1009 118 -2115
958195 31122110 0 653495474 507573652 81 3 297 2612 257 295 0 0 292 302 1011 0 0
 82 6 1010 119 -2115958195 31122110 0 653495474 507573652 81 3 292 2611 257 249
 0 0 289 297 1012 0 0 82 6 1011 120 -2115958195 31122110 0 653495474 507573652 8
1 3 289 2610 257 287 0 0 284 292 1013 0 0 82 6 1012 104 -2115958195 31122110 0 6
53495474 507573652 81 3 284 2609 257 282 0 0 281 289 1014 0 0 82 6 1013 110 -211
5958195 31122110 0 653495474 507573652 81 3 281 2608 257 278 0 0 276 284 1015 0
 0 82 6 1014 113 -2115958195 31122110 0 653495474 507573652 81 3 276 2607 257 27
4 0 0 271 281 1016 0 0 82 6 1015 114 -2115958195 31122110 0 653495474 507573652
 81 3 271 2606 257 269 0 0 267 276 1017 0 0 82 6 1016 115 -2115958195 31122110 0
 653495474 507573652 81 3 267 2605 257 237 0 0 265 271 1018 0 0 82 6 1017 95 -21
15958195 31122110 0 653495474 507573652 81 3 265 2604 257 244 0 0 263 267 1019 0
 0 82 6 1018 98 -2115958195 31122110 0 653495474 507573652 81 3 263 2603 257 238
 0 0 258 265 1020 0 0 82 6 1019 97 -2115958195 31122110 0 653495474 507573652 81
 3 258 2602 257 40 0 0 255 263 1021 0 0 82 6 1020 100 -2115958195 31122110 0 653
495474 507573652 82 6 1021 101 -2115958195 31122110 0 653495474 507573652 81 3 2
48 2600 257 241 0 0 236 255 1022 0 0 82 6 259 102 -2115958195 31122110 0 6534954
74 507573652 81 3 236 2599 257 226 0 0 23 248 1023 0 0 82 6 1022 103 -2115958195
 31122110 0 653495474 507573652 81 3 23 2598 257 10 0 0 0 236 1024 0 0 82 6 1023
 99 -2115958195 31122110 0 653495474 507573652 82 6 1024 35 -2115958195 31122110
 0 653495474 507573652 19 17 100 0 1 0 9 5 0 S0 74 4 CI16 index_map_offset0 0 1
 dCCZ20 15 12 0 0 775 772 1025 1026 1027 1028 1029 1030 741 13 895 2 0 0 0 0 0 0
 0 0 81 5 1025 693 1031 1 0 1026 0 0 1032 0 0 0 0 81 2 1026 790 1033 1 1025 1027
 0 0 0 1034 81 2 1027 799 1035 1 1026 1028 0 0 0 1036 81 2 1028 800 1037 1 1027
 1029 0 0 1038 0 81 2 1029 1667 1039 1 1028 1030 0 0 0 0 81 2 1030 1703 1040 1 1
029 13 0 0 1041 0 81 2 13 2322 1042 1 1030 2 0 0 0 1043 80 2 1042 1044 1045 9000
 0 0 0 0 3 5 0 0 0 FFTFFFFFFFFFFFFF9 1 82 1 1043 1 79 24 1045 BODY_IN_LIGHTWEIGH
T_PERM80 2 1040 1046 1047 8004 0 0 0 0 3 5 0 0 0 FFTFFFFFFFFFFFFF2 3 83 1 1041 1
 79 16 1047 SDL/TYSA_DENSITY80 2 1039 1048 1049 9000 0 0 0 0 3 5 0 0 0 FFTFFFFFF
FFFFFFF9 1 79 16 1049 BODY_RECIPE_200180 2 1037 1050 1051 9000 0 0 0 0 3 5 0 0 0
 FFTFTTTFFTFFFFFF3 3 84 255 12 1038 Cut-Extrude279 21 1051 SWIMPLICITBODYNAME_ID
80 2 1035 1052 1053 9000 0 0 0 0 3 5 0 0 0 FFTFFFFFFFFFFFFF9 1 82 1 1036 151 79
 30 1053 LAST_BODY_MODIFYING_FEATURE_ID80 2 1033 1054 1055 9000 0 0 0 0 3 5 0 0
 0 FFTFFFFFFFFFFTFF9 1 82 1 1034 664 79 19 1055 ENT_TIME_STAMP_200180 5 1031 105
6 1057 9000 0 0 0 0 3 6 0 0 0 FFTTTTTTFTTFTTFF2 2 2 2 2 83 1 1032 1 79 19 1057 B
ODY_SCALING_FACTOR80 2 12 1058 1059 9000 0 0 0 0 3 5 0 0 0 FFTFFFFFFFFFFFFF9 1 8
2 1 14 105 79 12 1059 ATOM_ID_20011 0 
