**ABCDEFGHIJKLMNOPQRSTUVWXYZabcdefghijklmnopqrstuvwxyz**************************
**PARASOLID !"#$%&'()*+,-./:;<=>?@[\]^_`{|}~0123456789**************************
**PART1;
MC=AMD64;
MC_MODEL=Intel64 Family 6 Model 140 Stepping 1, GenuineIntel;
MC_ID=unknown;
OS=Windows_NT;
OS_RELEASE=unknown;
FRU=Parasolid Version 34.1, build 247, 10- 7-2022;
APPL=SOLIDWORKS 2023-2023010;
SITE=;
USER=unknown;
FORMAT=text;
GUISE=transmit;
KEY=ConjuntoCalandras_AntesMontagem_Parasolid;
FILE=ConjuntoCalandras_AntesMontagem_Parasolid.x_t;
DATE=Tue May 14 13:02:48 2024;
**PART2;
SCH=SCH_3401247_34101;
USFLD_SIZE=0;
**PART3;
**END_OF_HEADER*****************************************************************
T51 : TRANSMIT FILE created by modeller version 340124723 SCH_3401247_34101_1300
6231 0 10 21 CCCCI7 lattice222 0 CCCI4 mesh1006 0 I8 polyline1008 0 CCCCCCCCCCA1
6 mesh_offset_data206 0 Z1 9 2 3 0 0 0 0 0 0 0 0 1e3 1e-8 0 0 0 1 0 1 4 0 81 255
 1 2 9 5 1 0 0 0 0 0 70 11 CI9 list_type0 0 1 uI10 notransmit0 0 1 lCCCDCCDI12 f
inger_index0 0 1 dI12 finger_block1012 0 CZ3 0 4 T1 0 0 1 20 1 6 6 11 255 4 7 0
 1 7 8 1 9 0 0 0 12 36 CCCI7 lattice222 0 CCCI4 mesh1006 0 I8 polyline1008 0 CCC
CCCCDI5 owner1040 0 CCCI16 boundary_lattice222 0 CCCI13 boundary_mesh1006 0 I17
 boundary_polyline1008 0 CCCA16 index_map_offset0 0 1 dA9 index_map82 0 A17 node
_id_index_map82 0 A20 schema_embedding_map82 0 A5 child12 0 A14 lowest_node_id0
 0 1 dA16 mesh_offset_data206 0 Z7 206 10 11 0 0 0 0 0 0 0 1e3 1e-8 4 12 0 1 0 1
 1 13 0 14 15 0 0 0 16 17 0 0 0 0 0 0 0 0 100 10 CCCCCCCCCA9 precision229 0 Z8 8
 4 0 0 1 0 0 0 1 0 0 0 1 0 0 0 1 0 ?0 11 9 5 0 1 12 18 1 19 4 0 0 12 12 262 20 2
1 0 0 0 0 0 0 0 1e3 1e-8 9 22 7 1 0 1 1 23 0 24 25 0 0 0 26 27 0 0 0 0 0 0 0 0 1
00 18 6 9 0 0 1 0 0 0 1 0 0 0 1 0 0 0 1 0 ?0 11 19 3 0 1 22 28 1 29 9 0 0 12 22
 262 30 31 0 0 0 0 0 0 0 1e3 1e-8 19 32 12 1 0 1 1 33 0 34 35 0 0 0 36 37 0 0 0
 0 0 0 0 0 100 28 4 19 0 0 1 0 0 0 1 0 0 0 1 0 0 0 1 0 ?0 11 29 1 0 1 32 38 1 0
 19 0 0 12 32 286 39 40 0 0 0 0 0 0 0 1e3 1e-8 29 41 22 1 0 1 1 42 0 43 44 0 0 0
 45 46 0 0 0 0 0 0 0 0 100 38 2 29 0 0 1 0 0 0 1 0 0 0 1 0 0 0 1 0 ?0 81 1 39 28
6 5 32 47 0 0 0 48 70 40 0 4 T32 0 0 4 20 1 49 49 13 255 42 59 0 32 0 50 0 0 51
 0 50 255 43 55 0 50 52 0 0 +-.3513730569948185 -.4 0 277555756156289e-30 -1 0 0
 0 1 31 255 44 29 0 46 53 0 0 +.638626943005181 -.4 0 0 1 0 0 0 1 .03 19 9 CCCCC
CI5 frame230 0 CA5 owner12 0 Z45 60 0 32 51 0 54 0 V0 16 255 46 17 0 ?55 0 56 44
 0 0 32 17 255 55 0 57 55 55 0 58 46 0 0 +16 56 13 0 ?59 46 60 53 0 0 32 17 59 0
 61 59 59 0 62 56 0 0 +16 60 9 0 ?63 56 64 65 0 0 32 31 53 28 0 56 65 44 0 +.638
626943005181 0 0 0 1 0 0 0 1 .03 31 65 27 0 60 66 53 0 +-.3513730569948185 0 0 2
77555756156289e-30 -1 0 0 0 1 .03 31 66 26 0 64 67 65 0 +-.3513730569948185 -.4
 0 277555756156289e-30 -1 0 0 0 1 .03 16 64 6 0 ?68 60 69 66 0 0 32 31 67 116 0
 69 70 66 0 +.638626943005181 -.4 0 0 1 0 0 0 1 .027 16 69 85 0 ?71 64 72 67 0 0
 32 31 70 117 0 73 74 67 0 +-.3513730569948185 -.4 0 277555756156289e-30 -1 0 1
 277555756156289e-30 0 .027 16 73 81 0 ?75 76 0 70 0 0 32 31 74 118 0 72 77 70 0
 +.638626943005181 60620016557794e-30 0 -1224646799147352e-31 1 0 -1 -1224646799
147352e-31 0 .027 16 72 84 0 ?78 69 76 74 0 0 32 31 77 119 0 76 0 74 0 --.351373
0569948185 0 0 -277555756156289e-30 1 0 -1 -277555756156289e-30 0 .027 16 76 83
 0 ?79 72 73 77 0 0 32 17 79 0 80 79 79 0 81 76 0 0 +15 255 80 102 0 79 82 0 17
 81 0 83 81 81 0 79 76 0 0 -15 83 95 0 81 84 85 14 255 84 91 86 ?82 87 83 42 88
 +0 0 0 82 54 15 85 96 0 75 84 0 17 75 0 85 75 75 0 89 73 0 0 +17 89 0 90 89 89
 0 75 73 0 0 -15 90 78 0 89 50 91 14 50 49 92 ?93 0 90 42 43 +0 0 94 93 54 15 91
 51 0 68 50 0 17 68 0 91 68 68 0 95 64 0 0 +17 95 0 96 95 95 0 68 64 0 0 -15 96
 7 0 95 97 0 14 97 2 98 ?99 93 100 42 101 -0 0 93 99 54 81 1 98 280 102 97 103 0
 104 105 106 14 99 12 105 ?87 97 61 42 107 -0 0 97 87 54 14 93 36 104 ?97 50 108
 42 52 -0 0 50 97 54 15 100 10 0 63 97 96 51 255 101 23 0 97 109 107 0 --.351373
0569948185 -.4 0 -277555756156289e-30 1 0 .03 -1 -277555756156289e-30 0 13 54 3
 0 0 0 0 0 0 45 87 14 87 16 110 ?84 99 57 42 111 -0 0 99 0 54 81 1 110 282 102 8
7 112 0 105 86 113 15 57 18 0 55 87 114 51 111 25 0 87 107 52 0 -.63862694300518
1 555111512312578e-31 0 0 -1 0 .03 0 0 -1 54 255 107 24 0 99 101 111 0 -.1436269
430051812 0 0 0 0 -1 .495 .03 -1 0 0 50 52 42 0 93 111 43 0 +.638626943005181 -.
4 0 0 1 0 0 0 1 15 114 15 0 62 87 0 17 62 0 114 62 62 0 59 56 0 0 -80 7 CCCCCDI1
2 legal_owners0 16 1 lCZ1 102 0 115 8001 0 0 0 0 3 5 0 0 0 FFFFTFTFFFFFFFFF2 81
 1 112 269 116 87 0 110 117 118 119 81 1 105 281 102 99 120 0 98 110 121 81 1 86
 283 102 84 122 0 110 123 124 83 255 3 113 .792156862745098 .819607843137255 .93
3333333333333 81 1 122 254 116 84 0 86 0 125 126 81 1 123 284 102 82 118 0 86 12
7 128 83 3 124 .792156862745098 .819607843137255 .933333333333333 14 82 97 123 ?
94 84 129 42 130 +0 0 84 94 54 81 1 118 272 116 82 0 123 112 131 132 81 1 127 28
5 102 94 131 0 123 0 133 83 3 128 .792156862745098 .819607843137255 .93333333333
3333 14 94 103 127 ?0 82 134 42 109 +0 0 82 50 54 81 1 131 275 116 94 0 127 118
 0 135 83 3 133 .792156862745098 .819607843137255 .933333333333333 80 1 116 136
 137 9000 1 1 1 1 1 1 1 1 0 FFFFTFTFFFFFFFFF1 82 255 1 135 235602033 79 255 14 1
37 SWEntUnchanged15 134 107 0 138 94 139 51 109 111 0 94 130 101 0 -.63862694300
5181 555111512312578e-31 0 0 -1 0 .027 0 0 -1 54 130 112 0 82 88 109 0 -.1436269
430051812 0 0 0 0 -1 .495 .027 -1 0 0 51 88 113 0 84 0 130 0 --.3513730569948185
 -.4 0 -277555756156289e-30 1 0 .027 -1 -277555756156289e-30 0 17 138 0 134 138
 138 0 71 69 0 0 -15 139 108 0 78 94 0 17 78 0 139 78 78 0 140 72 0 0 +17 140 0
 129 140 140 0 78 72 0 0 -15 129 101 0 140 82 80 17 71 0 108 71 71 0 138 69 0 0
 +15 108 73 0 71 93 141 15 141 38 0 58 93 0 17 58 0 141 58 58 0 55 46 0 0 -82 1
 132 235274353 81 1 125 257 116 50 0 92 122 103 142 82 1 126 235143281 81 1 92 2
78 102 50 125 0 0 104 143 81 1 103 260 116 97 0 98 125 120 144 82 1 142 23003147
3 81 1 120 263 116 99 0 105 103 117 145 82 1 144 226885745 81 1 117 266 116 93 0
 104 120 112 146 82 1 145 227606641 81 1 104 279 102 93 117 0 92 98 147 82 1 146
 230883441 83 3 147 .792156862745098 .819607843137255 .933333333333333 83 3 143
 .792156862745098 .819607843137255 .933333333333333 83 3 121 .792156862745098 .8
19607843137255 .933333333333333 82 1 119 227999857 79 15 115 SDL/TYSA_COLOUR17 6
3 0 100 63 63 0 148 60 0 0 +17 148 0 149 148 148 0 63 60 0 0 -15 149 11 0 148 99
 0 15 61 14 0 59 99 149 83 3 106 .792156862745098 .819607843137255 .933333333333
333 19 51 5 0 32 0 45 42 0 S0 74 4 CI16 index_map_offset0 0 1 dCCZ20 49 4 0 0 47
 131 127 39 0 0 0 0 0 0 0 0 0 0 0 0 0 0 0 0 81 2 47 152 150 32 0 39 0 0 151 0 80
 2 150 152 153 9000 0 0 0 0 3 5 0 0 0 FFTFTTTFFTFFFFFF3 3 84 255 11 151 Sweep-Th
in179 21 153 SWIMPLICITBODYNAME_ID80 1 5 154 155 8017 0 0 0 0 0 0 0 0 0 TTTTTTTT
TTTTTFTF3 84 76 48 LinhaConexao_Liquido-Rosa-com-AltaP-Vermelha^ConjuntoCalandra
s_AntesMontagem79 13 155 SDL/TYSA_NAME81 1 30 262 5 22 156 0 0 0 157 70 31 0 4 T
22 0 0 4 20 1 158 158 13 33 59 0 22 0 159 0 0 160 0 50 34 55 0 159 161 0 0 +.983
223953962696 -.4 0 0 -1 0 0 0 1 31 35 29 0 37 162 0 0 +2.353223953962695 -.4 0 0
 1 0 0 0 1 .03 19 36 60 0 22 160 0 163 0 V0 16 37 17 0 ?164 0 165 35 0 0 22 17 1
64 0 166 164 164 0 167 37 0 0 +16 165 13 0 ?168 37 169 162 0 0 22 17 168 0 170 1
68 168 0 171 165 0 0 +16 169 9 0 ?172 165 173 174 0 0 22 31 162 28 0 165 174 35
 0 +2.353223953962695 -333066907387547e-30 0 0 1 0 0 0 1 .03 31 174 27 0 169 175
 162 0 +.983223953962696 0 0 0 -1 0 0 0 1 .03 31 175 26 0 173 176 174 0 +.983223
953962696 -.4 0 0 -1 0 0 0 1 .03 16 173 6 0 ?177 169 178 175 0 0 22 31 176 116 0
 178 179 175 0 +2.353223953962695 -.4 0 0 1 0 0 0 1 .027 16 178 85 0 ?180 173 18
1 176 0 0 22 31 179 117 0 182 183 176 0 +.983223953962696 -.4 0 0 -1 0 0 0 -1 .0
27 16 182 81 0 ?184 185 0 179 0 0 22 31 183 118 0 181 186 179 0 +2.3532239539626
95 -3152800055949245e-31 0 3216245299353275e-31 1 0 -1 3216245299353275e-31 0 .0
27 16 181 84 0 ?187 178 185 183 0 0 22 31 186 119 0 185 0 183 0 -.98322395396269
6 0 0 0 1 0 0 0 1 .027 16 185 83 0 ?188 181 182 186 0 0 22 17 188 0 189 188 188
 0 190 185 0 0 +15 189 102 0 188 191 0 17 190 0 192 190 190 0 188 185 0 0 -15 19
2 95 0 190 193 194 14 193 91 195 ?191 196 192 33 197 +0 0 0 191 163 15 194 96 0
 184 193 0 17 184 0 194 184 184 0 198 182 0 0 +17 198 0 199 198 198 0 184 182 0
 0 -15 199 78 0 198 159 200 14 159 49 201 ?202 0 199 33 34 +0 0 203 202 163 15 2
00 51 0 177 159 0 17 177 0 200 177 177 0 204 173 0 0 +17 204 0 205 204 204 0 177
 173 0 0 -15 205 7 0 204 206 0 14 206 2 207 ?208 202 209 33 210 -0 0 202 208 163
 81 1 207 256 102 206 211 0 212 213 214 14 208 12 213 ?196 206 170 33 215 -0 0 2
06 196 163 14 202 36 212 ?206 159 216 33 161 -0 0 159 206 163 15 209 10 0 172 20
6 205 51 210 23 0 206 217 215 0 -.983223953962696 -.4 0 0 1 0 .03 0 0 1 13 163 3
 0 0 0 0 0 0 36 196 14 196 16 218 ?193 208 166 33 219 -0 0 208 0 163 81 1 218 25
8 102 196 220 0 213 195 221 15 166 18 0 164 196 222 51 219 25 0 196 215 161 0 -2
.353223953962695 0 0 0 -1 0 .03 0 0 -1 54 215 24 0 208 210 219 0 -1.668223953962
695 -949672025892251e-31 0 0 0 -1 .685 .03 -1 0 0 50 161 42 0 202 219 34 0 +2.35
3223953962695 -.4 0 0 1 0 0 0 1 15 222 15 0 171 196 0 17 171 0 222 171 171 0 168
 165 0 0 -81 1 220 245 116 196 0 218 223 224 225 81 1 213 257 102 208 226 0 207
 218 227 81 1 195 259 102 193 228 0 218 229 230 83 3 221 .792156862745098 .81960
7843137255 .933333333333333 81 1 228 230 116 193 0 195 0 231 232 81 1 229 260 10
2 191 224 0 195 233 234 83 3 230 .792156862745098 .819607843137255 .933333333333
333 14 191 97 229 ?203 193 235 33 236 +0 0 193 203 163 81 1 224 248 116 191 0 22
9 220 237 238 81 1 233 261 102 203 237 0 229 0 239 83 3 234 .792156862745098 .81
9607843137255 .933333333333333 14 203 103 233 ?0 191 240 33 217 +0 0 191 159 163
 81 1 237 251 116 203 0 233 224 0 241 83 3 239 .792156862745098 .819607843137255
 .933333333333333 82 1 241 -1081933720 15 240 107 0 242 203 243 51 217 111 0 203
 236 210 0 -2.353223953962695 0 0 0 -1 0 .027 0 0 -1 54 236 112 0 191 197 217 0
 -1.668223953962695 -949672025892251e-31 0 0 0 -1 .685 .027 -1 0 0 51 197 113 0
 193 0 236 0 -.983223953962696 -.4 0 0 1 0 .027 0 0 1 17 242 0 240 242 242 0 180
 178 0 0 -15 243 108 0 187 203 0 17 187 0 243 187 187 0 244 181 0 0 +17 244 0 23
5 244 244 0 187 181 0 0 -15 235 101 0 244 191 189 17 180 0 216 180 180 0 242 178
 0 0 +15 216 73 0 180 202 245 15 245 38 0 167 202 0 17 167 0 245 167 167 0 164 3
7 0 0 -82 1 238 -1082261400 81 1 231 233 116 159 0 201 228 211 246 82 1 232 -108
2392472 81 1 201 254 102 159 231 0 0 212 247 81 1 211 236 116 206 0 207 231 226
 248 82 1 246 -1087504280 81 1 226 239 116 208 0 213 211 223 249 82 1 248 -10906
50008 81 1 223 242 116 202 0 212 226 220 250 82 1 249 -1089929112 81 1 212 255 1
02 202 223 0 201 207 251 82 1 250 -1086652312 83 3 251 .792156862745098 .8196078
43137255 .933333333333333 83 3 247 .792156862745098 .819607843137255 .9333333333
33333 83 3 227 .792156862745098 .819607843137255 .933333333333333 82 1 225 -1089
535896 17 172 0 209 172 172 0 252 169 0 0 +17 252 0 253 252 252 0 172 169 0 0 -1
5 253 11 0 252 208 0 15 170 14 0 168 208 253 83 3 214 .792156862745098 .81960784
3137255 .933333333333333 19 160 5 0 22 0 36 33 0 S0 74 20 158 4 0 0 156 237 233
 30 0 0 0 0 0 0 0 0 0 0 0 0 0 0 0 0 81 2 156 152 150 22 0 30 0 0 254 0 84 11 254
 Sweep-Thin184 51 157 LinhaBaixaP-Laranja^ConjuntoCalandras_AntesMontagem81 1 20
 262 5 12 255 0 0 0 256 70 21 0 4 T12 0 0 4 20 1 257 257 13 23 59 0 12 0 258 0 0
 259 0 50 24 55 0 258 260 0 0 +2.801832513650885 -.4 0 0 -1 0 0 0 1 31 25 29 0 2
7 261 0 0 +3.971832513650885 -.4 0 0 1 0 0 0 1 .03 19 26 60 0 12 259 0 262 0 V0
 16 27 17 0 ?263 0 264 25 0 0 12 17 263 0 265 263 263 0 266 27 0 0 +16 264 13 0
 ?267 27 268 261 0 0 12 17 267 0 269 267 267 0 270 264 0 0 +16 268 9 0 ?271 264
 272 273 0 0 12 31 261 28 0 264 273 25 0 +3.971832513650885 -4440892098500625e-3
1 0 0 1 0 0 0 1 .03 31 273 27 0 268 274 261 0 +2.801832513650885 0 0 0 -1 0 0 0
 1 .03 31 274 26 0 272 275 273 0 +2.801832513650885 -.4 0 0 -1 0 0 0 1 .03 16 27
2 6 0 ?276 268 277 274 0 0 12 31 275 116 0 277 278 274 0 +3.971832513650885 -.4
 0 0 1 0 0 0 1 .027 16 277 85 0 ?279 272 280 275 0 0 12 31 278 117 0 281 282 275
 0 +2.801832513650885 -.4 0 0 -1 0 0 0 -1 .027 16 281 81 0 ?283 284 0 278 0 0 12
 31 282 118 0 280 285 278 0 +3.971832513650885 -1881503500121665e-31 0 321624529
9353275e-31 1 0 -1 3216245299353275e-31 0 .027 16 280 84 0 ?286 277 284 282 0 0
 12 31 285 119 0 284 0 282 0 -2.801832513650885 0 0 0 1 0 0 0 1 .027 16 284 83 0
 ?287 280 281 285 0 0 12 17 287 0 288 287 287 0 289 284 0 0 +15 288 102 0 287 29
0 0 17 289 0 291 289 289 0 287 284 0 0 -15 291 95 0 289 292 293 14 292 91 294 ?2
90 295 291 23 296 +0 0 0 290 262 15 293 96 0 283 292 0 17 283 0 293 283 283 0 29
7 281 0 0 +17 297 0 298 297 297 0 283 281 0 0 -15 298 78 0 297 258 299 14 258 49
 300 ?301 0 298 23 24 +0 0 302 301 262 15 299 51 0 276 258 0 17 276 0 299 276 27
6 0 303 272 0 0 +17 303 0 304 303 303 0 276 272 0 0 -15 304 7 0 303 305 0 14 305
 2 306 ?307 301 308 23 309 -0 0 301 307 262 81 1 306 256 102 305 310 0 311 312 3
13 14 307 12 312 ?295 305 269 23 314 -0 0 305 295 262 14 301 36 311 ?305 258 315
 23 260 -0 0 258 305 262 15 308 10 0 271 305 304 51 309 23 0 305 316 314 0 -2.80
1832513650885 -.4 0 0 1 0 .03 0 0 1 13 262 3 0 0 0 0 0 0 26 295 14 295 16 317 ?2
92 307 265 23 318 -0 0 307 0 262 81 1 317 258 102 295 319 0 312 294 320 15 265 1
8 0 263 295 321 51 318 25 0 295 314 260 0 -3.971832513650885 555111512312578e-31
 0 0 -1 0 .03 0 0 -1 54 314 24 0 307 309 318 0 -3.386832513650885 0 0 0 0 -1 .58
5 .03 -1 0 0 50 260 42 0 301 318 24 0 +3.971832513650885 -.4 0 0 1 0 0 0 1 15 32
1 15 0 270 295 0 17 270 0 321 270 270 0 267 264 0 0 -81 1 319 245 116 295 0 317
 322 323 324 81 1 312 257 102 307 325 0 306 317 326 81 1 294 259 102 292 327 0 3
17 328 329 83 3 320 .792156862745098 .819607843137255 .933333333333333 81 1 327
 230 116 292 0 294 0 330 331 81 1 328 260 102 290 323 0 294 332 333 83 3 329 .79
2156862745098 .819607843137255 .933333333333333 14 290 97 328 ?302 292 334 23 33
5 +0 0 292 302 262 81 1 323 248 116 290 0 328 319 336 337 81 1 332 261 102 302 3
36 0 328 0 338 83 3 333 .792156862745098 .819607843137255 .933333333333333 14 30
2 103 332 ?0 290 339 23 316 +0 0 290 258 262 81 1 336 251 116 302 0 332 323 0 34
0 83 3 338 .792156862745098 .819607843137255 .933333333333333 82 1 340 -96606607
2 15 339 107 0 341 302 342 51 316 111 0 302 335 309 0 -3.971832513650885 5551115
12312578e-31 0 0 -1 0 .027 0 0 -1 54 335 112 0 290 296 316 0 -3.386832513650885
 0 0 0 0 -1 .585 .027 -1 0 0 51 296 113 0 292 0 335 0 -2.801832513650885 -.4 0 0
 1 0 .027 0 0 1 17 341 0 339 341 341 0 279 277 0 0 -15 342 108 0 286 302 0 17 28
6 0 342 286 286 0 343 280 0 0 +17 343 0 334 343 343 0 286 280 0 0 -15 334 101 0
 343 290 288 17 279 0 315 279 279 0 341 277 0 0 +15 315 73 0 279 301 344 15 344
 38 0 266 301 0 17 266 0 344 266 266 0 263 27 0 0 -82 1 337 -966393752 81 1 330
 233 116 258 0 300 327 310 345 82 1 331 -966524824 81 1 300 254 102 258 330 0 0
 311 346 81 1 310 236 116 305 0 306 330 325 347 82 1 345 -971636632 81 1 325 239
 116 307 0 312 310 322 348 82 1 347 -974782360 81 1 322 242 116 301 0 311 325 31
9 349 82 1 348 -974061464 81 1 311 255 102 301 322 0 300 306 350 82 1 349 -97078
4664 83 3 350 .792156862745098 .819607843137255 .933333333333333 83 3 346 .79215
6862745098 .819607843137255 .933333333333333 83 3 326 .792156862745098 .81960784
3137255 .933333333333333 82 1 324 -973668248 17 271 0 308 271 271 0 351 268 0 0
 +17 351 0 352 351 351 0 271 268 0 0 -15 352 11 0 351 307 0 15 269 14 0 267 307
 352 83 3 313 .792156862745098 .819607843137255 .933333333333333 19 259 5 0 12 0
 26 23 0 S0 74 20 257 4 0 0 255 336 332 20 0 0 0 0 0 0 0 0 0 0 0 0 0 0 0 0 81 2
 255 152 150 12 0 20 0 0 353 0 84 11 353 Sweep-Thin184 76 256 LinhaConexao_Liqui
do-Rosa-com-BaixaP-Laranja^ConjuntoCalandras_AntesMontagem81 1 10 206 5 7 354 0
 0 0 355 70 11 0 4 T7 0 0 4 20 1 356 356 13 13 59 0 7 0 357 0 0 358 0 50 14 55 0
 357 359 0 0 +4.62496017695695 -.1 0 -1306144734853124e-31 -1 0 0 0 -1 31 15 29
 0 17 360 0 0 +2.52496017695695 1 0 1 0 0 0 0 -1 .03 19 16 60 0 7 358 0 361 0 V0
 16 17 17 0 ?362 0 363 15 0 0 7 17 362 0 364 362 362 0 365 17 0 0 +16 363 13 0 ?
366 17 367 360 0 0 7 17 366 0 368 366 366 0 369 363 0 0 +16 367 9 0 ?370 363 371
 372 0 0 7 31 360 28 0 363 372 15 0 +4.22496017695695 1 0 1 0 0 0 0 -1 .03 31 37
2 27 0 367 373 360 0 +4.62496017695695 .6 0 -1306144734853124e-31 -1 0 0 0 -1 .0
3 31 373 26 0 371 374 372 0 +4.62496017695695 -.1 0 -1306144734853124e-31 -1 0 0
 0 -1 .03 16 371 6 0 ?375 367 376 373 0 0 7 31 374 116 0 376 377 373 0 +2.524960
17695695 1 0 1 0 0 0 0 -1 .027 16 376 85 0 ?378 371 379 374 0 0 7 31 377 117 0 3
80 381 374 0 +4.62496017695695 -.1 0 -1306144734853124e-31 -1 0 1 -1306144734853
124e-31 0 .027 16 380 81 0 ?382 383 0 377 0 0 7 31 381 118 0 379 384 377 0 +4.22
496017695695 1 0 1 -612323399573677e-31 0 612323399573677e-31 1 0 .027 16 379 84
 0 ?385 376 383 381 0 0 7 31 384 119 0 383 0 381 0 -4.62496017695695 .6 0 0 1 0
 0 0 1 .027 16 383 83 0 ?386 379 380 384 0 0 7 17 386 0 387 386 386 0 388 383 0
 0 +15 387 102 0 386 389 0 17 388 0 390 388 388 0 386 383 0 0 -15 390 95 0 388 3
91 392 14 391 91 393 ?389 394 390 13 395 +0 0 0 389 361 15 392 96 0 382 391 0 17
 382 0 392 382 382 0 396 380 0 0 +17 396 0 397 396 396 0 382 380 0 0 -15 397 78
 0 396 357 398 14 357 49 399 ?400 0 397 13 14 +0 0 401 400 361 15 398 51 0 375 3
57 0 17 375 0 398 375 375 0 402 371 0 0 +17 402 0 403 402 402 0 375 371 0 0 -15
 403 7 0 402 404 0 14 404 2 405 ?406 400 407 13 408 -0 0 400 406 361 81 1 405 20
0 102 404 409 0 410 411 412 14 406 12 411 ?394 404 368 13 413 -0 0 404 394 361 1
4 400 36 410 ?404 357 414 13 359 -0 0 357 404 361 15 407 10 0 370 404 403 51 408
 23 0 404 415 413 0 -4.62496017695695 -.1 0 0 1 0 .03 0 0 1 13 361 3 0 0 0 0 0 0
 16 394 14 394 16 416 ?391 406 364 13 417 -0 0 406 0 361 81 1 416 202 102 394 41
8 0 411 393 419 15 364 18 0 362 394 420 51 417 25 0 394 413 359 0 -4.22496017695
695 1 0 -1 -1306144734853124e-31 0 .03 1306144734853124e-31 -1 0 54 413 24 0 406
 408 417 0 -4.22496017695695 .6 0 0 0 1 .4 .03 1 0 0 50 359 42 0 400 417 14 0 +2
.52496017695695 1 0 1 0 0 0 0 -1 15 420 15 0 369 394 0 17 369 0 420 369 369 0 36
6 363 0 0 -81 1 418 189 116 394 0 416 421 422 423 81 1 411 201 102 406 424 0 405
 416 425 81 1 393 203 102 391 426 0 416 427 428 83 3 419 .792156862745098 .81960
7843137255 .933333333333333 81 1 426 174 116 391 0 393 0 429 430 81 1 427 204 10
2 389 422 0 393 431 432 83 3 428 .792156862745098 .819607843137255 .933333333333
333 14 389 97 427 ?401 391 433 13 434 +0 0 391 401 361 81 1 422 192 116 389 0 42
7 418 435 436 81 1 431 205 102 401 435 0 427 0 437 83 3 432 .792156862745098 .81
9607843137255 .933333333333333 14 401 103 431 ?0 389 438 13 415 +0 0 389 357 361
 81 1 435 195 116 401 0 431 422 0 439 83 3 437 .792156862745098 .819607843137255
 .933333333333333 82 1 439 1742995562 15 438 107 0 440 401 441 51 415 111 0 401
 434 408 0 -4.22496017695695 1 0 -1 -1306144734853124e-31 0 .027 130614473485312
4e-31 -1 0 54 434 112 0 389 395 415 0 -4.22496017695695 .6 0 0 0 1 .4 .027 1 0 0
 51 395 113 0 391 0 434 0 -4.62496017695695 -.1 0 0 1 0 .027 0 0 1 17 440 0 438
 440 440 0 378 376 0 0 -15 441 108 0 385 401 0 17 385 0 441 385 385 0 442 379 0
 0 +17 442 0 433 442 442 0 385 379 0 0 -15 433 101 0 442 389 387 17 378 0 414 37
8 378 0 440 376 0 0 +15 414 73 0 378 400 443 15 443 38 0 365 400 0 17 365 0 443
 365 365 0 362 17 0 0 -82 1 436 1742667882 81 1 429 177 116 357 0 399 426 409 44
4 82 1 430 1742536810 81 1 399 198 102 357 429 0 0 410 445 81 1 409 180 116 404
 0 405 429 424 446 82 1 444 1737425002 81 1 424 183 116 406 0 411 409 421 447 82
 1 446 1734279274 81 1 421 186 116 400 0 410 424 418 448 82 1 447 1735000170 81
 1 410 199 102 400 421 0 399 405 449 82 1 448 1738276970 83 3 449 .7921568627450
98 .819607843137255 .933333333333333 83 3 445 .792156862745098 .819607843137255
 .933333333333333 83 3 425 .792156862745098 .819607843137255 .933333333333333 82
 1 423 1735393386 17 370 0 407 370 370 0 450 367 0 0 +17 450 0 451 450 450 0 370
 367 0 0 -15 451 11 0 450 406 0 15 368 14 0 366 406 451 83 3 412 .79215686274509
8 .819607843137255 .933333333333333 19 358 5 0 7 0 16 13 0 S0 74 20 356 4 0 0 35
4 435 431 10 0 0 0 0 0 0 0 0 0 0 0 0 0 0 0 0 81 2 354 152 150 7 0 10 0 0 452 0 8
4 11 452 Sweep-Thin184 38 355 LinhaTransmissao_Curva90_Liquidos-Rosa74 20 6 1 0
 0 2 0 0 0 0 0 0 0 0 0 0 0 0 0 0 0 0 0 0 0 1 0 
