**ABCDEFGHIJKLMNOPQRSTUVWXYZabcdefghijklmnopqrstuvwxyz**************************
**PARASOLID !"#$%&'()*+,-./:;<=>?@[\]^_`{|}~0123456789**************************
**PART1;
MC=AMD64;
MC_MODEL=Intel64 Family 6 Model 186 Stepping 2, GenuineIntel;
MC_ID=unknown;
OS=Windows_NT;
OS_RELEASE=unknown;
FRU=Parasolid Version 34.1, build 247, 10- 7-2022;
APPL=SOLIDWORKS 2023-2023010;
SITE=;
USER=unknown;
FORMAT=text;
GUISE=transmit;
KEY=LinhaAltaP_LinhaVermelha;
FILE=LinhaAltaP_LinhaVermelha.x_t;
DATE=Mon May 13 16:20:36 2024;
**PART2;
SCH=SCH_3401247_34101;
USFLD_SIZE=0;
**PART3;
**END_OF_HEADER*****************************************************************
T51 : TRANSMIT FILE created by modeller version 340124723 SCH_3401247_34101_1300
6231 0 10 21 CCCCI7 lattice222 0 CCCI4 mesh1006 0 I8 polyline1008 0 CCCCCCCCCCA1
6 mesh_offset_data206 0 Z1 5 2 3 0 0 0 0 0 0 0 0 1e3 1e-8 0 0 0 1 0 1 4 0 81 255
 2 2 5 5 1 0 0 0 0 0 0 70 11 CI9 list_type0 0 1 uI10 notransmit0 0 1 lCCCDCCDI12
 finger_index0 0 1 dI12 finger_block1012 0 CZ3 0 4 T1 0 0 1 20 1 6 6 11 255 4 3
 0 1 7 8 1 9 0 0 0 12 36 CCCI7 lattice222 0 CCCI4 mesh1006 0 I8 polyline1008 0 C
CCCCCCDI5 owner1040 0 CCCI16 boundary_lattice222 0 CCCI13 boundary_mesh1006 0 I1
7 boundary_polyline1008 0 CCCA16 index_map_offset0 0 1 dA9 index_map82 0 A17 nod
e_id_index_map82 0 A20 schema_embedding_map82 0 A5 child12 0 A14 lowest_node_id0
 0 1 dA16 mesh_offset_data206 0 Z7 435 10 11 0 0 0 0 0 0 0 1e3 1e-8 4 12 0 1 0 1
 1 13 0 14 15 16 0 0 17 18 19 0 0 0 0 0 0 0 100 10 CCCCCCCCCA9 precision229 0 Z8
 4 4 0 0 1 0 0 0 1 0 0 0 1 0 0 0 1 0 ?0 11 9 1 0 1 12 20 1 0 4 0 0 12 12 582 21
 22 0 0 0 0 0 0 0 1e3 1e-8 9 23 7 1 0 1 1 24 0 25 26 27 0 0 28 29 30 0 0 0 0 0 0
 0 100 20 2 9 0 0 1 0 0 0 1 0 0 0 1 0 0 0 1 0 ?0 81 1 21 582 31 12 32 0 0 0 0 70
 22 0 4 T12 0 0 4 20 1 33 33 13 255 24 59 0 12 0 34 0 0 35 0 50 255 25 55 0 36 3
7 0 0 +-.476383795025688 -.2 0 -277555756156289e-30 -1 0 0 0 1 38 12 CCCCCCCCCCC
A17 intersection_data204 0 Z26 220 0 29 38 0 0 +39 40 41 42 43 44 29 255 27 259
 0 30 45 0 -.463152139487016 -367252215823573e-32 .0269243995607316 19 9 CCCCCCI
5 frame230 0 CA5 owner12 0 Z28 60 0 12 35 0 46 0 V0 16 255 29 218 0 ?47 0 48 26
 0 0 12 18 255 30 257 0 49 0 50 27 ?12 17 255 49 0 51 52 52 30 53 54 0 55 -18 50
 252 0 56 30 57 45 ?12 17 56 0 58 59 60 50 61 62 0 63 -18 57 208 0 64 50 65 66 ?
12 29 45 253 0 50 66 27 -.468832772080126 -209582988340899e-32 -.029034153207483
 29 66 210 0 57 67 45 -.474624902117807 -48819085104497e-32 .0269426482688433 29
 67 204 0 65 68 66 -.468832772080126 -2095829883408995e-33 -.02592261662092765 1
8 65 202 0 69 57 70 67 ?12 29 68 408 0 70 71 67 -.468832772080126 35698704381119
3e-31 .029034153207483 18 70 329 0 59 65 72 68 ?12 29 71 409 0 72 73 68 -.474624
902117807 491245521888709e-31 -.0269426482688433 18 72 331 0 74 70 75 71 ?12 29
 73 411 0 75 76 71 -.476383795025688 -.1317852524935656 -.03 18 75 330 0 60 72 7
7 73 ?12 29 76 412 0 77 78 73 -.476383795025688 -.1317852524935656 .03 18 77 327
 0 79 75 80 76 ?12 29 78 413 0 80 81 76 -.463152139487016 714342220735088e-32 -.
02692439956073165 18 80 333 0 52 77 82 78 ?12 29 81 416 0 82 83 78 -.46883277208
0126 4040341573964525e-32 .0259226166209277 18 82 334 0 84 80 85 81 ?12 29 83 41
7 0 85 86 81 -.476383795025688 -.1317852524935656 .027 18 85 337 0 87 82 88 83 ?
12 29 86 418 0 88 0 83 -.476383795025688 -.1317852524935656 -.027 18 88 335 0 89
 85 0 86 ?12 17 89 0 90 69 87 88 91 92 0 93 +15 255 90 378 0 87 94 0 17 69 0 90
 84 89 65 93 95 0 96 -17 87 0 90 89 84 85 97 98 0 91 -17 91 0 99 97 93 85 89 92
 0 0 -16 92 324 0 ?89 100 101 102 0 0 12 17 93 0 99 91 103 88 69 95 0 0 +15 99 9
5 0 91 34 0 17 103 0 99 93 97 65 104 105 0 0 -16 95 312 0 ?93 98 106 107 98 98 1
2 16 98 310 0 ?97 54 95 107 95 95 12 16 106 322 0 ?108 95 109 110 0 0 12 38 107
 398 0 95 110 111 0 +112 113 114 115 116 117 31 255 110 400 0 106 118 107 0 +-.4
76383795025688 -.1317852524935656 0 -144811698864151e-30 -1 0 0 0 1 .03 38 111 3
97 0 54 107 119 0 +120 113 121 122 123 124 51 255 112 113 0 125 126 39 127 --.47
6383795025688 -.2 0 277555756156289e-30 1 0 .027 -1 277555756156289e-30 0 54 255
 113 391 0 94 128 129 130 +.0986162049743118 -.1317852524935656 0 0 0 1 .575 .02
7 1 0 0 40 255 30 114 0 1 30 .0091126501456808 .363898836357688 ??-.476383295025
747 -.130712871964089 .0269999999953704 -.476382491128793 -.130053501097632 .026
9999999685158 -.47637549495459 -.1274160233248782 .0269999987242374 -.4763596040
0043 -.124326073041701 .0269999891628552 -.47634110972292 -.121876862293023 .026
9999662585887 -.47621497828407 -.112080468665196 .02699947223387435 -.4760075097
55871 -.102366616893328 .0269973778244429 -.475878593670365 -.0976976723910762 .
02699527313420965 -.475173630219836 -.07902751321808 .02697286601647435 -.474635
980156894 -.0683819860301834 .02694336918769485 -.471504994436504 -.025854891618
49215 .02655555129932325 -.460606555327848 .0587079266626258 .02191069847168025
 -.45303113915096 .0999713191756624 .01355188044503576 -.451661574580172 .106670
4184909764 .01085411517551222 -.450263648636024 .1133194938828082 .0068365161144
0619 -.4497926229069115 .1155196117391994 .00468076546620254 -.4494558289367145
 .117080819932226 .00197094959628493 -.449383795082184 .1174134631332602 1746648
17841613e-20 -.4494558025437075 .1170809418932074 -.00197058897043636 -.44972609
8822363 .1158287642091396 -.00428570100814682 -.450430907021099 .112533478696974
6 -.00744631480809448 -.452997915769861 .1001361184242576 -.0134944674378753 -.4
62906533501816 .0442763887145796 -.02339579923441725 -.471709398713122 -.0280976
8564534975 -.026592292475698 -.474852272479781 -.0724345839582767 -.026956528684
0012 -.475910513586264 -.0987921121356559 -.02699585161981555 -.476244730462292
 -.1139009438457646 -.02699964186886945 -.476344570766825 -.1222870529070422 -.0
2699997150845755 -.476373078533899 -.126820584215502 -.0269999978732741 -.476383
295025588 -.1307128719640898 -.0269999999953704 41 3 CI8 term_use0 0 1 cCZ2 115
 TF-.476383795025688 -.1317852524935654 .027 -.476383295025747 -.130712871964089
 .0269999999953704 41 2 116 TF-.476383795025688 -.1317852524935654 -.027 -.47638
3295025588 -.1307128719640898 -.0269999999953704 204 2 17 INTERSECTION_DATA17 In
tersection data7 uv_type0 0 1 u6 values0 1 1 fT128 117 4 1.570796326794895 .0682
147475064345 3.141592653589795 1.570796326794895 1.57081484531123 .0692871280359
109 3.139727644513895 1.57077780827419 ??3.138580914308165 1.570748034316025 ??3
.13399403072765 1.57048891674928 ??3.128620349505285 1.56990036277655 ??3.124361
09702053 1.56921538899679 ??3.107326817478995 1.564543814143985 ??3.090440965165
695 1.556859384143065 ??3.082327258597665 1.552084073494745 ??3.049904350937905
 1.52596038757613 ??3.03143762483233 1.50601714633549 ??2.95788434899846 1.38910
194943475 ????????????????????????????????????????????????4.5383864773999 .17190
231435465 2.96175272772591 -1.396793823810102 4.65563546121428 .1275654160417232
 3.038465594914185 -1.514042807624485 4.69485914039136 .101207887864344 3.084229
01423652 -1.55326648680156 4.70723841822709 .0860990561542354 3.11049201519814 -
1.56564576463731 4.71093622954543 .0777129470929578 3.12507442120954 -1.56934357
595562 4.71199207327096 .0731794157844981 3.13295850152786 -1.57039941968131 4.7
1237046186247 .0692871280359102 3.139727644513895 -1.57077780828007 4.7123889803
8469 .0682147475064345 3.141592653589795 -1.570796326794895 14 255 94 376 131 ?1
32 133 90 24 113 -134 134 132 125 46 51 128 392 0 135 0 113 0 +.673616204974312
 -.2 0 0 1 0 .027 0 0 1 51 129 389 0 136 113 40 0 +.673616204974312 -.2 0 0 1 0
 .03 0 0 1 141 255 130 38 137 138 113 38 38 213 0 48 139 26 0 +39 113 140 141 14
2 143 141 137 119 144 130 113 141 138 107 130 144 113 141 144 111 138 137 113 38
 119 396 0 145 111 146 0 +147 113 148 149 150 151 16 145 308 0 ?152 153 54 119 0
 0 12 38 146 395 0 153 119 154 0 +112 40 155 156 157 158 51 147 23 0 159 160 120
 161 --.476383795025688 -.2 0 277555756156289e-30 1 0 .03 -1 277555756156289e-30
 0 40 13 148 0 1 13 .00755708230522715 .380806367978351 ??-.4631521334183 2e-7 -
.02692439657833735 -.460351116171384 -.04461290269127475 -.02535652201613525 -.4
5604086165373 -.0589653577652446 -.02204915104542775 -.452183874537423 -.0666553
8560637 -.0177303087497548 -.4489976169306865 -.0713596170101386 -.0122473364185
386 -.446820454012278 -.0740291684613231 -.00509988903063687 -.4464458340295025
 -.0744533548984906 .001928339023837815 -.447594932194227 -.0731212144991634 .00
84380908309477 -.4499078755377655 -.0701252103423967 .01410764641139816 -.452929
61729961 -.0653752682236708 .0187056554868714 -.45719771423735 -.055972032946595
6 .02306283382378155 -.461698817379076 -.0367459338024291 .02616011145844955 -.4
631521334183 1999999999948875e-22 .02692439657833735 41 1 149 L?-.4631521334183
 2e-7 -.02692439657833735 41 1 150 L?-.4631521334183 1999999999948875e-22 .02692
439657833735 204 52 151 4 4.255614701393085 .2000002 2.91116890357401 -1.4959440
1233699 4.14856448505144 .1553870973087255 2.98688633710581 -1.921502175045365 3
.96721760147065 .1410346422347554 3.01105112635844 -2.186035857993095 3.77390335
2392325 .13334461439363 3.02389325603609 -2.425187087944665 3.5621228884301 .128
6403829898614 3.03169372861135 -2.67078630540586 3.31241856910394 .1259708315386
768 3.03609615227363 -2.95156629524972 3.077270341210745 .1255466451015094 3.036
793838821095 3.070111833326835 2.856475690498955 .1268787855008366 3.03460102251
5655 2.82374591323545 2.652013091526245 .1298747896576032 3.029651756610025 2.59
1805896023355 2.46835323659905 .1346247317763292 3.02176251298954 2.376225160161
11 2.26469090647939 .1440279670534044 3.00602888501356 2.11762271863408 2.082311
74057643 .163254066197571 2.97357412803606 1.82087474814171 2.0275706057865 .200
0002 2.91116890357401 1.49594401233699 14 159 2 162 ?163 164 165 24 147 -166 166
 164 163 46 51 160 111 0 133 39 147 0 -.903616204974312 0 0 0 -1 0 .027 0 0 -1 5
4 120 24 0 163 147 167 168 -.213616204974312 -901403282336476e-31 0 0 0 -1 .69 .
03 -1 0 0 141 161 119 169 169 147 141 169 170 161 161 147 38 170 393 0 62 154 17
1 0 +147 40 172 173 174 175 16 62 306 0 ?61 176 177 170 176 176 12 38 154 394 0
 177 146 170 0 +120 40 178 179 180 181 31 171 119 0 182 170 183 0 --.47638379502
5688 0 0 277555756156289e-30 1 0 -1 277555756156289e-30 0 .027 54 40 388 0 132 1
29 126 184 +.0986162049743118 -.1317852524935656 0 0 0 1 .575 .03 1 0 0 40 31 17
2 0 1 31 .0123246837718205 .3784539912780035 ??-.476383295025695 -.1307128719640
89 .02999999999583335 -.47638234615517 -.129959765644918 .02999999996501295 -.47
6373618800474 -.1269473481969896 .029999998274074 -.476352800186669 -.1233420226
76647 .02999998398866165 -.476326986938425 -.1203546531783164 .02999994621397215
 -.476324400867025 -.1200973713799594 .0299999412055077 -.476313481046772 -.1190
682500359776 .0299999175989597 -.476260593771573 -.114951866486451 .029999747023
1165 -.475901762633058 -.0984884883407229 .02999612716289315 -.475320712405584 -
.0823374009099038 .0299811583389107 -.474981406415713 -.0749918215094985 .029967
203843312 -.473156730936287 -.0456327864486373 .0298259292791172 -.4584680581008
19 .071207838342551 .0240629667838126 -.45222511178989 .1039369811678674 .017786
4562044376 -.4489144854231155 .119569898808167 .01205972760712356 -.447352014242
528 .1266196541960492 .00756013918909771 -.4468113511323345 .1290147109932278 .0
0504683684841 -.4464444202188725 .1306277084204794 .00190626235786535 -.44638629
68773 .1308823049650844 -.000387433655535062 -.446500058514029 .130383765463964
 -.002638615565357285 -.446878833407264 .1287169772903174 -.0054274524314206 -.4
47860611001704 .1243462044873444 -.00929666462415077 -.451462040130908 .10763077
92545064 -.01670048301590455 -.464843247299382 .0311357706142742 -.0276914383551
4585 -.472405199453741 -.03612559633968365 -.0297350092866117 -.475091887514287
 -.0772748197653059 -.02997217000789215 -.475987755584506 -.1016042863937348 -.0
299973857654468 -.476268197830954 -.115479623162287 -.02999977728731615 -.476351
360812852 -.1231481992041672 -.02999998246702555 -.476374969221686 -.12727977258
44436 -.02999999870175305 -.476383295025615 -.1307128719640894 -.029999999995833
35 41 2 173 TF-.476383795025688 -.1317852524935654 .03 -.476383295025695 -.13071
2871964089 .02999999999583335 41 2 174 TF-.476383795025688 -.1317852524935654 -.
03 -.476383295025615 -.1307128719640894 -.02999999999583335 204 132 175 4 1.5707
96326794895 .0682147475064345 3.141592653589795 1.570796326794895 1.570812993461
33 .0692871280359109 3.139727644513895 1.570779660127995 1.570844622478865 .0700
402343550819 3.13841789651957 1.57074803110971 1.57113553430853 .073052651803010
4 3.133178956621415 1.570457119281525 1.57182948827934 .0766579773233529 3.12690
9039479045 1.569763165310535 1.572689930835325 .0796453468216835 3.1217140050637
1 1.56890272275445 1.57277613337702 .0799026286200405 3.121266603662005 1.568816
520212755 1.573140128238 .0809317499640224 3.11947702901825 1.568452525351795 1.
5749030468088 .0850481335135489 3.11231929027831 1.566689606781 1.58686476467122
 .101511511659277 3.083701411131835 1.554727888918565 1.606239834604235 .1176625
990900962 3.055649329011365 1.53535281898556 1.617559655674765 .1250081784905014
 3.04290165085686 1.52403299791503 1.67857366473169 .1543672135513625 2.99204163
4704965 1.463018988858102 ????????????????????????????????????????????????4.5793
7726499887 .1638744036603165 2.975610157743815 -1.43778461140908 4.6693120755148
8 .122725180234694 3.04686280476654 -1.52771942192509 4.69918728220599 .09839571
36062652 3.08911606268222 -1.5575946286162 4.70853573102502 .0845203768377129 3.
113236937457445 -1.566943077435215 4.71130783974621 .0768518007958327 3.12657197
376858 -1.569715186156375 4.71209478691371 .0727202274155564 3.133757076446385 -
1.570502133323725 4.71237231371557 .0692871280359105 3.139727644513895 -1.570779
66013068 4.71238898038469 .0682147475064345 3.141592653589795 -1.570796326794895
 14 132 365 185 ?186 94 187 24 40 +186 186 186 94 46 50 126 385 0 188 40 112 0 +
.673616204974312 -.2 0 0 1 0 0 0 1 141 184 26 189 190 40 141 189 170 191 184 40
 141 190 146 184 191 40 141 191 154 190 189 40 14 188 355 192 ?136 134 193 24 12
6 -0 0 135 136 46 81 1 192 551 194 188 195 0 185 196 197 14 136 361 196 ?135 188
 198 24 129 +0 0 188 134 46 14 134 347 199 ?188 186 200 24 113 -94 94 136 186 46
 15 193 356 0 201 188 202 14 135 372 203 ?204 136 205 24 128 -0 0 204 188 46 13
 46 3 0 0 0 0 0 0 28 34 14 34 236 206 ?207 0 208 24 112 +125 125 207 0 46 81 1 2
06 559 194 34 209 0 203 210 211 14 207 214 210 ?36 34 212 24 39 +213 213 214 34
 46 15 208 96 0 215 34 99 14 125 91 216 ?213 214 217 24 112 +34 34 94 213 46 81
 1 216 563 194 125 218 0 210 219 220 14 213 97 219 ?133 125 221 24 39 +207 207 1
25 133 46 14 214 16 222 ?125 163 223 24 167 -0 0 163 207 46 15 217 247 0 224 125
 0 17 224 0 217 225 225 72 226 153 0 47 -17 225 0 217 224 224 57 74 182 0 226 -1
7 226 0 187 47 47 57 224 153 0 0 +16 153 320 0 ?226 177 145 146 0 0 12 17 47 0 1
87 226 226 72 64 29 0 0 +15 187 367 0 47 132 0 17 64 0 221 74 74 57 47 29 0 225
 -15 221 219 0 64 213 227 17 74 0 221 64 64 72 225 182 0 224 +16 182 209 0 ?74 1
05 228 171 105 105 12 16 105 203 0 ?104 229 182 171 182 182 12 16 228 81 0 ?215
 182 176 230 0 0 12 17 215 0 208 215 215 0 231 228 0 0 +16 176 304 0 ?232 228 62
 170 62 62 12 31 230 117 0 228 183 233 0 +-.476383795025688 -.2 0 -2775557561562
89e-30 -1 0 1 -277555756156289e-30 0 .027 31 183 118 0 229 171 230 0 +.903616204
974312 -563969909248027e-32 0 -1224646799147352e-31 1 0 -1 -1224646799147352e-31
 0 .027 31 233 116 0 234 230 235 0 +.903616204974312 -.2 0 0 1 0 0 0 1 .027 16 2
34 85 0 ?236 237 229 233 0 0 12 31 235 26 0 237 233 238 0 +-.476383795025688 -.2
 0 -277555756156289e-30 -1 0 0 0 1 .03 16 237 6 0 ?239 240 234 235 0 0 12 31 238
 27 0 240 235 241 0 +-.476383795025688 0 0 -277555756156289e-30 -1 0 0 0 1 .03 1
6 240 261 0 ?242 243 237 238 243 243 12 31 241 28 0 244 238 139 0 +.903616204974
312 -1110223024625156e-31 0 0 1 0 0 0 1 .03 16 244 13 0 ?245 246 243 241 0 0 12
 31 139 29 0 246 241 38 0 +.903616204974312 -.2 0 0 1 0 0 0 1 .03 16 246 17 0 ?2
47 48 244 139 0 0 12 17 247 0 223 247 247 0 248 246 0 0 +16 48 211 0 ?96 29 246
 38 0 0 12 17 96 0 212 104 104 65 84 48 0 103 +15 212 102 0 104 207 0 17 104 0 2
12 96 96 82 103 105 0 0 +17 84 0 90 87 69 82 96 48 0 97 -17 97 0 99 103 91 82 87
 98 0 104 +15 223 18 0 247 214 249 17 248 0 250 248 248 0 247 246 0 0 -15 250 38
 0 248 164 0 14 164 36 251 ?159 36 252 24 37 -0 0 36 159 46 81 1 251 569 194 164
 253 0 222 254 255 14 36 49 254 ?164 207 256 24 25 +0 0 133 164 46 15 252 73 0 2
36 164 250 50 37 42 0 164 167 25 0 +.903616204974312 -.2 0 0 1 0 0 0 1 51 167 25
 0 214 120 37 0 -.903616204974312 0 0 0 -1 0 .03 0 0 -1 17 236 0 252 236 236 0 2
57 234 0 0 +17 257 0 258 257 257 0 236 234 0 0 -15 258 107 0 257 133 259 14 133
 103 260 ?94 213 258 24 160 +0 0 213 36 46 15 259 108 0 261 133 0 17 261 0 259 2
61 261 0 262 229 0 0 +17 262 0 227 262 262 0 261 229 0 0 -16 229 84 0 ?261 234 1
05 183 0 0 12 15 227 101 0 262 213 0 81 1 260 573 194 133 263 0 254 264 265 80 7
 CCCCCDI12 legal_owners0 16 1 lCZ1 194 266 267 9000 1 1 1 1 1 1 1 1 0 FFFFTFTFFF
FFFFFF1 81 1 263 197 268 133 0 260 269 270 271 81 1 254 571 194 36 272 0 251 260
 273 81 1 264 575 194 204 274 0 260 275 276 82 255 1 265 -356646808 14 204 265 2
64 ?166 135 51 24 120 -163 163 166 135 46 81 1 274 266 268 204 0 264 209 277 278
 81 1 275 577 194 166 277 0 264 279 280 82 1 276 1266679941 14 166 277 275 ?0 20
4 281 24 147 -159 159 0 204 46 81 1 277 278 268 166 0 275 274 282 283 81 1 279 5
79 194 186 284 0 275 285 286 82 1 280 1267728517 14 186 339 279 ?134 132 287 24
 40 +132 132 134 132 46 81 1 284 483 268 186 0 279 288 289 290 81 1 285 581 194
 163 291 0 279 0 292 82 1 286 1262747781 14 163 12 285 ?214 159 293 24 120 -204
 204 159 214 46 81 1 291 193 268 163 0 285 294 295 296 82 1 292 -364642171 80 1
 268 0 297 8001 0 0 0 0 3 5 0 0 0 FFFFTFTFFFFFFFFF2 81 1 294 192 268 159 0 162 2
53 291 298 81 1 295 194 268 214 0 222 291 218 299 83 255 3 296 .909803921568627
 .443137254901961 .03137254901960785 81 1 222 567 194 214 295 0 219 251 300 81 1
 218 195 268 125 0 216 295 269 301 83 3 299 .909803921568627 .443137254901961 .0
3137254901960785 81 1 269 196 268 213 0 219 218 263 302 83 3 301 .90980392156862
7 .443137254901961 .03137254901960785 81 1 219 565 194 213 269 0 216 222 303 83
 3 302 .909803921568627 .443137254901961 .03137254901960785 82 1 303 -356974459
 82 1 300 -364248984 81 1 162 548 194 159 294 0 131 185 304 81 1 253 191 268 164
 0 251 272 294 305 83 3 298 .909803921568627 .443137254901961 .03137254901960785
 81 1 272 190 268 36 0 254 0 253 306 83 3 305 .909803921568627 .443137254901961
 .03137254901960785 83 3 306 .909803921568627 .443137254901961 .0313725490196078
5 81 1 131 546 194 94 282 0 0 162 307 81 1 185 550 194 132 288 0 162 192 308 82
 1 304 -365363067 81 1 288 482 268 132 0 185 282 284 309 82 1 308 1236664453 81
 1 282 481 268 94 0 131 277 288 310 83 3 309 .792156862745098 .819607843137255 .
933333333333333 83 3 310 .792156862745098 .819607843137255 .933333333333333 82 1
 307 1244528773 79 255 15 297 SDL/TYSA_COLOUR15 293 14 0 245 163 311 17 245 0 29
3 245 245 0 312 244 0 0 +15 311 11 0 313 163 0 17 313 0 311 63 63 70 242 240 0 0
 -17 63 0 311 313 313 50 59 177 0 242 +17 242 0 165 61 232 50 313 240 0 0 +15 16
5 10 0 61 159 314 17 61 0 165 108 242 75 56 62 0 0 +17 232 0 165 242 108 70 79 1
76 0 313 +17 108 0 165 232 61 77 60 106 0 0 +17 79 0 58 60 59 77 232 176 0 108 -
15 58 342 0 79 186 0 17 60 0 58 56 79 75 108 106 0 61 -17 59 0 58 79 56 70 63 17
7 0 232 -16 177 305 0 ?63 62 153 154 0 0 12 15 314 7 0 315 159 0 17 315 0 314 31
5 315 0 239 237 0 0 -17 239 0 316 239 239 0 315 237 0 0 +15 316 51 0 239 36 0 17
 312 0 249 312 312 0 245 244 0 0 -15 249 15 0 312 214 0 81 1 289 484 268 134 0 1
99 284 195 317 83 3 290 .792156862745098 .819607843137255 .933333333333333 81 1
 199 555 194 134 289 0 196 203 318 81 1 195 485 268 188 0 192 289 319 320 83 3 3
17 .792156862745098 .819607843137255 .933333333333333 81 1 319 486 268 136 0 196
 195 321 322 83 3 320 .792156862745098 .819607843137255 .933333333333333 81 1 19
6 553 194 136 319 0 192 199 323 81 1 321 487 268 135 0 203 319 0 324 83 3 322 .7
92156862745098 .819607843137255 .933333333333333 81 1 203 557 194 135 321 0 199
 206 325 83 3 324 .792156862745098 .819607843137255 .933333333333333 82 1 325 12
44921989 82 1 323 1235943557 82 1 318 1260060805 15 287 341 0 326 186 58 17 326
 0 287 326 326 0 327 109 0 0 +17 327 0 198 327 327 0 326 109 0 0 -16 109 303 0 ?
326 106 100 118 0 0 12 16 100 317 0 ?328 109 92 329 0 0 12 31 118 401 0 109 329
 110 0 +.673616204974312 -.1317852524935656 0 0 1 0 0 0 1 .03 31 329 402 0 100 3
30 118 0 +.673616204974312 -.2 0 0 1 0 0 0 1 .03 31 330 404 0 331 102 329 0 +.67
3616204974312 -.2 0 0 1 0 0 0 1 .027 16 331 313 0 ?201 101 0 330 0 0 12 31 102 4
05 0 92 332 330 0 +-.476383795025688 -.1317852524935656 0 0 -1 0 0 0 -1 .027 31
 332 406 0 101 0 102 0 -.673616204974312 -.1317852524935656 0 0 -1 0 0 0 -1 .027
 16 101 323 0 ?333 92 331 332 0 0 12 17 333 0 205 333 333 0 334 101 0 0 +15 205
 374 0 333 135 335 17 334 0 200 334 334 0 333 101 0 0 -15 200 349 0 334 134 336
 15 336 350 0 53 134 0 17 53 0 336 152 152 80 49 54 0 0 +17 152 0 336 53 53 30 3
37 145 0 0 +16 54 307 0 ?53 145 98 111 0 0 12 17 337 0 281 55 55 80 152 145 0 53
 -15 281 276 0 337 166 0 17 55 0 281 337 337 30 52 243 0 152 +17 52 0 51 49 49 8
0 55 243 0 337 -16 243 255 0 ?55 244 240 238 240 240 12 15 51 264 0 49 204 0 15
 335 375 0 338 135 0 17 338 0 335 338 338 0 201 331 0 0 -17 201 0 193 201 201 0
 338 331 0 0 +17 328 0 339 328 328 0 340 100 0 0 +15 339 364 0 328 136 0 17 340
 0 202 340 340 0 328 100 0 0 -15 202 357 0 340 188 0 15 198 363 0 327 136 339 83
 3 283 .909803921568627 .443137254901961 .03137254901960785 81 1 209 237 268 34
 0 206 270 274 341 83 3 278 .909803921568627 .443137254901961 .03137254901960785
 81 1 270 215 268 207 0 210 263 209 342 83 3 341 .909803921568627 .4431372549019
61 .03137254901960785 81 1 210 561 194 207 270 0 206 216 343 83 3 342 .909803921
568627 .443137254901961 .03137254901960785 82 1 343 1256652933 82 1 273 -3622173
68 83 3 271 .909803921568627 .443137254901961 .03137254901960785 79 14 267 SWEnt
Unchanged15 256 78 0 231 36 316 17 231 0 256 231 231 0 215 228 0 0 -82 1 255 -36
1365400 54 39 112 0 213 112 160 344 -.213616204974312 -901403282336476e-31 0 0 0
 -1 .69 .027 -1 0 0 141 344 38 345 345 39 141 345 26 344 344 39 82 1 220 -357105
531 82 1 211 1263992965 82 1 197 1239089285 40 15 178 0 1 15 .00930347626635143
 .3457094159708355 ??-.468832794999268 -2000000001134905e-22 .0290341591681497 -
.459183143589319 .059228923322551 .02620840314185185 -.4438736404750365 .1176160
015865172 .0203170076418491 -.432582671985978 .15044411979561 .01402562061899684
 -.426466116302858 .166130822332419 .00870354552970868 -.423556023252088 .173190
1421177235 .004163343890195815 -.42303628328903 .1744261324143815 .0026160873595
9287 -.4227541975185705 .1750939254562355 .001069484517026486 -.4227015860572465
 .175218240473854 -.0002830786116275195 -.4228249660354055 .174926591436656 -.00
1604456132510425 -.4232365259679435 .173950798553173 -.00329958208457651 -.42435
08754278875 .1712856774154325 -.00577432196193355 -.428956627703571 .15989058870
54785 -.01119428029710892 -.44928243683108 .0994268018031443 -.02263724688736575
 -.468832794999268 -200000000135136e-21 -.0290341591681497 41 1 179 L?-.46883279
4999268 -2000000001134905e-22 .0290341591681497 41 1 180 L?-.468832794999268 -20
0000000135136e-21 -.0290341591681497 204 60 181 4 6.28318501411739 -1.8252327343
50265 2.913396686780875 1.316359919239526 .0878071965545811 -2.07901353617401 2.
811666418364405 1.062579117415784 .177014092377089 -2.397596453201795 2.71067313
3294995 .743996200388001 .2287393207704755 -2.655108671617755 2.653214703940105
 .486483981972037 .2539427823257625 -2.84724232237714 2.62551125629676 .29435033
12126525 .265398605603244 -3.00236515515841 2.612982650607905 .139227498431383 .
2674119560343305 -3.054278841474385 2.61078486019936 .0873138121154076 .26850070
6033063 -3.105935614297295 2.60959688200153 .03565703929249635 .268703459970496
 3.13215655983808 2.609375688738625 -.00943609375171334 .2682278263522415 3.0880
8525384027 2.60989459816562 -.0535073997495229 .266637395443765 3.03138361915753
5 2.61163023206127 -.110209034432257 .262300823650626 2.94790652385008 2.6163666
09377 -.1936861297397115 .2438759979108795 2.75919860071135 2.6365535229296 -.38
2394052878445 .148878153100319 2.28658658834665 2.74226759135089 -.8550060652431
46 6.28318501411739 1.825232734350265 2.913396686780875 -1.316359919239526 141 1
68 111 346 346 120 141 346 154 168 168 120 40 13 155 0 1 13 .0100731681522697 .3
74908131444716 ??-.474624861671232 1999999999743355e-22 -.0269426456283451 -.488
219347639115 -.0490615943637975 -.0242676676739814 -.493273829937169 -.058901116
5093625 -.0210648218765073 -.498074743498888 -.0658051452451603 -.01607802084626
775 -.501302434220591 -.0695182571159756 -.01039525952895216 -.503177442475347 -
.0714123564553331 -.00333173473484512 -.503158606691859 -.0713941721748563 .0034
798649745451 -.501595783702085 -.0698262238212783 .0096620715677982 -.4988346806
64894 -.0667368601116101 .0149985910676744 -.494375026622285 -.0606599331954718
 .02013245105886565 -.488163298081443 -.0489331950683673 .0242949234977078 -.476
302502440658 -.00808004480542779 .0269998776203823 -.474624861671232 19999999998
6087e-21 .02694264562834515 41 1 156 L?-.474624861671232 1999999999743355e-22 -.
0269426456283451 41 1 157 L?-.474624861671232 199999999986087e-21 .0269426456283
4515 204 52 158 4 4.64719713309357 .2000002 2.915623665254055 -1.115403184657024
 ??3.001549745824055 -.942316635058757 ??3.019071462923605 -.778427627262716 ??3
.031463371727745 -.565613687009215 ??3.038170576583845 -.353846598033034 6.15947
239718176 .128587643544667 3.04160560452661 -.1112873958783262 ??3.0415725791644
25 .1162572058852502 ??3.03872842393765 .327914181450341 ??3.033143278767395 .52
3544546616704 ??3.022219632849655 .735666857586325 ??3.00132199354397 .943863618
534288 ??2.929654094394465 1.11976015648578 1.63598817408601 .2000002 2.91562366
5254055 1.115403184657024 40 15 140 0 1 15 .01550604809127455 .393032443808635 ?
?-.468832794999268 -2000000000089465e-22 .0259226232970633 -.460405185273026 .05
33252294378457 .0231636378885765 -.44752813352805 .1055480009530254 .01759040489
252095 -.439548057468829 .1308930627210152 .0126571505606329 -.4352713855430145
 .1431337327369276 .00883536610189024 -.4335884639835555 .147741658770657 .00673
505770605948 -.4320004896560625 .1519914879096475 .003783528917735375 -.43140659
80215975 .1535575404690165 .00163038629188912 -.4312797036183135 .15389054861912
55 .0004052971407599825 -.4313102009268315 .1538105658720405 -.00087392284040704
9 -.431524514361405 .153247589986175 -.002230380173152855 -.4321086964110645 .15
1704808682901 -.004054171236100085 -.434308377481436 .1457839720560454 -.0077055
7466028476 -.4441062975933265 .1168727241716376 -.015688313221923 -.468832794999
268 -1999999999948275e-22 -.02592262329706335 41 1 141 L?-.468832794999268 -2000
000000089465e-22 .0259226232970633 41 1 142 L?-.468832794999268 -199999999994827
5e-22 -.02592262329706335 204 60 143 4 6.28318501411739 -1.854243232372445 2.913
396686780875 1.28734942121735 .0789505920796612 -2.110399738172725 2.82182362096
844 1.031192915417074 .158308533431028 -2.4320373345467 2.731651360614755 .70955
5319043096 .197778592084769 -2.653679746210485 2.687509776495625 .48791290737930
8 .2171065594902225 -2.80821584201677 2.666066219087795 .333376811573023 .224430
927270884 -2.889483924265965 2.657969705410755 .25210872932383 .2312105378704015
 -3.000999236982765 2.650489857398655 .1405934166070304 .233714838971667 -3.0811
71218899495 2.647730417941325 .0604214346902975 .2342477813989635 -3.12658108458
0295 2.647143424380815 .0150115690094978 .234119764329738 3.1092194866469 2.6472
8441711992 -.0323731669428929 .23321893152756 3.05889174140977 2.64827669767053
 -.0827009121800234 .2307524584969715 2.990868120829285 2.65099481139044 -.15072
453276051 .2213158247006545 2.852177600851475 2.661411221173195 -.28941505273832
 .1758575020341725 2.521576094125355 2.711967177108615 -.620016559464435 6.28318
501411739 1.854243232372445 2.913396686780875 -1.28734942121735 141 127 107 347
 347 112 141 347 146 127 127 112 40 14 121 0 1 14 .02105623431386845 .3610348233
63793 ??-.463152145555595 -2000000001110225e-22 .0269244025430718 -.457168720601
864 .0538155913041144 .0246771912560858 -.436831532786132 .1333560186239842 .014
9274308172461 -.4302252829652655 .152142804349094 .00958777576872349 -.426927871
89026 .160843809715564 .00505963487130905 -.426205392373681 .162698243812576 .00
331401711260842 -.425808315207717 .163709912195549 .001713544828873115 -.4256715
686988145 .164057094430318 .000403824384918493 -.4257090340845375 .1639620362578
57 -.000960709639280904 -.4259495814938405 .1633506010421085 -.00240830446839933
5 -.426603396472365 .1616788711909365 -.004363353645748875 -.429072065436461 .15
52317343007515 -.0082947042336932 -.4400003345582875 .1235639650245714 -.0168714
7217943775 -.463152145555595 -2000000001012365e-22 -.0269244025430718 41 1 122 L
?-.463152145555595 -2000000001110225e-22 .0269244025430718 41 1 123 L?-.46315214
5555595 -2000000001012365e-22 -.0269244025430718 204 56 124 4 6.28318501165749 -
2.027570154993745 2.911169583274135 1.495946966512506 .0800563217804387 -2.17567
1581070855 2.81929291943769 1.152962424536554 .2022195952347565 -2.6207848221655
05 2.68181108330751 .585801959536641 .2320480704349435 -2.816293224614865 2.6488
72807912165 .3630240384997 .24601837670065 -2.97212820277623 2.633534818753065 .
18850835542359 .249009295171866 -3.030899501569915 2.63025849393948 .12305167508
41712 .2506429970954365 -3.08444338909135 2.62847000146784 .0635073040571516 .25
12039807167865 -3.128131434224105 2.627856045616345 .01495701637263254 .25105036
69553615 3.10956352296619 2.628024155574985 -.0355893509393604 .2500625948592855
 3.061229364759795 2.629105306464945 -.0893151618952516 .2473646077846875 2.9956
2979026995 2.632059800947115 -.1623175148159675 .2369959073771 2.861452708212825
 2.643434074883785 -.3122611963472845 .1868415756443805 2.544328458420595 2.6988
92359477835 -.6749641653667 6.28318501165749 2.027570154993745 2.911169583274135
 -1.495946966512506 19 35 5 0 12 0 28 24 0 S0 40 14 41 0 1 14 .02669841367221445
 .360590291103237 ??-.474624942564424 -2000000000089465e-22 .0269426509092852 -.
463695536183292 .0528592873086086 .02481994621985275 -.432308023522445 .15564510
0630264 .00861753910338626 -.4307379169338615 .159609520878128 .0066347056429382
4 -.429223966998812 .163363475740871 .00383002060354943 -.42879147435807 .164423
903881329 .002500248063713265 -.4285114602652615 .165107692035614 .0008907423254
74126 -.4284782116849555 .1651887403023085 -.0003807398807627545 -.4286037102186
5 .164882659504003 -.00161001805882732 -.4290085876318825 .163892218270826 -.003
23710510766718 -.430110633235296 .1611729270130235 -.00564629480443316 -.4347617
065017715 .1492963334106098 -.0110048444163733 -.451972093564881 .09804095256073
29 -.0207878756121044 -.474624942564424 -1999999999536205e-22 -.0269426509092853
 41 1 42 L?-.474624942564424 -2000000000089465e-22 .0269426509092852 41 1 43 L?-
.474624942564424 -1999999999536205e-22 -.0269426509092853 204 56 44 4 6.28318501
658377 -1.635985171663255 2.915624358826 1.115403584896302 .0778849063764545 -1.
97540309348401 2.82431856658878 .974340362562432 .2364571784763005 -2.8167410916
1191 2.64539361191009 .2913559613090435 .242817182321048 -2.893320108293815 2.63
838691567739 .223000539109103 .248859741094702 -2.999259948333095 2.631741690002
845 .1280167294439544 .250570276674891 -3.048858015377985 2.629862626247255 .083
4383842654211 .251674122051375 -3.108596209852875 2.6286505117606 .0296957751391
141 .251805003488649 3.12749070913234 2.62850681826268 -.0126916700818552 .25131
0775956303 3.08192695982027 2.62904945408481 -.0536930639350349 .249712434540961
5 3.02141076913476 2.63080487170749 -.1081139980703164 .245331309871039 2.930915
60159963 2.63562064735407 -.1893390792648435 .22631653473531 2.72178279438103 2.
65659166400425 -.375597183147998 .1462480209243142 2.262874808767935 2.746160372
845175 -.765543804435587 6.28318501658377 1.635985171663245 2.915624358826 -1.11
54035848963 74 4 CI16 index_map_offset0 0 1 dCCZ20 33 4 0 0 285 321 32 21 0 0 0
 0 0 0 0 0 0 0 0 0 0 0 0 0 81 2 32 458 348 12 0 21 0 0 349 0 80 2 348 350 351 90
00 0 0 0 0 3 5 0 0 0 FFTFTTTFFTFFFFFF3 3 84 255 11 349 Sweep-Thin279 21 351 SWIM
PLICITBODYNAME_ID80 1 31 352 353 8017 0 0 0 0 0 0 0 0 0 TTTTTTTTTTTTTFTF3 79 13
 353 SDL/TYSA_NAME81 1 10 435 31 7 354 0 0 0 0 70 11 0 4 T7 0 0 5 20 1 355 355 1
3 13 59 0 7 0 356 0 0 357 0 50 14 55 0 358 359 0 0 +-.346383795025688 -.23821752
2296029 .6 0 1 0 0 0 1 38 15 170 0 360 361 0 0 +362 363 364 365 365 366 29 16 17
5 0 19 367 0 -.346383795025688 -1665334536937735e-31 .63 19 17 5 0 7 357 0 368 0
 V0 16 18 161 0 ?369 0 370 361 0 0 7 18 19 174 0 371 0 372 16 ?7 17 371 0 373 37
4 374 19 375 376 0 377 -18 372 158 0 378 19 379 367 ?7 17 378 0 380 381 381 372
 369 18 0 382 -18 379 210 0 374 372 383 384 ?7 29 367 160 0 372 384 16 -.3463837
95025688 -1665334536937735e-31 .627 29 384 251 0 379 385 367 -.346383795025688 -
3448187751580605e-32 .57 29 385 253 0 383 0 384 -.346383795025688 76540424946709
6e-31 .573 18 383 209 0 381 379 0 385 ?7 17 381 0 380 378 378 383 382 386 0 387
 -15 380 162 0 378 356 0 17 382 0 388 387 387 372 381 386 0 389 +16 386 85 0 ?38
2 390 391 392 391 391 7 17 387 0 388 382 382 383 389 391 0 369 +15 388 95 0 382
 393 394 17 389 0 395 369 369 372 387 391 0 0 -16 391 159 0 ?387 386 396 392 386
 386 7 17 369 0 395 389 389 383 378 18 0 0 +15 395 224 0 389 397 0 14 397 222 39
8 ?399 400 395 13 401 -402 402 399 393 368 81 1 398 409 194 397 403 0 0 404 405
 14 399 215 404 ?406 397 407 13 363 +408 408 408 397 368 14 400 103 409 ?397 410
 411 13 412 -0 0 410 358 368 54 401 244 0 402 0 363 413 +.278616204974312 -11102
23024625156e-31 .6 0 0 1 .625 .027 1 0 0 14 402 235 414 ?415 408 416 13 401 -397
 397 415 406 368 14 393 91 417 ?410 418 388 13 419 -0 0 397 410 368 13 368 3 0 0
 0 0 0 0 17 356 14 356 164 420 ?358 0 380 13 362 -410 410 418 0 368 81 1 420 419
 194 356 421 0 417 422 423 14 358 49 422 ?424 356 425 13 14 -0 0 400 424 368 54
 362 112 0 410 419 412 426 +.163616204974312 -235132185436292e-30 .6 0 0 -1 .51
 .027 -1 0 0 14 410 97 427 ?400 393 428 13 362 -356 356 393 400 368 14 418 16 42
9 ?393 430 431 13 432 +0 0 430 356 368 81 1 429 424 194 418 433 0 427 434 435 14
 430 12 434 ?418 436 373 13 437 +415 415 436 418 368 15 431 18 0 438 418 439 51
 432 25 0 418 437 359 0 +.673616204974312 -2220446049250315e-31 .6 0 -1 0 .03 0
 0 -1 54 437 24 0 430 440 432 441 +.163616204974312 -235132185436292e-30 .6 0 0
 -1 .51 .03 -1 0 0 50 359 42 0 424 432 14 0 +.673616204974312 -.1 .6 0 -1 0 0 0
 1 14 424 36 442 ?436 358 443 13 359 +0 0 358 436 368 81 1 442 427 194 424 444 0
 434 445 446 14 436 2 445 ?430 424 447 13 440 +0 0 424 430 368 15 443 74 0 448 4
24 449 17 448 0 443 448 448 0 450 451 0 0 -15 449 38 0 452 424 0 17 452 0 449 45
2 452 0 438 370 0 0 +17 438 0 431 438 438 0 452 370 0 0 -16 370 17 0 ?452 18 453
 454 0 0 7 16 453 13 0 ?455 370 456 457 0 0 7 31 454 29 0 370 457 361 0 +.673616
204974312 -.1 .6 0 -1 0 0 0 1 .03 31 457 28 0 453 458 454 0 +.673616204974312 -2
220446049250315e-31 .6 0 -1 0 0 0 1 .03 38 361 163 0 18 454 15 0 -401 362 459 46
0 461 462 40 31 459 0 1 31 .03834648454305525 .378041914565568 ??-.3463828870250
995 .001009950493835422 .573000000000157 -.346334503939599 .00744101062854944 .5
73000000461899 -.346328590135633 .00787472459928387 .573000000579382 -.346301585
574988 .00960953351951132 .573000001284854 -.346139978999491 .01654785223882215
 .573000011301466 -.3459448338712245 .02220169889718625 .573000036632172 -.34459
47500260805 .0447945569253584 .57300060849585 -.3421079734486655 .06917471165782
9 .573003475980275 -.321493090738729 .165371510450563 .573118041564127 -.2364710
186742165 .333936376384057 .575403708656415 -.1010100768391742 .464811704002058
 .589469181077519 -.084205765968983 .475904940071036 .595169026951676 -.08137412
75873345 .477691268144388 .597169263323318 -.0802538591524183 .478391564053065 .
598619939192924 -.0799645767116861 .478571810551503 .599431662404906 -.079923962
8429784 .478597097008198 .600317532041701 -.080118595112247 .478475874554768 .60
1079475968531 -.0807358336070094 .478090719052756 .602129740474817 -.08287778792
8553 .476745596029795 .60402139201647 -.09208347059166 .470811005460096 .6080689
19616706 -.1292307860602336 .444147580746962 .615649260547393 -.249839568608591
 .315004230930926 .625165694895101 -.300685189650908 .221965119975078 .626600013
854498 -.3267002555719905 .1474042088989124 .626926241819824 -.3386411431710265
 .0929427748190546 .626988600616866 -.343585705439424 .0559953521345398 .6269985
11511789 -.3454468066001495 .0324298497701742 .626999833090909 -.346089990130745
 .01816479317709375 .626999983589252 -.3462965529130305 .00989927882530937 .6269
9999855302 -.3463589940254765 .00527821424705254 .626999999883064 -.346382887025
248 .001009950493836816 .626999999999843 41 2 460 TF-.346383795025688 -785532536
015646e-30 .573 -.3463828870250995 .001009950493835422 .573000000000157 41 2 461
 TF-.346383795025688 -785532536015646e-30 .627 -.346382887025248 .00100995049383
6816 .626999999999843 204 132 462 4 3.141592653589795 -1.57079632679489 6.283185
30717959 1.570796326794895 3.139976731858545 -1.570799734199925 .001980296023033
91 1.570792919379665 3.12968666016551 -1.570981299055755 .01459059172498528 1.57
061135453415 3.12899264807619 -1.5710034915004 .01544108071290395 1.570589162089
285 3.12621658917487 -1.57110483020426 .0188430298982775 1.570487823385495 3.115
111948724835 -1.57171128345746 .03245089264548965 1.569881370132305 3.1060599306
6156 -1.57244359569985 .04354270480154215 1.56914905788989 3.06983901387136 -1.5
7751003932711 .0879144614584743 1.564082614262695 3.03060864193156 -1.5868426829
3025 .1359398672522512 1.554749970659545 2.872697537388905 -1.66433882089055 .32
85408737549125 1.477253832699242 2.56640615592287 -1.995953893868155 .6955200892
10638 1.145638759721636 2.255656363823255 -2.740928121939175 1.05324171065169 .4
006645316506185 2.22217574470908 -2.96169901672289 1.090695986316674 .1798936368
66904 2.216600384920865 -3.036557529775435 1.09691109251244 .1050351238143602 2.
214399624991355 -3.0904570079014 1.099362643224372 .0511356456883945 2.213831786
4134 -3.120541558271255 1.09999503100926 .0210510953185399 2.21375207948626 3.12
983193648985 1.10008379339964 -.01176071709994222 2.214134089203935 3.1016014033
46705 1.099658372020462 -.039991250243089 2.215346116734825 3.062631349846175 1.
098308413185284 -.0789613037436164 2.219558751246695 2.992095973845195 1.0936140
5239303 -.1494966797446 2.237784810834155 2.83810647819077 1.073262411948422 -.3
03486175399021 2.31361364630766 2.523352153884135 .987878920870578 -.61824049970
5656 2.60405726163107 1.9415272764398 .651061889911139 -1.200065377149986 2.7756
87276274185 1.74313914869618 .445944154665642 -1.39845350489362 2.90272588072146
5 1.6447291223891 .29203537048304 -1.496863531200696 2.992141594995805 1.5998558
89331205 .1829802123351725 -1.541736764258585 3.05183897496133 1.581296774362635
 .1099552362658596 -1.56029587922715 3.08967368890419 1.574312524901455 .0636190
123079503 -1.56728012868835 3.11252350633048 1.57189887434793 .0356226962438763
 -1.56969377924179 3.125752921105015 1.571123716030715 .01941123320575075 -1.570
46893755886 3.133147376450165 1.570889396301755 .0103495734689792 -1.57070325728
871 3.13997673185854 1.57079973419443 .001980296023036065 -1.57079291937417 3.14
1592653589795 1.57079632679489 6.28318530717959 -1.570796326794895 31 458 27 0 4
56 463 457 0 +-.346383795025688 -1665334536937735e-31 .6 0 1 0 0 0 1 .03 16 456
 9 0 ?374 453 464 458 0 0 7 31 463 26 0 464 465 458 0 +-.346383795025688 -.23821
7522296029 .6 0 1 0 0 0 1 .03 16 464 6 0 ?466 456 451 463 0 0 7 31 465 116 0 451
 467 463 0 +.673616204974312 -.1 .6 0 -1 0 0 0 -1 .027 16 451 81 0 ?450 464 390
 465 0 0 7 31 467 117 0 396 468 465 0 +-.346383795025688 -.238217522296029 .6 0
 1 0 0 0 1 .027 16 396 83 0 ?469 391 376 467 0 0 7 31 468 118 0 390 392 467 0 +.
673616204974312 -2220446049250315e-31 .6 0 -1 0 0 0 -1 .027 16 390 86 0 ?470 451
 386 468 0 0 7 31 392 119 0 386 471 468 0 --.346383795025688 -1665334536937735e-
31 .6 -1345073171421928e-31 -1 0 1 -1345073171421928e-31 0 .027 38 471 245 0 376
 472 392 0 -363 437 473 474 475 476 16 376 204 0 ?375 396 360 471 0 0 7 38 472 2
46 0 477 478 471 0 +437 401 479 480 480 481 54 363 243 0 408 401 482 483 +.27861
6204974312 -1110223024625156e-31 .6 0 0 1 .625 .03 1 0 0 40 34 473 0 1 34 .03175
553049578525 .382869666323804 ??-.346382887024817 .001009950493835422 .570000000
000141 -.346323742213368 .00821319903321006 .570000000617049 -.3463156841914155
 .0087468611053476 .570000000793753 -.3462783810987245 .0108814304144561 .570000
001901291 -.346048034816667 .0194181355342625 .57000001928907 -.345740480266871
 .02687483495380145 .570000070810922 -.343519308433102 .0566541639052966 .570001
403965569 -.338884529777328 .0914801788588245 .570009624092844 -.298419160973981
5 .2271651131387225 .570396253094151 -.1943614715980045 .3845782698587745 .57425
6200965488 -.1253963750055252 .4471148489269685 .58003372191149 -.08761409583258
86 .473723658959812 .585420345332318 -.0681668126925702 .485720544953492 .589735
569963158 -.0584915002771625 .491296383909588 .592990836287409 -.053848171043858
1 .493883348435264 .595367492742984 -.0522256672004554 .494773946230689 .5965812
68467961 -.0508504931341453 .495523413786836 .598166238014762 -.0504285384484732
 .495752394265641 .599105313031862 -.0503010299954055 .495821498040822 .60015962
8109487 -.0504870747864633 .49572065613813 .601075235315269 -.0511117099230839 .
49538142899284 .602224191323804 -.0528236004246074 .494446538480983 .60391093180
0863 -.0619522726871438 .489331006251997 .608334397911902 -.0993772139298215 .46
592752415943 .616542198747849 -.2263983696944965 .347183932243284 .6274263484519
46 -.287830521609819 .249764718972423 .629407532127985 -.3204036454317475 .16886
8915544681 .629884289077944 -.335870988244665 .1081672600506998 .629981084099908
 -.3424840994942865 .0660731696056623 .629997397846306 -.345047343911578 .038723
79041797985 .629999694394565 -.3459564094127885 .02190712207780505 .629999968746
927 -.346254830148866 .01203561288524612 .629999997154257 -.346346663955868 .006
45830853315564 .6299999997641 -.3463828870248385 .00100995049383567 .62999999999
9859 41 2 474 TF-.346383795025688 -785532536015646e-30 .57 -.346382887024817 .00
1009950493835422 .570000000000141 41 2 475 TF-.346383795025688 -785532536015646e
-30 .63 -.3463828870248385 .00100995049383567 .629999999999859 204 144 476 4 3.1
41592653589795 -1.57079632679489 6.28318530717959 1.570796326794895 3.1399767318
58545 -1.570799393468845 .001980296023035005 1.57079326013061 3.12845102893939 -
1.57099914833558 .0161048158588961 1.570593505253965 3.12759706439366 -1.5710263
63388495 .0171513168583863 1.570566290201405 3.12418118766737 -1.571152350344315
 .02133731028466925 1.57044030324554 3.11051694411379 -1.57193031893328 .0380814
395248373 1.569662334656455 3.098575166612065 -1.572969050891 .0527134299016178
 1.56862360269885 3.05077910446289 -1.580470955194495 .111252771180929 1.5611216
9839529 2.99451653489777 -1.596126950502715 .1800777367243145 1.54546570308708 2
.76654965306756 -1.73350844347853 .456954780024166 1.408084210111262 2.458914639
007205 -2.109982851442455 .821205867076678 1.031609802147344 2.305596332843725 -
2.413372071917475 .996959904378386 .728220581672315 2.22891105238452 -2.63409880
191225 1.083179438133542 .507493851677543 2.190827345683875 -2.792391091026885 1
.125559258563732 .3492015625629075 2.17217287660804 -2.905774277001965 1.1462099
01063708 .23581837658783 2.163283446198025 -2.986555397563865 1.156025355805354
 .1550372560259275 2.16018649530288 -3.027386833877215 1.159441085540434 .114205
81971258 2.157565312342785 -3.08042912598826 1.16233052443052 .0611635276015324
 2.15676170611273 -3.111765332107505 1.16321608805776 .0298273214822901 2.156518
929848925 3.13627169149851 1.163483598039316 -.00532096209128366 2.1568731689486
2 3.10574379843878 1.163093265449516 -.0358488551510131 2.15806295302962 3.06738
485365794 1.161782063807952 -.0742077999318517 2.161327249726615 3.0108561529517
9 1.158183140477992 -.1307365006380036 2.178824553272745 2.86007564046072 1.1388
54651157196 -.281517013129076 2.252372054476095 2.55754323119522 1.0569257731710
16 -.584049422394572 2.53932357796318 1.988034512794295 .727364204374112 -1.1535
581407955 2.726304874922945 1.769865545684655 .505338070111401 -1.37172710790513
4 2.866814879372975 1.65865431147784 .3356841948694485 -1.482938342111956 2.9673
49221743185 1.606309599681585 .213263530881047 -1.53528305390821 3.0356104143830
35 1.58396748547178 .1298192736025308 -1.55762516811801 3.079581427018055 1.5753
1005366723 .0759819354837022 -1.56628259992254 3.10653164672264 1.57223977356584
 .0429647117270243 -1.569352880023945 3.122334079902525 1.571231891003575 .02360
0827199498 -1.570360762586355 3.13125911383015 1.570921732757985 .01266359511741
844 -1.570670920831985 3.13997673185854 1.570799393468125 .001980296023035405 -1
.57079326012989 3.141592653589795 1.57079632679489 6.28318530717959 -1.570796326
794895 14 408 231 484 ?402 406 485 13 363 +399 399 406 399 368 50 482 241 0 406
 363 419 0 +.903616204974312 -1110223024625156e-31 .6 177635683940025e-30 1 0 -1
 177635683940025e-30 0 141 483 15 486 486 363 141 486 471 483 483 363 14 406 225
 487 ?408 399 488 13 482 -0 0 402 408 368 51 419 113 0 393 482 362 0 +-.34638379
5025688 -.238217522296029 .6 0 1 0 .027 0 0 1 81 1 487 432 194 406 489 0 484 490
 491 15 488 226 0 492 406 493 17 492 0 488 492 492 0 494 495 0 0 +15 493 227 0 4
96 406 0 17 496 0 493 496 496 0 497 498 0 0 -17 497 0 499 497 497 0 496 498 0 0
 +16 498 205 0 ?497 500 495 501 0 0 7 16 500 200 0 ?502 477 498 478 0 0 7 16 495
 198 0 ?492 498 0 503 0 0 7 31 501 248 0 498 503 478 0 +.903616204974312 -111022
3024625156e-31 .6 177635683940025e-30 1 0 -1 177635683940025e-30 0 .03 31 503 24
9 0 495 0 501 0 +.903616204974312 -2220446049250315e-31 .6 177635683940025e-30 1
 0 -1 177635683940025e-30 0 .027 31 478 247 0 500 501 472 0 +-.346383795025688 -
344818775158061e-31 .6 -3001003638547605e-31 -1 0 1 -3001003638547605e-31 0 .03
 17 502 0 447 377 377 379 504 500 0 375 +16 477 194 0 ?505 360 500 472 0 0 7 17
 505 0 506 505 505 0 507 477 0 0 +16 360 191 0 ?508 376 477 15 0 0 7 17 508 0 42
8 508 508 0 509 360 0 0 +15 428 168 0 508 410 510 17 509 0 407 509 509 0 508 360
 0 0 -15 407 217 0 509 399 0 15 510 101 0 470 410 0 17 470 0 510 470 470 0 511 3
90 0 0 +17 511 0 512 511 511 0 470 390 0 0 -15 512 108 0 511 400 0 15 506 180 0
 505 415 0 17 507 0 416 507 507 0 505 477 0 0 -15 416 237 0 507 402 513 15 513 2
38 0 494 402 0 17 494 0 513 494 494 0 492 495 0 0 -14 415 182 490 ?0 402 506 13
 437 +430 430 0 402 368 81 1 490 434 194 415 514 0 487 0 515 81 1 514 366 268 41
5 0 490 516 0 517 82 1 515 -2079915884 81 1 516 365 268 402 0 414 518 514 519 83
 3 517 .792156862745098 .819607843137255 .933333333333333 81 1 414 415 194 402 5
16 0 409 417 520 81 1 518 364 268 408 0 484 489 516 521 83 3 519 .79215686274509
8 .819607843137255 .933333333333333 81 1 484 431 194 408 518 0 445 487 522 81 1
 489 363 268 406 0 487 523 518 524 83 3 521 .752941176470588 0 0 81 1 523 362 26
8 399 0 404 403 489 525 83 3 524 .792156862745098 .819607843137255 .933333333333
333 81 1 404 411 194 399 523 0 398 409 526 81 1 403 361 268 397 0 398 527 523 52
8 83 3 525 .792156862745098 .819607843137255 .933333333333333 81 1 527 360 268 4
00 0 409 529 403 530 83 3 528 .792156862745098 .819607843137255 .933333333333333
 81 1 409 413 194 400 527 0 404 414 531 81 1 529 359 268 410 0 427 532 527 533 8
3 3 530 .792156862745098 .819607843137255 .933333333333333 81 1 427 422 194 410
 529 0 422 429 534 81 1 532 358 268 393 0 417 433 529 535 83 3 533 .792156862745
098 .819607843137255 .933333333333333 81 1 417 417 194 393 532 0 414 420 536 81
 1 433 357 268 418 0 429 537 532 538 83 3 535 .792156862745098 .819607843137255
 .933333333333333 81 1 537 356 268 430 0 434 539 433 540 83 3 538 .7921568627450
98 .819607843137255 .933333333333333 81 1 434 426 194 430 537 0 429 442 541 81 1
 539 355 268 436 0 445 444 537 542 83 3 540 .792156862745098 .819607843137255 .9
33333333333333 81 1 445 429 194 436 539 0 442 484 543 81 1 444 354 268 424 0 442
 544 539 545 83 3 542 .752941176470588 0 0 81 1 544 353 268 358 0 422 421 444 54
6 83 3 545 .792156862745098 .819607843137255 .933333333333333 81 1 422 420 194 3
58 544 0 420 427 547 81 1 421 352 268 356 0 420 0 544 548 83 3 546 .792156862745
098 .819607843137255 .933333333333333 83 3 548 .792156862745098 .819607843137255
 .933333333333333 82 1 547 139264146 82 1 543 136118420 82 1 541 136839316 82 1
 536 145096852 82 1 534 144703636 82 1 531 144572562 82 1 526 -2081292140 82 1 5
22 -2098986860 82 1 520 -2092564332 15 447 10 0 377 436 549 17 377 0 447 502 502
 19 374 456 0 504 -17 504 0 485 375 375 19 502 500 0 0 -17 375 0 485 504 504 379
 371 376 0 0 +15 485 233 0 504 408 499 15 499 234 0 497 408 0 17 374 0 373 371 3
71 379 377 456 0 502 +15 373 186 0 371 430 550 15 550 14 0 551 430 0 17 551 0 55
0 551 551 0 455 453 0 0 -17 455 0 439 455 455 0 551 453 0 0 +15 439 15 0 455 418
 0 15 549 7 0 466 436 0 17 466 0 549 466 466 0 552 464 0 0 +17 552 0 553 552 552
 0 466 464 0 0 -15 553 51 0 552 358 0 82 1 491 -2097020780 40 29 479 0 1 29 .040
1919421958279 .3833070652120395 ??-.3585590264202375 .1356975974024136 .60535027
2746552 -.3563811821819415 .1388212359350006 .610211196789872 -.3519724602157135
 .1455325338123344 .615418774407183 -.3390187559857545 .167907924225874 .6224153
99888225 -.282923402665492 .272470686580019 .626986712348115 -.1416414449223422
 .436836902569327 .619350946882445 -.1012058144400076 .466762362334304 .61376771
3066573 -.0803211250590223 .48021862073739 .608982846502789 -.0700385313770288 .
486389656997482 .604875458843303 -.0681300124973427 .487503371832681 .6036005687
65954 -.0664767219926373 .488460259843444 .601882081368228 -.0660349311423974 .4
88714724313505 .601007445953562 -.0658577142494474 .488816652497425 .60000595025
0902 -.0659940801084682 .488738227626652 .599116227827603 -.0664986793462607 .48
8447599204492 .598084867408911 -.0678743846004066 .487651801050027 .596607212491
759 -.0735950204042095 .484288020922249 .593388977458615 -.102530533907742 .4658
65386209921 .585994678751292 -.208084999060202 .3739300431588645 .57545066692831
5 -.2799492748825125 .277367245144279 .573034227751913 -.327257034127573 .190447
5675338585 .574960437361055 -.338021749958303 .1697616136234115 .577274440956535
 -.3480375246886365 .151941905095629 .581655413387732 -.353551515642087 .1430699
95236789 .58611328903945 -.3569083769683965 .138053326935761 .590695766399198 -.
3585775850601455 .135671531184518 .594713048850384 -.3592773904192535 .134695453
6034126 .598520510183543 -.359165096519647 .1348511839964316 .602524068947146 -.
358559026420237 .1356975974024156 .605350272746552 41 1 480 H?-.3585590264202375
 .1356975974024136 .605350272746552 204 116 481 4 .254246142768229 -.17930161168
7758 2.93176002969829 .1994785518172225 .260881137628559 -.347313795680374 2.926
361865533495 .38784296793024 .2751076183456805 -.539793829973802 2.9147756286258
4 .607803495174511 .322400275868951 -.843808877164822 2.876151504905175 .9794663
47653096 .547873063662541 -1.11875444640602 2.68983817135076 1.602170699345405 .
960882303641251 -.701064586574962 2.33685335069621 2.34253141090256 1.0547231095
0044 -.476783495887366 2.253857818389725 2.60650633028284 1.100791944422316 -.30
4093318760762 2.21266066078156 2.80242951694643 1.12296275563107 -.1632393043412
3 2.19272313585968 2.96002411459857 1.127043236225886 -.120308979277956 2.189045
654652075 3.007839808961485 1.130569530520004 -.0627772715393846 2.1858655996977
2 3.071829361325485 1.13151049901527 -.03358784674739545 2.18501670451466 3.1042
71176963415 1.131887796266146 -.0001983416980263125 2.18467628789709 3.141372273
92498 1.13159747936737 .02946333502335565 2.18493822836768 -3.10885450317057 1.1
30522749118624 .0638811919713081 2.185907800058505 -3.070602204141705 1.12758897
6908114 .1133353916638864 2.188553622161965 -3.015600790035565 1.115330384908764
 .2221911324232685 2.19959498425052 -2.89422490220912 1.051750630566516 .4857186
8501588 2.256505457636945 -2.596244702248335 .788387352080629 .958466482352799 2
.48648526834162 -2.00015104822809 .558824336788165 1.117159085350676 2.680692254
959865 -1.621154294335905 .3700990207187575 .987500808250901 2.837036310669125 -
1.18737779652588 .326316712372163 .859503653926416 2.87294577070232 -1.000400617
768044 .288667654987676 .657937538329115 2.903717766249645 -.746984332849356 .26
98915534964515 .481253166921065 2.919025487447705 -.54021761315293 .259250919739
555 .3153414683470135 2.927688521812295 -.351813978717501 .2541907315056575 .177
156917639068 2.931805096762905 -.197086436654761 .2521152415573595 .049336339499
6364 2.933492952889605 -.0548233778838835 .25244645368723 -.084235212390952 2.93
3223624008675 .0936207369912877 ????17 469 0 425 469 469 0 554 396 0 0 +15 425 7
7 0 469 358 553 17 554 0 394 554 554 0 469 396 0 0 -15 394 96 0 554 393 0 17 450
 0 411 450 450 0 448 451 0 0 +15 411 107 0 450 400 512 51 440 23 0 436 412 437 0
 +-.346383795025688 -.238217522296029 .6 0 1 0 .03 0 0 1 51 412 111 0 400 362 44
0 0 +.673616204974312 -2220446049250315e-31 .6 0 -1 0 .027 0 0 -1 82 1 446 14011
6114 141 441 472 555 555 437 141 555 471 441 441 437 82 1 435 137232530 141 426
 361 556 556 362 141 556 15 426 426 362 82 1 423 -2084372332 141 413 361 557 557
 401 141 557 472 413 413 401 82 1 405 -2082799468 19 357 60 0 7 0 17 13 0 S0 40
 28 364 0 1 28 .03120612879153315 .385544047053034 ??-.305582566762148 .13388138
47458122 .615547842523268 -.305863625733956 .1523830396149225 .621441524320347 -
.2950583430959815 .2094170670652165 .626374079428499 -.238642061133933 .32404458
2890119 .626195228445201 -.1180819115654474 .450310059200888 .61676822649966 -.0
833283359630132 .474548815382815 .610304650218104 -.0702040956288839 .4827234057
26444 .605794121616719 -.0674217095083866 .484392421298914 .604209359963534 -.06
49811877076601 .485838373256439 .601918699600784 -.0645158937244605 .48611215405
6227 .600995564712709 -.0643470835469394 .486211333184968 .600118347802423 -.064
4485559500621 .486151725787808 .599224473705085 -.0648930494473506 .485890280593
714 .598218946865618 -.0661038309611659 .485175311253905 .596813480741933 -.0709
77707070642 .482255440322495 .593839550597391 -.0954257041086043 .46655485484780
1 .586963462239583 -.1858890685133685 .389615941917531 .576563664762859 -.280910
4256205705 .2476238992380365 .573024787612314 -.300112983527464 .190842723349049
 .574384980020044 -.30603424650069 .1432148754363 .580815617846335 -.30557271923
91235 .1337676902009594 .58451003752526 -.3045497451863445 .1255486468489332 .59
0549423421814 -.304069868272952 .122853091959806 .594565243001219 -.303827022134
4725 .121632647789094 .599303823647443 -.303930682203356 .1221436010917874 .6035
78501964313 -.3042596375851345 .1238686235988362 .607262525046573 -.304952234733
3815 .128220231652445 .611963251796136 -.305582566762148 .1338813847458124 .6155
47842523268 41 1 365 H?-.305582566762148 .1338813847458122 .615547842523268 204
 112 366 4 .2779539954601195 -2.52795406974489 2.916311809262995 2.5967758594874
75 .313850581726108 -2.22401705777809 2.886554375590615 2.345372572858645 .42830
4141268074 -1.78653862984431 2.79157802506955 2.0675464872518 .678124134956299 -
1.3260286329356 2.581940016627435 2.07991526841018 1.011790975140416 -.670075834
42129 2.292983154218615 2.54848466798371 1.090979905739144 -.391584777099325 2.2
22384217752235 2.790963935137215 1.11972473961031 -.216279297581273 2.1965355424
9942 2.9472339149282 1.125746480848726 -.1565407769889965 2.191105039226375 3.00
0816129788975 1.131008393933234 -.0711228951401851 2.186355322672865 3.077592317
82323 1.132009506616196 -.0368811276284277 2.185451188351445 3.108401069077275 1
.132372549294822 -.004383265977531375 2.185123276610045 3.13764771661018 1.13215
43335123 .028727147119751 2.18532037844935 -3.11573889700831 1.131198080667658 .
06601286448213 2.18618402256407 -3.082189285233995 1.128590201481078 .1182949359
50856 2.188538642725575 -3.03517459811489 1.118046096435124 .230192338333802 2.1
9804840710914 -2.934773061630325 1.063952107219094 .503888895823226 2.2465793648
9564 -2.69205267996954 .839613035644174 1.051185358622252 2.443650813411035 -2.2
4498902952409 .508240344127344 1.613649569892785 2.72494334074322 -2.02371500080
84 .390414184861423 1.89248000606157 2.82306000245437 -2.118285905700625 .295982
0708506415 2.351337735330225 2.901364889716285 -2.447771724118935 .2777354425042
855 2.53057373903524 2.916493054701085 -2.59903026713692 .2620065564102195 2.783
99875320511 2.929541208627445 -2.821115749296685 .256879348125436 2.938920714961
98 2.933796797334365 -2.959428270959815 .254563239961603 3.11580548634772 2.9357
19612650835 -3.11838469188927 .2555324992599375 -3.008664417727465 2.93491490550
432 3.02202455688994 .2588091128857705 -2.86925630739099 2.9321949377858 2.89707
9314449635 .2671037013542495 -2.68255744151037 2.92531176885787 2.73141193760068
5 ????74 20 355 5 0 0 490 558 354 514 10 0 0 0 0 0 0 0 0 0 0 0 0 0 0 0 81 2 558
 287 348 7 0 354 0 0 559 0 81 2 354 305 560 7 558 10 0 0 561 0 80 2 560 562 563
 8004 0 0 0 0 3 5 0 0 0 FFTFFFFFFFFFFFFF2 3 83 1 561 1 79 16 563 SDL/TYSA_DENSIT
Y84 11 559 Sweep-Thin574 20 6 1 0 0 2 0 0 0 0 0 0 0 0 0 0 0 0 0 0 0 0 0 0 0 80 2
 5 564 565 9000 0 0 0 0 3 5 0 0 0 TFFFFFFFFFFFFFFF9 1 79 18 565 MULTI_BODY_ID_20
011 0 
