**ABCDEFGHIJKLMNOPQRSTUVWXYZabcdefghijklmnopqrstuvwxyz**************************
**PARASOLID !"#$%&'()*+,-./:;<=>?@[\]^_`{|}~0123456789**************************
**PART1;
MC=AMD64;
MC_MODEL=Intel64 Family 6 Model 186 Stepping 2, GenuineIntel;
MC_ID=unknown;
OS=Windows_NT;
OS_RELEASE=unknown;
FRU=Parasolid Version 34.1, build 247, 10- 7-2022;
APPL=SOLIDWORKS 2023-2023010;
SITE=;
USER=unknown;
FORMAT=text;
GUISE=transmit;
KEY=LinhaBaixaP_LinhaLaranja;
FILE=LinhaBaixaP_LinhaLaranja.x_t;
DATE=Mon May 13 15:56:44 2024;
**PART2;
SCH=SCH_3401247_34101;
USFLD_SIZE=0;
**PART3;
**END_OF_HEADER*****************************************************************
T51 : TRANSMIT FILE created by modeller version 340124723 SCH_3401247_34101_1300
6231 0 12 36 CCCI7 lattice222 0 CCCI4 mesh1006 0 I8 polyline1008 0 CCCCCCCDI5 ow
ner1040 0 CCCI16 boundary_lattice222 0 CCCI13 boundary_mesh1006 0 I17 boundary_p
olyline1008 0 CCCA16 index_map_offset0 0 1 dA9 index_map82 0 A17 node_id_index_m
ap82 0 A20 schema_embedding_map82 0 A5 child12 0 A14 lowest_node_id0 0 1 dA16 me
sh_offset_data206 0 Z1 597 2 3 0 0 0 0 0 0 0 1e3 1e-8 0 4 0 1 0 1 1 5 0 6 7 8 0
 0 9 10 11 0 0 0 0 0 0 0 81 255 2 2 560 12 1 13 0 0 0 0 14 70 11 CI9 list_type0
 0 1 uI10 notransmit0 0 1 lCCCDCCDI12 finger_index0 0 1 dI12 finger_block1012 0
 CZ3 0 4 T1 0 0 10 20 1 15 15 13 255 5 59 0 1 0 16 0 0 17 0 50 255 6 55 0 18 19
 0 0 +-.476383795025688 -.2 0 -277555756156289e-30 -1 0 0 0 1 38 12 CCCCCCCCCCCA
17 intersection_data204 0 Z7 220 0 10 20 0 0 +21 22 23 24 25 26 29 255 8 259 0 1
1 27 0 -.463152139487016 -367252215823573e-32 .0269243995607316 19 9 CCCCCCI5 fr
ame230 0 CA5 owner12 0 Z9 60 0 1 17 0 28 0 V0 16 255 10 218 0 ?29 0 30 7 0 0 1 1
8 255 11 257 0 31 0 32 8 ?1 17 255 31 0 33 34 34 11 35 36 0 37 -18 32 252 0 38 1
1 39 27 ?1 17 38 0 40 41 42 32 43 44 0 45 -18 39 208 0 46 32 47 48 ?1 29 27 253
 0 32 48 8 -.468832772080126 -209582988340899e-32 -.029034153207483 29 48 210 0
 39 49 27 -.474624902117807 -48819085104497e-32 .0269426482688433 29 49 204 0 47
 50 48 -.468832772080126 -2095829883408995e-33 -.02592261662092765 18 47 202 0 5
1 39 52 49 ?1 29 50 408 0 52 53 49 -.468832772080126 356987043811193e-31 .029034
153207483 18 52 329 0 41 47 54 50 ?1 29 53 409 0 54 55 50 -.474624902117807 4912
45521888709e-31 -.0269426482688433 18 54 331 0 56 52 57 53 ?1 29 55 411 0 57 58
 53 -.476383795025688 -.1317852524935656 -.03 18 57 330 0 42 54 59 55 ?1 29 58 4
12 0 59 60 55 -.476383795025688 -.1317852524935656 .03 18 59 327 0 61 57 62 58 ?
1 29 60 413 0 62 63 58 -.463152139487016 714342220735088e-32 -.02692439956073165
 18 62 333 0 34 59 64 60 ?1 29 63 416 0 64 65 60 -.468832772080126 4040341573964
525e-32 .0259226166209277 18 64 334 0 66 62 67 63 ?1 29 65 417 0 67 68 63 -.4763
83795025688 -.1317852524935656 .027 18 67 337 0 69 64 70 65 ?1 29 68 418 0 70 0
 65 -.476383795025688 -.1317852524935656 -.027 18 70 335 0 71 67 0 68 ?1 17 71 0
 72 51 69 70 73 74 0 75 +15 255 72 378 0 69 76 0 17 51 0 72 66 71 47 75 77 0 78
 -17 69 0 72 71 66 67 79 80 0 73 -17 73 0 81 79 75 67 71 74 0 0 -16 74 324 0 ?71
 82 83 84 0 0 1 17 75 0 81 73 85 70 51 77 0 0 +15 81 95 0 73 16 0 17 85 0 81 75
 79 47 86 87 0 0 -16 77 312 0 ?75 80 88 89 80 80 1 16 80 310 0 ?79 36 77 89 77 7
7 1 16 88 322 0 ?90 77 91 92 0 0 1 38 89 398 0 77 92 93 0 +94 95 96 97 98 99 31
 255 92 400 0 88 100 89 0 +-.476383795025688 -.1317852524935656 0 -1448116988641
51e-30 -1 0 0 0 1 .03 38 93 397 0 36 89 101 0 +102 95 103 104 105 106 51 255 94
 113 0 107 108 21 109 --.476383795025688 -.2 0 277555756156289e-30 1 0 .027 -1 2
77555756156289e-30 0 54 255 95 391 0 76 110 111 112 +.0986162049743118 -.1317852
524935656 0 0 0 1 .575 .027 1 0 0 40 255 30 96 0 1 30 .0091126501456808 .3638988
36357688 ??-.476383295025747 -.130712871964089 .0269999999953704 -.4763824911287
93 -.130053501097632 .0269999999685158 -.47637549495459 -.1274160233248782 .0269
999987242374 -.47635960400043 -.124326073041701 .0269999891628552 -.476341109722
92 -.121876862293023 .0269999662585887 -.47621497828407 -.112080468665196 .02699
947223387435 -.476007509755871 -.102366616893328 .0269973778244429 -.47587859367
0365 -.0976976723910762 .02699527313420965 -.475173630219836 -.07902751321808 .0
2697286601647435 -.474635980156894 -.0683819860301834 .02694336918769485 -.47150
4994436504 -.02585489161849215 .02655555129932325 -.460606555327848 .05870792666
26258 .02191069847168025 -.45303113915096 .0999713191756624 .01355188044503576 -
.451661574580172 .1066704184909764 .01085411517551222 -.450263648636024 .1133194
938828082 .00683651611440619 -.4497926229069115 .1155196117391994 .0046807654662
0254 -.4494558289367145 .117080819932226 .00197094959628493 -.449383795082184 .1
174134631332602 174664817841613e-20 -.4494558025437075 .1170809418932074 -.00197
058897043636 -.449726098822363 .1158287642091396 -.00428570100814682 -.450430907
021099 .1125334786969746 -.00744631480809448 -.452997915769861 .1001361184242576
 -.0134944674378753 -.462906533501816 .0442763887145796 -.02339579923441725 -.47
1709398713122 -.02809768564534975 -.026592292475698 -.474852272479781 -.07243458
39582767 -.0269565286840012 -.475910513586264 -.0987921121356559 -.0269958516198
1555 -.476244730462292 -.1139009438457646 -.02699964186886945 -.476344570766825
 -.1222870529070422 -.02699997150845755 -.476373078533899 -.126820584215502 -.02
69999978732741 -.476383295025588 -.1307128719640898 -.0269999999953704 41 3 CI8
 term_use0 0 1 cCZ2 97 TF-.476383795025688 -.1317852524935654 .027 -.47638329502
5747 -.130712871964089 .0269999999953704 41 2 98 TF-.476383795025688 -.131785252
4935654 -.027 -.476383295025588 -.1307128719640898 -.0269999999953704 204 2 17 I
NTERSECTION_DATA17 Intersection data7 uv_type0 0 1 u6 values0 1 1 fT128 99 4 1.5
70796326794895 .0682147475064345 3.141592653589795 1.570796326794895 1.570814845
31123 .0692871280359109 3.139727644513895 1.57077780827419 1.5708446192725 .0699
46498902368 3.138580914308165 1.570748034316025 1.5711037368404 .072583976675121
7 3.13399403072765 1.57048891674928 1.57169229081324 .0756739269582991 3.1286203
49505285 1.56990036277655 1.572377264593005 .078123137706977 3.12436109702053 1.
56921538899679 1.57704883944582 .0879195313348039 3.107326817478995 1.5645438141
43985 1.58473326944673 .097633383106672 3.090440965165695 1.556859384143065 1.58
950858009505 .1023023276089238 3.082327258597665 1.552084073494745 1.61563226601
366 .12097248678192 3.049904350937905 1.52596038757613 1.6355755072543 .13161801
39698166 3.03143762483233 1.50601714633549 1.752490704155055 .174145108381508 2.
95788434899846 1.38910194943475 ????????????????????????????????????????????????
4.5383864773999 .17190231435465 2.96175272772591 -1.396793823810102 4.6556354612
1428 .1275654160417232 3.038465594914185 -1.514042807624485 4.69485914039136 .10
1207887864344 3.08422901423652 -1.55326648680156 4.70723841822709 .0860990561542
354 3.11049201519814 -1.56564576463731 4.71093622954543 .0777129470929578 3.1250
7442120954 -1.56934357595562 4.71199207327096 .0731794157844981 3.13295850152786
 -1.57039941968131 4.71237046186247 .0692871280359102 3.139727644513895 -1.57077
780828007 4.71238898038469 .0682147475064345 3.141592653589795 -1.57079632679489
5 14 255 76 376 113 ?114 115 72 5 95 -116 116 114 107 28 51 110 392 0 117 0 95 0
 +.673616204974312 -.2 0 0 1 0 .027 0 0 1 51 111 389 0 118 95 22 0 +.67361620497
4312 -.2 0 0 1 0 .03 0 0 1 141 255 112 20 119 120 95 38 20 213 0 30 121 7 0 +21
 95 122 123 124 125 141 119 101 126 112 95 141 120 89 112 126 95 141 126 93 120
 119 95 38 101 396 0 127 93 128 0 +129 95 130 131 132 133 16 127 308 0 ?134 135
 36 101 0 0 1 38 128 395 0 135 101 136 0 +94 22 137 138 139 140 51 129 23 0 141
 142 102 143 --.476383795025688 -.2 0 277555756156289e-30 1 0 .03 -1 27755575615
6289e-30 0 40 13 130 0 1 13 .00755708230522715 .380806367978351 ??-.463152133418
3 2e-7 -.02692439657833735 -.460351116171384 -.04461290269127475 -.0253565220161
3525 -.45604086165373 -.0589653577652446 -.02204915104542775 -.452183874537423 -
.06665538560637 -.0177303087497548 -.4489976169306865 -.0713596170101386 -.01224
73364185386 -.446820454012278 -.0740291684613231 -.00509988903063687 -.446445834
0295025 -.0744533548984906 .001928339023837815 -.447594932194227 -.0731212144991
634 .0084380908309477 -.4499078755377655 -.0701252103423967 .01410764641139816 -
.45292961729961 -.0653752682236708 .0187056554868714 -.45719771423735 -.05597203
29465956 .02306283382378155 -.461698817379076 -.0367459338024291 .02616011145844
955 -.4631521334183 1999999999948875e-22 .02692439657833735 41 1 131 L?-.4631521
334183 2e-7 -.02692439657833735 41 1 132 L?-.4631521334183 1999999999948875e-22
 .02692439657833735 204 52 133 4 4.255614701393085 .2000002 2.91116890357401 -1.
49594401233699 4.14856448505144 .1553870973087255 2.98688633710581 -1.9215021750
45365 3.96721760147065 .1410346422347554 3.01105112635844 -2.186035857993095 3.7
73903352392325 .13334461439363 3.02389325603609 -2.425187087944665 3.56212288843
01 .1286403829898614 3.03169372861135 -2.67078630540586 3.31241856910394 .125970
8315386768 3.03609615227363 -2.95156629524972 3.077270341210745 .125546645101509
4 3.036793838821095 3.070111833326835 2.856475690498955 .1268787855008366 3.0346
01022515655 2.82374591323545 2.652013091526245 .1298747896576032 3.0296517566100
25 2.591805896023355 2.46835323659905 .1346247317763292 3.02176251298954 2.37622
516016111 2.26469090647939 .1440279670534044 3.00602888501356 2.11762271863408 2
.08231174057643 .163254066197571 2.97357412803606 1.82087474814171 2.02757060578
65 .2000002 2.91116890357401 1.49594401233699 14 141 2 144 ?145 146 147 5 129 -1
48 148 146 145 28 51 142 111 0 115 21 129 0 -.903616204974312 0 0 0 -1 0 .027 0
 0 -1 54 102 24 0 145 129 149 150 -.213616204974312 -901403282336476e-31 0 0 0 -
1 .69 .03 -1 0 0 141 143 101 151 151 129 141 151 152 143 143 129 38 152 393 0 44
 136 153 0 +129 22 154 155 156 157 16 44 306 0 ?43 158 159 152 158 158 1 38 136
 394 0 159 128 152 0 +102 22 160 161 162 163 31 153 119 0 164 152 165 0 --.47638
3795025688 0 0 277555756156289e-30 1 0 -1 277555756156289e-30 0 .027 54 22 388 0
 114 111 108 166 +.0986162049743118 -.1317852524935656 0 0 0 1 .575 .03 1 0 0 40
 31 154 0 1 31 .0123246837718205 .3784539912780035 ??-.476383295025695 -.1307128
71964089 .02999999999583335 -.47638234615517 -.129959765644918 .0299999999650129
5 -.476373618800474 -.1269473481969896 .029999998274074 -.476352800186669 -.1233
42022676647 .02999998398866165 -.476326986938425 -.1203546531783164 .02999994621
397215 -.476324400867025 -.1200973713799594 .0299999412055077 -.476313481046772
 -.1190682500359776 .0299999175989597 -.476260593771573 -.114951866486451 .02999
97470231165 -.475901762633058 -.0984884883407229 .02999612716289315 -.4753207124
05584 -.0823374009099038 .0299811583389107 -.474981406415713 -.0749918215094985
 .029967203843312 -.473156730936287 -.0456327864486373 .0298259292791172 -.45846
8058100819 .071207838342551 .0240629667838126 -.45222511178989 .1039369811678674
 .0177864562044376 -.4489144854231155 .119569898808167 .01205972760712356 -.4473
52014242528 .1266196541960492 .00756013918909771 -.4468113511323345 .12901471099
32278 .00504683684841 -.4464444202188725 .1306277084204794 .00190626235786535 -.
4463862968773 .1308823049650844 -.000387433655535062 -.446500058514029 .13038376
5463964 -.002638615565357285 -.446878833407264 .1287169772903174 -.0054274524314
206 -.447860611001704 .1243462044873444 -.00929666462415077 -.451462040130908 .1
076307792545064 -.01670048301590455 -.464843247299382 .0311357706142742 -.027691
43835514585 -.472405199453741 -.03612559633968365 -.0297350092866117 -.475091887
514287 -.0772748197653059 -.02997217000789215 -.475987755584506 -.10160428639373
48 -.0299973857654468 -.476268197830954 -.115479623162287 -.02999977728731615 -.
476351360812852 -.1231481992041672 -.02999998246702555 -.476374969221686 -.12727
97725844436 -.02999999870175305 -.476383295025615 -.1307128719640894 -.029999999
99583335 41 2 155 TF-.476383795025688 -.1317852524935654 .03 -.476383295025695 -
.130712871964089 .02999999999583335 41 2 156 TF-.476383795025688 -.1317852524935
654 -.03 -.476383295025615 -.1307128719640894 -.02999999999583335 204 132 157 4
 1.570796326794895 .0682147475064345 3.141592653589795 1.570796326794895 1.57081
299346133 .0692871280359109 3.139727644513895 1.570779660127995 1.57084462247886
5 .0700402343550819 3.13841789651957 1.57074803110971 1.57113553430853 .07305265
18030104 3.133178956621415 1.570457119281525 1.57182948827934 .0766579773233529
 3.126909039479045 1.569763165310535 1.572689930835325 .0796453468216835 3.12171
400506371 1.56890272275445 1.57277613337702 .0799026286200405 3.121266603662005
 1.568816520212755 1.573140128238 .0809317499640224 3.11947702901825 1.568452525
351795 1.5749030468088 .0850481335135489 3.11231929027831 1.566689606781 1.58686
476467122 .101511511659277 3.083701411131835 1.554727888918565 1.606239834604235
 .1176625990900962 3.055649329011365 1.53535281898556 1.617559655674765 .1250081
784905014 3.04290165085686 1.52403299791503 1.67857366473169 .1543672135513625 2
.992041634704965 1.463018988858102 ?????????????????????????????????????????????
???4.57937726499887 .1638744036603165 2.975610157743815 -1.43778461140908 4.6693
1207551488 .122725180234694 3.04686280476654 -1.52771942192509 4.69918728220599
 .0983957136062652 3.08911606268222 -1.5575946286162 4.70853573102502 .084520376
8377129 3.113236937457445 -1.566943077435215 4.71130783974621 .0768518007958327
 3.12657197376858 -1.569715186156375 4.71209478691371 .0727202274155564 3.133757
076446385 -1.570502133323725 4.71237231371557 .0692871280359105 3.13972764451389
5 -1.57077966013068 4.71238898038469 .0682147475064345 3.141592653589795 -1.5707
96326794895 14 114 365 167 ?168 76 169 5 22 +168 168 168 76 28 50 108 385 0 170
 22 94 0 +.673616204974312 -.2 0 0 1 0 0 0 1 141 166 7 171 172 22 141 171 152 17
3 166 22 141 172 128 166 173 22 141 173 136 172 171 22 14 170 355 174 ?118 116 1
75 5 108 -0 0 117 118 28 81 1 174 567 176 170 177 0 167 178 179 14 118 361 178 ?
117 170 180 5 111 +0 0 170 116 28 14 116 347 181 ?170 168 182 5 95 -76 76 118 16
8 28 15 175 356 0 183 170 184 14 117 372 185 ?186 118 187 5 110 -0 0 186 170 28
 13 28 3 0 0 0 0 0 0 9 16 14 16 236 188 ?189 0 190 5 94 +107 107 189 0 28 81 1 1
88 575 176 16 191 0 185 192 193 14 189 214 192 ?18 16 194 5 21 +195 195 196 16 2
8 15 190 96 0 197 16 81 14 107 91 198 ?195 196 199 5 94 +16 16 76 195 28 81 1 19
8 579 176 107 200 0 192 201 202 14 195 97 201 ?115 107 203 5 21 +189 189 107 115
 28 14 196 16 204 ?107 145 205 5 149 -0 0 145 189 28 15 199 247 0 206 107 0 17 2
06 0 199 207 207 54 208 135 0 29 -17 207 0 199 206 206 39 56 164 0 208 -17 208 0
 169 29 29 39 206 135 0 0 +16 135 320 0 ?208 159 127 128 0 0 1 17 29 0 169 208 2
08 54 46 10 0 0 +15 169 367 0 29 114 0 17 46 0 203 56 56 39 29 10 0 207 -15 203
 219 0 46 195 209 17 56 0 203 46 46 54 207 164 0 206 +16 164 209 0 ?56 87 210 15
3 87 87 1 16 87 203 0 ?86 211 164 153 164 164 1 16 210 81 0 ?197 164 158 212 0 0
 1 17 197 0 190 197 197 0 213 210 0 0 +16 158 304 0 ?214 210 44 152 44 44 1 31 2
12 117 0 210 165 215 0 +-.476383795025688 -.2 0 -277555756156289e-30 -1 0 1 -277
555756156289e-30 0 .027 31 165 118 0 211 153 212 0 +.903616204974312 -5639699092
48027e-32 0 -1224646799147352e-31 1 0 -1 -1224646799147352e-31 0 .027 31 215 116
 0 216 212 217 0 +.903616204974312 -.2 0 0 1 0 0 0 1 .027 16 216 85 0 ?218 219 2
11 215 0 0 1 31 217 26 0 219 215 220 0 +-.476383795025688 -.2 0 -277555756156289
e-30 -1 0 0 0 1 .03 16 219 6 0 ?221 222 216 217 0 0 1 31 220 27 0 222 217 223 0
 +-.476383795025688 0 0 -277555756156289e-30 -1 0 0 0 1 .03 16 222 261 0 ?224 22
5 219 220 225 225 1 31 223 28 0 226 220 121 0 +.903616204974312 -111022302462515
6e-31 0 0 1 0 0 0 1 .03 16 226 13 0 ?227 228 225 223 0 0 1 31 121 29 0 228 223 2
0 0 +.903616204974312 -.2 0 0 1 0 0 0 1 .03 16 228 17 0 ?229 30 226 121 0 0 1 17
 229 0 205 229 229 0 230 228 0 0 +16 30 211 0 ?78 10 228 20 0 0 1 17 78 0 194 86
 86 47 66 30 0 85 +15 194 102 0 86 189 0 17 86 0 194 78 78 64 85 87 0 0 +17 66 0
 72 69 51 64 78 30 0 79 -17 79 0 81 85 73 64 69 80 0 86 +15 205 18 0 229 196 231
 17 230 0 232 230 230 0 229 228 0 0 -15 232 38 0 230 146 0 14 146 36 233 ?141 18
 234 5 19 -0 0 18 141 28 81 1 233 585 176 146 235 0 204 236 237 14 18 49 236 ?14
6 189 238 5 6 +0 0 115 146 28 15 234 73 0 218 146 232 50 19 42 0 146 149 6 0 +.9
03616204974312 -.2 0 0 1 0 0 0 1 51 149 25 0 196 102 19 0 -.903616204974312 0 0
 0 -1 0 .03 0 0 -1 17 218 0 234 218 218 0 239 216 0 0 +17 239 0 240 239 239 0 21
8 216 0 0 -15 240 107 0 239 115 241 14 115 103 242 ?76 195 240 5 142 +0 0 195 18
 28 15 241 108 0 243 115 0 17 243 0 241 243 243 0 244 211 0 0 +17 244 0 209 244
 244 0 243 211 0 0 -16 211 84 0 ?243 216 87 165 0 0 1 15 209 101 0 244 195 0 81
 1 242 589 176 115 245 0 236 246 247 80 7 CCCCCDI12 legal_owners0 16 1 lCZ1 176
 248 249 9000 1 1 1 1 1 1 1 1 0 FFFFTFTFFFFFFFFF1 81 3 245 588 250 115 251 242 2
52 253 254 0 0 81 1 236 587 176 18 252 0 233 242 255 81 1 246 591 176 186 253 0
 242 256 257 82 255 1 247 -356646808 14 186 265 246 ?148 117 33 5 102 -145 145 1
48 117 28 81 3 253 590 250 186 258 246 245 259 260 0 0 81 1 256 593 176 148 259
 0 246 261 262 82 1 257 1266679941 14 148 277 256 ?0 186 263 5 129 -141 141 0 18
6 28 81 3 259 592 250 148 264 256 253 265 266 0 0 81 1 261 595 176 168 265 0 256
 267 268 82 1 262 1267728517 14 168 339 261 ?116 114 269 5 22 +114 114 116 114 2
8 81 3 265 594 250 168 270 261 259 271 272 0 0 81 1 267 597 176 145 271 0 261 0
 273 82 1 268 1262747781 14 145 12 267 ?196 141 274 5 102 -186 186 141 196 28 81
 3 271 596 250 145 275 267 265 0 276 0 0 82 1 273 -364642171 80 3 250 277 278 90
00 0 0 0 0 3 5 0 0 0 FFFFTFFFFFFFFFFF1 1 1 81 1 275 193 279 145 0 271 280 281 28
2 82 6 276 0 19031038 31106406 0 0 0 80 1 279 0 283 8001 0 0 0 0 3 5 0 0 0 FFFFT
FTFFFFFFFFF2 81 1 280 192 279 141 0 284 285 275 286 81 1 281 194 279 196 0 287 2
75 288 289 83 255 3 282 .909803921568627 .443137254901961 .03137254901960785 81
 3 287 582 250 196 281 204 290 235 291 0 0 81 1 288 195 279 107 0 200 281 292 29
3 83 3 289 .909803921568627 .443137254901961 .03137254901960785 81 3 200 578 250
 107 288 198 294 290 295 0 0 81 1 292 196 279 195 0 290 288 251 296 83 3 293 .90
9803921568627 .443137254901961 .03137254901960785 81 3 290 580 250 195 292 201 2
00 287 297 0 0 81 1 251 197 279 115 0 245 292 298 299 83 3 296 .909803921568627
 .443137254901961 .03137254901960785 81 1 298 215 279 189 0 294 251 300 301 83 3
 299 .909803921568627 .443137254901961 .03137254901960785 81 3 294 576 250 189 2
98 192 191 200 302 0 0 81 1 300 237 279 16 0 191 298 258 303 83 3 301 .909803921
568627 .443137254901961 .03137254901960785 81 3 191 574 250 16 300 188 304 294 3
05 0 0 81 1 258 266 279 186 0 253 300 264 306 83 3 303 .909803921568627 .4431372
54901961 .03137254901960785 81 1 264 278 279 148 0 259 258 307 308 83 3 306 .909
803921568627 .443137254901961 .03137254901960785 81 1 307 497 279 76 0 309 264 3
10 311 83 3 308 .909803921568627 .443137254901961 .03137254901960785 81 3 309 56
1 250 76 307 113 0 284 312 0 0 81 1 310 498 279 114 0 313 307 270 314 83 3 311 .
792156862745098 .819607843137255 .933333333333333 81 3 313 565 250 114 310 167 2
84 315 316 0 0 81 1 270 499 279 168 0 265 310 317 318 83 3 314 .792156862745098
 .819607843137255 .933333333333333 81 1 317 500 279 116 0 319 270 177 320 83 3 3
18 .792156862745098 .819607843137255 .933333333333333 81 3 319 570 250 116 317 1
81 315 304 321 0 0 81 1 177 501 279 170 0 174 317 322 323 83 3 320 .792156862745
098 .819607843137255 .933333333333333 81 1 322 502 279 118 0 315 177 324 325 83
 3 323 .792156862745098 .819607843137255 .933333333333333 81 3 315 568 250 118 3
22 178 313 319 326 0 0 81 1 324 503 279 117 0 304 322 0 327 83 3 325 .7921568627
45098 .819607843137255 .933333333333333 81 3 304 572 250 117 324 185 319 191 328
 0 0 83 3 327 .792156862745098 .819607843137255 .933333333333333 81 1 185 573 17
6 117 304 0 181 188 329 82 6 328 0 19031038 31106406 0 0 0 81 1 181 571 176 116
 319 0 178 185 330 82 1 329 1244921989 81 1 178 569 176 118 315 0 174 181 331 82
 1 330 1260060805 82 1 331 1235943557 82 6 326 0 19031038 31106406 0 0 0 82 6 32
1 0 19031038 31106406 0 0 0 81 1 167 566 176 114 313 0 144 174 332 81 3 284 563
 250 141 280 144 309 313 333 0 0 82 6 316 0 19031038 31106406 0 0 0 81 1 144 564
 176 141 284 0 113 167 334 82 6 333 0 19031038 31106406 0 0 0 81 1 113 562 176 7
6 309 0 0 144 335 82 1 334 -365363067 82 1 335 1244528773 82 1 332 1236664453 82
 6 312 0 19031038 31106406 0 0 0 82 6 305 0 19031038 31106406 0 0 0 81 1 192 577
 176 189 294 0 188 198 336 82 6 302 0 19031038 31106406 0 0 0 82 1 336 125665293
3 81 1 201 581 176 195 290 0 198 204 337 82 6 297 0 19031038 31106406 0 0 0 81 1
 204 583 176 196 287 0 201 233 338 82 1 337 -356974459 82 1 338 -364248984 82 6
 295 0 19031038 31106406 0 0 0 81 3 235 584 250 146 285 233 287 252 339 0 0 82 6
 291 0 -1246771980 31106402 0 0 0 81 1 285 191 279 146 0 235 340 280 341 81 3 25
2 586 250 18 340 236 235 245 342 0 0 82 6 339 0 -1246771980 31106402 0 0 0 81 1
 340 190 279 18 0 252 0 285 343 82 6 342 0 -1246771980 31106402 0 0 0 83 3 343 .
909803921568627 .443137254901961 .03137254901960785 83 3 341 .909803921568627 .4
43137254901961 .03137254901960785 83 3 286 .909803921568627 .443137254901961 .03
137254901960785 79 255 15 283 SDL/TYSA_COLOUR79 18 278 DOWNSTREAM_FACE_ID15 274
 14 0 227 145 344 17 227 0 274 227 227 0 345 226 0 0 +15 344 11 0 346 145 0 17 3
46 0 344 45 45 52 224 222 0 0 -17 45 0 344 346 346 32 41 159 0 224 +17 224 0 147
 43 214 32 346 222 0 0 +15 147 10 0 43 141 347 17 43 0 147 90 224 57 38 44 0 0 +
17 214 0 147 224 90 52 61 158 0 346 +17 90 0 147 214 43 59 42 88 0 0 +17 61 0 40
 42 41 59 214 158 0 90 -15 40 342 0 61 168 0 17 42 0 40 38 61 57 90 88 0 43 -17
 41 0 40 61 38 52 45 159 0 214 -16 159 305 0 ?45 44 135 136 0 0 1 15 347 7 0 348
 141 0 17 348 0 347 348 348 0 221 219 0 0 -17 221 0 349 221 221 0 348 219 0 0 +1
5 349 51 0 221 18 0 17 345 0 231 345 345 0 227 226 0 0 -15 231 15 0 345 196 0 82
 6 272 0 19031038 31106406 0 0 0 15 269 341 0 350 168 40 17 350 0 269 350 350 0
 351 91 0 0 +17 351 0 180 351 351 0 350 91 0 0 -16 91 303 0 ?350 88 82 100 0 0 1
 16 82 317 0 ?352 91 74 353 0 0 1 31 100 401 0 91 353 92 0 +.673616204974312 -.1
317852524935656 0 0 1 0 0 0 1 .03 31 353 402 0 82 354 100 0 +.673616204974312 -.
2 0 0 1 0 0 0 1 .03 31 354 404 0 355 84 353 0 +.673616204974312 -.2 0 0 1 0 0 0
 1 .027 16 355 313 0 ?183 83 0 354 0 0 1 31 84 405 0 74 356 354 0 +-.47638379502
5688 -.1317852524935656 0 0 -1 0 0 0 -1 .027 31 356 406 0 83 0 84 0 -.6736162049
74312 -.1317852524935656 0 0 -1 0 0 0 -1 .027 16 83 323 0 ?357 74 355 356 0 0 1
 17 357 0 187 357 357 0 358 83 0 0 +15 187 374 0 357 117 359 17 358 0 182 358 35
8 0 357 83 0 0 -15 182 349 0 358 116 360 15 360 350 0 35 116 0 17 35 0 360 134 1
34 62 31 36 0 0 +17 134 0 360 35 35 11 361 127 0 0 +16 36 307 0 ?35 127 80 93 0
 0 1 17 361 0 263 37 37 62 134 127 0 35 -15 263 276 0 361 148 0 17 37 0 263 361
 361 11 34 225 0 134 +17 34 0 33 31 31 62 37 225 0 361 -16 225 255 0 ?37 226 222
 220 222 222 1 15 33 264 0 31 186 0 15 359 375 0 362 117 0 17 362 0 359 362 362
 0 183 355 0 0 -17 183 0 175 183 183 0 362 355 0 0 +17 352 0 363 352 352 0 364 8
2 0 0 +15 363 364 0 352 118 0 17 364 0 184 364 364 0 352 82 0 0 -15 184 357 0 36
4 170 0 15 180 363 0 351 118 363 82 6 266 0 19031038 31106406 0 0 0 82 6 260 0 1
9031038 31106406 0 0 0 82 1 255 -362217368 82 6 254 0 -1246771980 31106402 0 0 0
 79 14 249 SWEntUnchanged15 238 78 0 213 18 349 17 213 0 238 213 213 0 197 210 0
 0 -82 1 237 -361365400 54 21 112 0 195 94 142 365 -.213616204974312 -9014032823
36476e-31 0 0 0 -1 .69 .027 -1 0 0 141 365 20 366 366 21 141 366 7 365 365 21 82
 1 202 -357105531 82 1 193 1263992965 82 1 179 1239089285 40 15 160 0 1 15 .0093
0347626635143 .3457094159708355 ??-.468832794999268 -2000000001134905e-22 .02903
41591681497 -.459183143589319 .059228923322551 .02620840314185185 -.443873640475
0365 .1176160015865172 .0203170076418491 -.432582671985978 .15044411979561 .0140
2562061899684 -.426466116302858 .166130822332419 .00870354552970868 -.4235560232
52088 .1731901421177235 .004163343890195815 -.42303628328903 .1744261324143815 .
00261608735959287 -.4227541975185705 .1750939254562355 .001069484517026486 -.422
7015860572465 .175218240473854 -.0002830786116275195 -.4228249660354055 .1749265
91436656 -.001604456132510425 -.4232365259679435 .173950798553173 -.003299582084
57651 -.4243508754278875 .1712856774154325 -.00577432196193355 -.428956627703571
 .1598905887054785 -.01119428029710892 -.44928243683108 .0994268018031443 -.0226
3724688736575 -.468832794999268 -200000000135136e-21 -.0290341591681497 41 1 161
 L?-.468832794999268 -2000000001134905e-22 .0290341591681497 41 1 162 L?-.468832
794999268 -200000000135136e-21 -.0290341591681497 204 60 163 4 6.28318501411739
 -1.825232734350265 2.913396686780875 1.316359919239526 .0878071965545811 -2.079
01353617401 2.811666418364405 1.062579117415784 .177014092377089 -2.397596453201
795 2.710673133294995 .743996200388001 .2287393207704755 -2.655108671617755 2.65
3214703940105 .486483981972037 .2539427823257625 -2.84724232237714 2.62551125629
676 .2943503312126525 .265398605603244 -3.00236515515841 2.612982650607905 .1392
27498431383 .2674119560343305 -3.054278841474385 2.61078486019936 .0873138121154
076 .268500706033063 -3.105935614297295 2.60959688200153 .03565703929249635 .268
703459970496 3.13215655983808 2.609375688738625 -.00943609375171334 .26822782635
22415 3.08808525384027 2.60989459816562 -.0535073997495229 .266637395443765 3.03
1383619157535 2.61163023206127 -.110209034432257 .262300823650626 2.947906523850
08 2.616366609377 -.1936861297397115 .2438759979108795 2.75919860071135 2.636553
5229296 -.382394052878445 .148878153100319 2.28658658834665 2.74226759135089 -.8
55006065243146 6.28318501411739 1.825232734350265 2.913396686780875 -1.316359919
239526 141 150 93 367 367 102 141 367 136 150 150 102 40 13 137 0 1 13 .01007316
81522697 .374908131444716 ??-.474624861671232 1999999999743355e-22 -.02694264562
83451 -.488219347639115 -.0490615943637975 -.0242676676739814 -.493273829937169
 -.0589011165093625 -.0210648218765073 -.498074743498888 -.0658051452451603 -.01
607802084626775 -.501302434220591 -.0695182571159756 -.01039525952895216 -.50317
7442475347 -.0714123564553331 -.00333173473484512 -.503158606691859 -.0713941721
748563 .0034798649745451 -.501595783702085 -.0698262238212783 .0096620715677982
 -.498834680664894 -.0667368601116101 .0149985910676744 -.494375026622285 -.0606
599331954718 .02013245105886565 -.488163298081443 -.0489331950683673 .0242949234
977078 -.476302502440658 -.00808004480542779 .0269998776203823 -.474624861671232
 199999999986087e-21 .02694264562834515 41 1 138 L?-.474624861671232 19999999997
43355e-22 -.0269426456283451 41 1 139 L?-.474624861671232 199999999986087e-21 .0
2694264562834515 204 52 140 4 4.64719713309357 .2000002 2.915623665254055 -1.115
403184657024 ??3.001549745824055 -.942316635058757 ??3.019071462923605 -.7784276
27262716 ??3.031463371727745 -.565613687009215 ??3.038170576583845 -.35384659803
3034 6.15947239718176 .128587643544667 3.04160560452661 -.1112873958783262 ??3.0
41572579164425 .1162572058852502 ??3.03872842393765 .327914181450341 ??3.0331432
78767395 .523544546616704 ??3.022219632849655 .735666857586325 ??3.0013219935439
7 .943863618534288 ??2.929654094394465 1.11976015648578 1.63598817408601 .200000
2 2.915623665254055 1.115403184657024 40 15 122 0 1 15 .01550604809127455 .39303
2443808635 ??-.468832794999268 -2000000000089465e-22 .0259226232970633 -.4604051
85273026 .0533252294378457 .0231636378885765 -.44752813352805 .1055480009530254
 .01759040489252095 -.439548057468829 .1308930627210152 .0126571505606329 -.4352
713855430145 .1431337327369276 .00883536610189024 -.4335884639835555 .1477416587
70657 .00673505770605948 -.4320004896560625 .1519914879096475 .00378352891773537
5 -.4314065980215975 .1535575404690165 .00163038629188912 -.4312797036183135 .15
38905486191255 .0004052971407599825 -.4313102009268315 .1538105658720405 -.00087
3922840407049 -.431524514361405 .153247589986175 -.002230380173152855 -.43210869
64110645 .151704808682901 -.004054171236100085 -.434308377481436 .14578397205604
54 -.00770557466028476 -.4441062975933265 .1168727241716376 -.015688313221923 -.
468832794999268 -1999999999948275e-22 -.02592262329706335 41 1 123 L?-.468832794
999268 -2000000000089465e-22 .0259226232970633 41 1 124 L?-.468832794999268 -199
9999999948275e-22 -.02592262329706335 204 60 125 4 6.28318501411739 -1.854243232
372445 2.913396686780875 1.28734942121735 .0789505920796612 -2.110399738172725 2
.82182362096844 1.031192915417074 .158308533431028 -2.4320373345467 2.7316513606
14755 .709555319043096 .197778592084769 -2.653679746210485 2.687509776495625 .48
7912907379308 .2171065594902225 -2.80821584201677 2.666066219087795 .33337681157
3023 .224430927270884 -2.889483924265965 2.657969705410755 .25210872932383 .2312
105378704015 -3.000999236982765 2.650489857398655 .1405934166070304 .23371483897
1667 -3.081171218899495 2.647730417941325 .0604214346902975 .2342477813989635 -3
.126581084580295 2.647143424380815 .0150115690094978 .234119764329738 3.10921948
66469 2.64728441711992 -.0323731669428929 .23321893152756 3.05889174140977 2.648
27669767053 -.0827009121800234 .2307524584969715 2.990868120829285 2.65099481139
044 -.15072453276051 .2213158247006545 2.852177600851475 2.661411221173195 -.289
41505273832 .1758575020341725 2.521576094125355 2.711967177108615 -.620016559464
435 6.28318501411739 1.854243232372445 2.913396686780875 -1.28734942121735 141 1
09 89 368 368 94 141 368 128 109 109 94 40 14 103 0 1 14 .02105623431386845 .361
034823363793 ??-.463152145555595 -2000000001110225e-22 .0269244025430718 -.45716
8720601864 .0538155913041144 .0246771912560858 -.436831532786132 .13335601862398
42 .0149274308172461 -.4302252829652655 .152142804349094 .00958777576872349 -.42
692787189026 .160843809715564 .00505963487130905 -.426205392373681 .162698243812
576 .00331401711260842 -.425808315207717 .163709912195549 .001713544828873115 -.
4256715686988145 .164057094430318 .000403824384918493 -.4257090340845375 .163962
036257857 -.000960709639280904 -.4259495814938405 .1633506010421085 -.0024083044
68399335 -.426603396472365 .1616788711909365 -.004363353645748875 -.429072065436
461 .1552317343007515 -.0082947042336932 -.4400003345582875 .1235639650245714 -.
01687147217943775 -.463152145555595 -2000000001012365e-22 -.0269244025430718 41
 1 104 L?-.463152145555595 -2000000001110225e-22 .0269244025430718 41 1 105 L?-.
463152145555595 -2000000001012365e-22 -.0269244025430718 204 56 106 4 6.28318501
165749 -2.027570154993745 2.911169583274135 1.495946966512506 .0800563217804387
 -2.175671581070855 2.81929291943769 1.152962424536554 .2022195952347565 -2.6207
84822165505 2.68181108330751 .585801959536641 .2320480704349435 -2.8162932246148
65 2.648872807912165 .3630240384997 .24601837670065 -2.97212820277623 2.63353481
8753065 .18850835542359 .249009295171866 -3.030899501569915 2.63025849393948 .12
30516750841712 .2506429970954365 -3.08444338909135 2.62847000146784 .06350730405
71516 .2512039807167865 -3.128131434224105 2.627856045616345 .01495701637263254
 .2510503669553615 3.10956352296619 2.628024155574985 -.0355893509393604 .250062
5948592855 3.061229364759795 2.629105306464945 -.0893151618952516 .2473646077846
875 2.99562979026995 2.632059800947115 -.1623175148159675 .2369959073771 2.86145
2708212825 2.643434074883785 -.3122611963472845 .1868415756443805 2.544328458420
595 2.698892359477835 -.6749641653667 6.28318501165749 2.027570154993745 2.91116
9583274135 -1.495946966512506 19 17 5 0 1 0 9 5 0 S0 40 14 23 0 1 14 .0266984136
7221445 .360590291103237 ??-.474624942564424 -2000000000089465e-22 .026942650909
2852 -.463695536183292 .0528592873086086 .02481994621985275 -.432308023522445 .1
55645100630264 .00861753910338626 -.4307379169338615 .159609520878128 .006634705
64293824 -.429223966998812 .163363475740871 .00383002060354943 -.42879147435807
 .164423903881329 .002500248063713265 -.4285114602652615 .165107692035614 .00089
0742325474126 -.4284782116849555 .1651887403023085 -.0003807398807627545 -.42860
371021865 .164882659504003 -.00161001805882732 -.4290085876318825 .1638922182708
26 -.00323710510766718 -.430110633235296 .1611729270130235 -.00564629480443316 -
.4347617065017715 .1492963334106098 -.0110048444163733 -.451972093564881 .098040
9525607329 -.0207878756121044 -.474624942564424 -1999999999536205e-22 -.02694265
09092853 41 1 24 L?-.474624942564424 -2000000000089465e-22 .0269426509092852 41
 1 25 L?-.474624942564424 -1999999999536205e-22 -.0269426509092853 204 56 26 4 6
.28318501658377 -1.635985171663255 2.915624358826 1.115403584896302 .07788490637
64545 -1.97540309348401 2.82431856658878 .974340362562432 .2364571784763005 -2.8
1674109161191 2.64539361191009 .2913559613090435 .242817182321048 -2.89332010829
3815 2.63838691567739 .223000539109103 .248859741094702 -2.999259948333095 2.631
741690002845 .1280167294439544 .250570276674891 -3.048858015377985 2.62986262624
7255 .0834383842654211 .251674122051375 -3.108596209852875 2.6286505117606 .0296
957751391141 .251805003488649 3.12749070913234 2.62850681826268 -.01269167008185
52 .251310775956303 3.08192695982027 2.62904945408481 -.0536930639350349 .249712
4345409615 3.02141076913476 2.63080487170749 -.1081139980703164 .245331309871039
 2.93091560159963 2.63562064735407 -.1893390792648435 .22631653473531 2.72178279
438103 2.65659166400425 -.375597183147998 .1462480209243142 2.262874808767935 2.
746160372845175 -.765543804435587 6.28318501658377 1.635985171663245 2.915624358
826 -1.1154035848963 74 4 CI16 index_map_offset0 0 1 dCCZ20 15 10 0 0 271 267 32
4 369 370 371 372 373 13 2 0 0 0 0 0 0 0 0 0 0 81 2 369 442 374 1 0 370 0 0 0 37
5 81 2 370 457 376 1 369 371 0 0 0 377 81 2 371 458 378 1 370 372 0 0 379 0 81 1
 372 474 380 1 371 373 0 0 381 81 2 373 475 382 1 372 13 0 0 0 0 81 2 13 496 383
 1 373 2 0 0 384 0 80 2 383 385 386 8004 0 0 0 0 3 5 0 0 0 FFTFFFFFFFFFFFFF2 3 8
3 1 384 1 79 16 386 SDL/TYSA_DENSITY80 2 382 387 388 9000 0 0 0 0 3 5 0 0 0 FFTF
FFFFFFFFFFFF9 1 79 16 388 BODY_RECIPE_200180 1 380 389 390 9000 1 1 1 1 1 1 1 1
 0 FFTFFFFFFFFFFFFF1 82 1 381 1698356 79 10 390 BODY_MATCH80 2 378 391 392 9000
 0 0 0 0 3 5 0 0 0 FFTFTTTFFTFFFFFF3 3 84 255 11 379 Sweep-Thin279 21 392 SWIMPL
ICITBODYNAME_ID80 2 376 393 394 9000 0 0 0 0 3 5 0 0 0 FFTFFFFFFFFFFFFF9 1 82 1
 377 44 79 30 394 LAST_BODY_MODIFYING_FEATURE_ID80 2 374 395 396 9000 0 0 0 0 3
 5 0 0 0 FFTFFFFFFFFFFTFF9 1 82 1 375 133 79 19 396 ENT_TIME_STAMP_200180 2 12 3
97 398 9000 0 0 0 0 3 5 0 0 0 FFTFFFFFFFFFFFFF9 1 82 1 14 102 79 12 398 ATOM_ID_
20011 0 
